STARTFONT 2.1
COMMENT This is Synepsis by Arianon, based on Gohufont by Hugo Chargois.
FONT -arianon-Synepis-Normal-R-Normal--14-100-100-100-C-80-ISO10646-1
SIZE 14 100 100
FONTBOUNDINGBOX 12 14 0 -3
STARTPROPERTIES 31
FOUNDRY "arianon"
FAMILY_NAME "Synepis"
WEIGHT_NAME "Normal"
SLANT "R"
SETWIDTH_NAME "Normal"
ADD_STYLE_NAME ""
PIXEL_SIZE 14
POINT_SIZE 100
RESOLUTION_X 100
RESOLUTION_Y 100
SPACING "C"
AVERAGE_WIDTH 80
CHARSET_REGISTRY "ISO10646"
CHARSET_ENCODING "1"
FONTNAME_REGISTRY ""
FONT_NAME "Synepis"
FACE_NAME "Synepis"
FONT_VERSION "001.000"
FONT_ASCENT 11
FONT_DESCENT 3
UNDERLINE_POSITION -1
UNDERLINE_THICKNESS 1
X_HEIGHT 7
CAP_HEIGHT 9
RAW_ASCENT 785
RAW_DESCENT 215
NORM_SPACE 8
FIGURE_WIDTH 8
AVG_LOWERCASE_WIDTH 80
AVG_UPPERCASE_WIDTH "80"
_GBDFED_INFO "Edited with gbdfed 1.6."
ENDPROPERTIES
CHARS 867
STARTCHAR space
ENCODING 32
SWIDTH 411 0
DWIDTH 8 0
BBX 12 14 0 -3
BITMAP
0000
0000
0000
0000
0000
0000
0000
0000
0000
0000
0000
0000
0000
0000
ENDCHAR
STARTCHAR exclam
ENCODING 33
SWIDTH 411 0
DWIDTH 8 0
BBX 12 14 0 -3
BITMAP
0000
1000
1000
1000
1000
1000
1000
1000
0000
1000
1000
0000
0000
0000
ENDCHAR
STARTCHAR quotedbl
ENCODING 34
SWIDTH 411 0
DWIDTH 8 0
BBX 12 14 0 -3
BITMAP
0000
2400
2400
2400
0000
0000
0000
0000
0000
0000
0000
0000
0000
0000
ENDCHAR
STARTCHAR numbersign
ENCODING 35
SWIDTH 411 0
DWIDTH 8 0
BBX 12 14 0 -3
BITMAP
0000
2800
2800
2800
FE00
2800
2800
FE00
2800
2800
2800
0000
0000
0000
ENDCHAR
STARTCHAR dollar
ENCODING 36
SWIDTH 411 0
DWIDTH 8 0
BBX 12 14 0 -3
BITMAP
1000
1000
7C00
9200
9000
9000
7C00
1200
1200
9200
7C00
1000
1000
0000
ENDCHAR
STARTCHAR percent
ENCODING 37
SWIDTH 411 0
DWIDTH 8 0
BBX 12 14 0 -3
BITMAP
0000
0000
6400
9400
6800
0800
1000
1000
2000
2C00
5200
4C00
0000
0000
ENDCHAR
STARTCHAR ampersand
ENCODING 38
SWIDTH 411 0
DWIDTH 8 0
BBX 12 14 0 -3
BITMAP
0000
1800
2400
2400
1800
3000
4A00
4400
4400
4400
3A00
0000
0000
0000
ENDCHAR
STARTCHAR quotesingle
ENCODING 39
SWIDTH 411 0
DWIDTH 8 0
BBX 12 14 0 -3
BITMAP
0000
1000
1000
1000
1000
0000
0000
0000
0000
0000
0000
0000
0000
0000
ENDCHAR
STARTCHAR parenleft
ENCODING 40
SWIDTH 411 0
DWIDTH 8 0
BBX 12 14 0 -3
BITMAP
0000
0800
1000
2000
2000
4000
4000
4000
4000
2000
2000
1000
0800
0000
ENDCHAR
STARTCHAR parenright
ENCODING 41
SWIDTH 411 0
DWIDTH 8 0
BBX 12 14 0 -3
BITMAP
0000
2000
1000
0800
0800
0400
0400
0400
0400
0800
0800
1000
2000
0000
ENDCHAR
STARTCHAR asterisk
ENCODING 42
SWIDTH 411 0
DWIDTH 8 0
BBX 12 14 0 -3
BITMAP
0000
0000
0000
1000
9200
5400
3800
5400
9200
1000
0000
0000
0000
0000
ENDCHAR
STARTCHAR plus
ENCODING 43
SWIDTH 411 0
DWIDTH 8 0
BBX 12 14 0 -3
BITMAP
0000
0000
0000
1000
1000
1000
FE00
1000
1000
1000
0000
0000
0000
0000
ENDCHAR
STARTCHAR comma
ENCODING 44
SWIDTH 411 0
DWIDTH 8 0
BBX 12 14 0 -3
BITMAP
0000
0000
0000
0000
0000
0000
0000
0000
0000
3000
3000
1000
2000
0000
ENDCHAR
STARTCHAR hyphen
ENCODING 45
SWIDTH 411 0
DWIDTH 8 0
BBX 12 14 0 -3
BITMAP
0000
0000
0000
0000
0000
0000
7E00
0000
0000
0000
0000
0000
0000
0000
ENDCHAR
STARTCHAR period
ENCODING 46
SWIDTH 411 0
DWIDTH 8 0
BBX 12 14 0 -3
BITMAP
0000
0000
0000
0000
0000
0000
0000
0000
0000
3000
3000
0000
0000
0000
ENDCHAR
STARTCHAR slash
ENCODING 47
SWIDTH 411 0
DWIDTH 8 0
BBX 12 14 0 -3
BITMAP
0200
0200
0400
0400
0800
0800
1000
1000
2000
2000
4000
4000
0000
0000
ENDCHAR
STARTCHAR zero
ENCODING 48
SWIDTH 411 0
DWIDTH 8 0
BBX 12 14 0 -3
BITMAP
0000
0000
3C00
4200
4600
4A00
5200
6200
4200
4200
3C00
0000
0000
0000
ENDCHAR
STARTCHAR one
ENCODING 49
SWIDTH 411 0
DWIDTH 8 0
BBX 12 14 0 -3
BITMAP
0000
0000
0800
1800
2800
4800
0800
0800
0800
0800
0800
0000
0000
0000
ENDCHAR
STARTCHAR two
ENCODING 50
SWIDTH 411 0
DWIDTH 8 0
BBX 12 14 0 -3
BITMAP
0000
0000
3C00
4200
4200
0400
0800
1000
2000
4000
7E00
0000
0000
0000
ENDCHAR
STARTCHAR three
ENCODING 51
SWIDTH 411 0
DWIDTH 8 0
BBX 12 14 0 -3
BITMAP
0000
0000
3C00
4200
0200
0200
1C00
0200
0200
4200
3C00
0000
0000
0000
ENDCHAR
STARTCHAR four
ENCODING 52
SWIDTH 411 0
DWIDTH 8 0
BBX 12 14 0 -3
BITMAP
0000
0000
0400
0C00
1400
2400
4400
7E00
0400
0400
0400
0000
0000
0000
ENDCHAR
STARTCHAR five
ENCODING 53
SWIDTH 411 0
DWIDTH 8 0
BBX 12 14 0 -3
BITMAP
0000
0000
7E00
4000
4000
7C00
0200
0200
0200
4200
3C00
0000
0000
0000
ENDCHAR
STARTCHAR six
ENCODING 54
SWIDTH 411 0
DWIDTH 8 0
BBX 12 14 0 -3
BITMAP
0000
0000
3C00
4000
4000
7C00
4200
4200
4200
4200
3C00
0000
0000
0000
ENDCHAR
STARTCHAR seven
ENCODING 55
SWIDTH 411 0
DWIDTH 8 0
BBX 12 14 0 -3
BITMAP
0000
0000
7E00
0200
0400
0400
0800
0800
1000
1000
1000
0000
0000
0000
ENDCHAR
STARTCHAR eight
ENCODING 56
SWIDTH 411 0
DWIDTH 8 0
BBX 12 14 0 -3
BITMAP
0000
0000
3C00
4200
4200
4200
3C00
4200
4200
4200
3C00
0000
0000
0000
ENDCHAR
STARTCHAR nine
ENCODING 57
SWIDTH 411 0
DWIDTH 8 0
BBX 12 14 0 -3
BITMAP
0000
0000
3C00
4200
4200
4200
3E00
0200
0200
0400
3800
0000
0000
0000
ENDCHAR
STARTCHAR colon
ENCODING 58
SWIDTH 411 0
DWIDTH 8 0
BBX 12 14 0 -3
BITMAP
0000
0000
0000
0000
1800
1800
0000
0000
0000
1800
1800
0000
0000
0000
ENDCHAR
STARTCHAR semicolon
ENCODING 59
SWIDTH 411 0
DWIDTH 8 0
BBX 12 14 0 -3
BITMAP
0000
0000
0000
0000
3000
3000
0000
0000
0000
3000
3000
1000
2000
0000
ENDCHAR
STARTCHAR less
ENCODING 60
SWIDTH 411 0
DWIDTH 8 0
BBX 12 14 0 -3
BITMAP
0000
0000
0000
0400
0800
1000
2000
4000
2000
1000
0800
0400
0000
0000
ENDCHAR
STARTCHAR equal
ENCODING 61
SWIDTH 411 0
DWIDTH 8 0
BBX 12 14 0 -3
BITMAP
0000
0000
0000
0000
7E00
0000
0000
0000
7E00
0000
0000
0000
0000
0000
ENDCHAR
STARTCHAR greater
ENCODING 62
SWIDTH 411 0
DWIDTH 8 0
BBX 12 14 0 -3
BITMAP
0000
0000
0000
4000
2000
1000
0800
0400
0800
1000
2000
4000
0000
0000
ENDCHAR
STARTCHAR question
ENCODING 63
SWIDTH 411 0
DWIDTH 8 0
BBX 12 14 0 -3
BITMAP
0000
3C00
4200
0200
0200
0400
0800
1000
0000
1000
1000
0000
0000
0000
ENDCHAR
STARTCHAR at
ENCODING 64
SWIDTH 411 0
DWIDTH 8 0
BBX 12 14 0 -3
BITMAP
0000
7C00
8200
9E00
A200
A200
A200
A600
9A00
8000
7E00
0000
0000
0000
ENDCHAR
STARTCHAR A
ENCODING 65
SWIDTH 411 0
DWIDTH 8 0
BBX 12 14 0 -3
BITMAP
0000
0000
3C00
4200
4200
4200
7E00
4200
4200
4200
4200
0000
0000
0000
ENDCHAR
STARTCHAR B
ENCODING 66
SWIDTH 411 0
DWIDTH 8 0
BBX 12 14 0 -3
BITMAP
0000
0000
7C00
4200
4200
4200
7C00
4200
4200
4200
7C00
0000
0000
0000
ENDCHAR
STARTCHAR C
ENCODING 67
SWIDTH 411 0
DWIDTH 8 0
BBX 12 14 0 -3
BITMAP
0000
0000
3C00
4200
4000
4000
4000
4000
4000
4200
3C00
0000
0000
0000
ENDCHAR
STARTCHAR D
ENCODING 68
SWIDTH 411 0
DWIDTH 8 0
BBX 12 14 0 -3
BITMAP
0000
0000
7800
4400
4200
4200
4200
4200
4200
4400
7800
0000
0000
0000
ENDCHAR
STARTCHAR E
ENCODING 69
SWIDTH 411 0
DWIDTH 8 0
BBX 12 14 0 -3
BITMAP
0000
0000
7E00
4000
4000
4000
7800
4000
4000
4000
7E00
0000
0000
0000
ENDCHAR
STARTCHAR F
ENCODING 70
SWIDTH 411 0
DWIDTH 8 0
BBX 12 14 0 -3
BITMAP
0000
0000
7E00
4000
4000
4000
7800
4000
4000
4000
4000
0000
0000
0000
ENDCHAR
STARTCHAR G
ENCODING 71
SWIDTH 411 0
DWIDTH 8 0
BBX 12 14 0 -3
BITMAP
0000
0000
3C00
4200
4000
4000
4E00
4200
4200
4200
3C00
0000
0000
0000
ENDCHAR
STARTCHAR H
ENCODING 72
SWIDTH 411 0
DWIDTH 8 0
BBX 12 14 0 -3
BITMAP
0000
0000
4200
4200
4200
4200
7E00
4200
4200
4200
4200
0000
0000
0000
ENDCHAR
STARTCHAR I
ENCODING 73
SWIDTH 411 0
DWIDTH 8 0
BBX 12 14 0 -3
BITMAP
0000
0000
3800
1000
1000
1000
1000
1000
1000
1000
3800
0000
0000
0000
ENDCHAR
STARTCHAR J
ENCODING 74
SWIDTH 411 0
DWIDTH 8 0
BBX 12 14 0 -3
BITMAP
0000
0000
0200
0200
0200
0200
0200
0200
4200
4200
3C00
0000
0000
0000
ENDCHAR
STARTCHAR K
ENCODING 75
SWIDTH 411 0
DWIDTH 8 0
BBX 12 14 0 -3
BITMAP
0000
0000
4200
4400
4800
5000
6000
5000
4800
4400
4200
0000
0000
0000
ENDCHAR
STARTCHAR L
ENCODING 76
SWIDTH 411 0
DWIDTH 8 0
BBX 12 14 0 -3
BITMAP
0000
0000
4000
4000
4000
4000
4000
4000
4000
4000
7E00
0000
0000
0000
ENDCHAR
STARTCHAR M
ENCODING 77
SWIDTH 411 0
DWIDTH 8 0
BBX 12 14 0 -3
BITMAP
0000
0000
8200
C600
AA00
9200
9200
8200
8200
8200
8200
0000
0000
0000
ENDCHAR
STARTCHAR N
ENCODING 78
SWIDTH 411 0
DWIDTH 8 0
BBX 12 14 0 -3
BITMAP
0000
0000
4200
6200
6200
5200
5200
4A00
4A00
4600
4600
0000
0000
0000
ENDCHAR
STARTCHAR O
ENCODING 79
SWIDTH 411 0
DWIDTH 8 0
BBX 12 14 0 -3
BITMAP
0000
0000
3C00
4200
4200
4200
4200
4200
4200
4200
3C00
0000
0000
0000
ENDCHAR
STARTCHAR P
ENCODING 80
SWIDTH 411 0
DWIDTH 8 0
BBX 12 14 0 -3
BITMAP
0000
0000
7C00
4200
4200
4200
7C00
4000
4000
4000
4000
0000
0000
0000
ENDCHAR
STARTCHAR Q
ENCODING 81
SWIDTH 411 0
DWIDTH 8 0
BBX 12 14 0 -3
BITMAP
0000
0000
3C00
4200
4200
4200
4200
4A00
4A00
4400
3A00
0200
0000
0000
ENDCHAR
STARTCHAR R
ENCODING 82
SWIDTH 411 0
DWIDTH 8 0
BBX 12 14 0 -3
BITMAP
0000
0000
7C00
4200
4200
4200
7C00
4800
4400
4200
4200
0000
0000
0000
ENDCHAR
STARTCHAR S
ENCODING 83
SWIDTH 411 0
DWIDTH 8 0
BBX 12 14 0 -3
BITMAP
0000
0000
3C00
4200
4000
4000
3C00
0200
0200
4200
3C00
0000
0000
0000
ENDCHAR
STARTCHAR T
ENCODING 84
SWIDTH 411 0
DWIDTH 8 0
BBX 12 14 0 -3
BITMAP
0000
0000
FE00
1000
1000
1000
1000
1000
1000
1000
1000
0000
0000
0000
ENDCHAR
STARTCHAR U
ENCODING 85
SWIDTH 411 0
DWIDTH 8 0
BBX 12 14 0 -3
BITMAP
0000
0000
4200
4200
4200
4200
4200
4200
4200
4200
3C00
0000
0000
0000
ENDCHAR
STARTCHAR V
ENCODING 86
SWIDTH 411 0
DWIDTH 8 0
BBX 12 14 0 -3
BITMAP
0000
0000
4200
4200
4200
4200
2400
2400
2400
1800
1800
0000
0000
0000
ENDCHAR
STARTCHAR W
ENCODING 87
SWIDTH 411 0
DWIDTH 8 0
BBX 12 14 0 -3
BITMAP
0000
0000
8200
8200
9200
9200
9200
AA00
4400
4400
4400
0000
0000
0000
ENDCHAR
STARTCHAR X
ENCODING 88
SWIDTH 411 0
DWIDTH 8 0
BBX 12 14 0 -3
BITMAP
0000
0000
4200
4200
2400
2400
1800
2400
2400
4200
4200
0000
0000
0000
ENDCHAR
STARTCHAR Y
ENCODING 89
SWIDTH 411 0
DWIDTH 8 0
BBX 12 14 0 -3
BITMAP
0000
0000
8200
8200
4400
4400
2800
1000
1000
1000
1000
0000
0000
0000
ENDCHAR
STARTCHAR Z
ENCODING 90
SWIDTH 411 0
DWIDTH 8 0
BBX 12 14 0 -3
BITMAP
0000
0000
7E00
0200
0400
0800
1000
2000
4000
4000
7E00
0000
0000
0000
ENDCHAR
STARTCHAR bracketleft
ENCODING 91
SWIDTH 411 0
DWIDTH 8 0
BBX 12 14 0 -3
BITMAP
0000
1C00
1000
1000
1000
1000
1000
1000
1000
1000
1000
1C00
0000
0000
ENDCHAR
STARTCHAR backslash
ENCODING 92
SWIDTH 411 0
DWIDTH 8 0
BBX 12 14 0 -3
BITMAP
4000
4000
2000
2000
1000
1000
0800
0800
0400
0400
0200
0200
0000
0000
ENDCHAR
STARTCHAR bracketright
ENCODING 93
SWIDTH 411 0
DWIDTH 8 0
BBX 12 14 0 -3
BITMAP
0000
3800
0800
0800
0800
0800
0800
0800
0800
0800
0800
3800
0000
0000
ENDCHAR
STARTCHAR asciicircum
ENCODING 94
SWIDTH 411 0
DWIDTH 8 0
BBX 12 14 0 -3
BITMAP
0000
1000
2800
4400
0000
0000
0000
0000
0000
0000
0000
0000
0000
0000
ENDCHAR
STARTCHAR underscore
ENCODING 95
SWIDTH 411 0
DWIDTH 8 0
BBX 12 14 0 -3
BITMAP
0000
0000
0000
0000
0000
0000
0000
0000
0000
0000
0000
FF00
0000
0000
ENDCHAR
STARTCHAR grave
ENCODING 96
SWIDTH 411 0
DWIDTH 8 0
BBX 12 14 0 -3
BITMAP
0000
4000
2000
1000
0000
0000
0000
0000
0000
0000
0000
0000
0000
0000
ENDCHAR
STARTCHAR a
ENCODING 97
SWIDTH 411 0
DWIDTH 8 0
BBX 12 14 0 -3
BITMAP
0000
0000
0000
0000
3C00
0200
3E00
4200
4200
4600
3A00
0000
0000
0000
ENDCHAR
STARTCHAR b
ENCODING 98
SWIDTH 411 0
DWIDTH 8 0
BBX 12 14 0 -3
BITMAP
0000
4000
4000
4000
5C00
6200
4200
4200
4200
4200
7C00
0000
0000
0000
ENDCHAR
STARTCHAR c
ENCODING 99
SWIDTH 411 0
DWIDTH 8 0
BBX 12 14 0 -3
BITMAP
0000
0000
0000
0000
3C00
4200
4000
4000
4000
4200
3C00
0000
0000
0000
ENDCHAR
STARTCHAR d
ENCODING 100
SWIDTH 411 0
DWIDTH 8 0
BBX 12 14 0 -3
BITMAP
0000
0200
0200
0200
3E00
4200
4200
4200
4200
4600
3A00
0000
0000
0000
ENDCHAR
STARTCHAR e
ENCODING 101
SWIDTH 411 0
DWIDTH 8 0
BBX 12 14 0 -3
BITMAP
0000
0000
0000
0000
3C00
4200
4200
7E00
4000
4000
3E00
0000
0000
0000
ENDCHAR
STARTCHAR f
ENCODING 102
SWIDTH 411 0
DWIDTH 8 0
BBX 12 14 0 -3
BITMAP
0000
1C00
2000
2000
2000
3C00
2000
2000
2000
2000
2000
0000
0000
0000
ENDCHAR
STARTCHAR g
ENCODING 103
SWIDTH 411 0
DWIDTH 8 0
BBX 12 14 0 -3
BITMAP
0000
0000
0000
0000
3E00
4200
4200
4200
4200
4600
3A00
0200
0200
3C00
ENDCHAR
STARTCHAR h
ENCODING 104
SWIDTH 411 0
DWIDTH 8 0
BBX 12 14 0 -3
BITMAP
0000
4000
4000
4000
5C00
6200
4200
4200
4200
4200
4200
0000
0000
0000
ENDCHAR
STARTCHAR i
ENCODING 105
SWIDTH 411 0
DWIDTH 8 0
BBX 12 14 0 -3
BITMAP
0000
1000
1000
0000
7000
1000
1000
1000
1000
1000
1C00
0000
0000
0000
ENDCHAR
STARTCHAR j
ENCODING 106
SWIDTH 411 0
DWIDTH 8 0
BBX 12 14 0 -3
BITMAP
0000
0800
0800
0000
1800
0800
0800
0800
0800
0800
0800
0800
0800
7000
ENDCHAR
STARTCHAR k
ENCODING 107
SWIDTH 411 0
DWIDTH 8 0
BBX 12 14 0 -3
BITMAP
0000
4000
4000
4000
4000
4400
4800
7000
4800
4400
4200
0000
0000
0000
ENDCHAR
STARTCHAR l
ENCODING 108
SWIDTH 411 0
DWIDTH 8 0
BBX 12 14 0 -3
BITMAP
0000
3000
1000
1000
1000
1000
1000
1000
1000
1000
0E00
0000
0000
0000
ENDCHAR
STARTCHAR m
ENCODING 109
SWIDTH 411 0
DWIDTH 8 0
BBX 12 14 0 -3
BITMAP
0000
0000
0000
0000
FC00
9200
9200
9200
9200
9200
9200
0000
0000
0000
ENDCHAR
STARTCHAR n
ENCODING 110
SWIDTH 411 0
DWIDTH 8 0
BBX 12 14 0 -3
BITMAP
0000
0000
0000
0000
7C00
4200
4200
4200
4200
4200
4200
0000
0000
0000
ENDCHAR
STARTCHAR o
ENCODING 111
SWIDTH 411 0
DWIDTH 8 0
BBX 12 14 0 -3
BITMAP
0000
0000
0000
0000
3C00
4200
4200
4200
4200
4200
3C00
0000
0000
0000
ENDCHAR
STARTCHAR p
ENCODING 112
SWIDTH 411 0
DWIDTH 8 0
BBX 12 14 0 -3
BITMAP
0000
0000
0000
0000
5C00
6200
4200
4200
4200
4200
7C00
4000
4000
4000
ENDCHAR
STARTCHAR q
ENCODING 113
SWIDTH 411 0
DWIDTH 8 0
BBX 12 14 0 -3
BITMAP
0000
0000
0000
0000
3E00
4200
4200
4200
4200
4600
3A00
0200
0200
0200
ENDCHAR
STARTCHAR r
ENCODING 114
SWIDTH 411 0
DWIDTH 8 0
BBX 12 14 0 -3
BITMAP
0000
0000
0000
0000
5C00
6200
4000
4000
4000
4000
4000
0000
0000
0000
ENDCHAR
STARTCHAR s
ENCODING 115
SWIDTH 411 0
DWIDTH 8 0
BBX 12 14 0 -3
BITMAP
0000
0000
0000
0000
3C00
4000
4000
3C00
0200
0200
7C00
0000
0000
0000
ENDCHAR
STARTCHAR t
ENCODING 116
SWIDTH 411 0
DWIDTH 8 0
BBX 12 14 0 -3
BITMAP
0000
1000
1000
1000
3C00
1000
1000
1000
1000
1000
0C00
0000
0000
0000
ENDCHAR
STARTCHAR u
ENCODING 117
SWIDTH 411 0
DWIDTH 8 0
BBX 12 14 0 -3
BITMAP
0000
0000
0000
0000
4200
4200
4200
4200
4200
4600
3A00
0000
0000
0000
ENDCHAR
STARTCHAR v
ENCODING 118
SWIDTH 411 0
DWIDTH 8 0
BBX 12 14 0 -3
BITMAP
0000
0000
0000
0000
4200
4200
4200
2400
2400
1800
1800
0000
0000
0000
ENDCHAR
STARTCHAR w
ENCODING 119
SWIDTH 411 0
DWIDTH 8 0
BBX 12 14 0 -3
BITMAP
0000
0000
0000
0000
8200
8200
9200
9200
AA00
4400
4400
0000
0000
0000
ENDCHAR
STARTCHAR x
ENCODING 120
SWIDTH 411 0
DWIDTH 8 0
BBX 12 14 0 -3
BITMAP
0000
0000
0000
0000
4200
4200
2400
1800
2400
4200
4200
0000
0000
0000
ENDCHAR
STARTCHAR y
ENCODING 121
SWIDTH 411 0
DWIDTH 8 0
BBX 12 14 0 -3
BITMAP
0000
0000
0000
0000
4200
4200
4200
4200
4200
4600
3A00
0200
0200
3C00
ENDCHAR
STARTCHAR z
ENCODING 122
SWIDTH 411 0
DWIDTH 8 0
BBX 12 14 0 -3
BITMAP
0000
0000
0000
0000
7E00
0400
0800
1000
2000
4000
7E00
0000
0000
0000
ENDCHAR
STARTCHAR braceleft
ENCODING 123
SWIDTH 411 0
DWIDTH 8 0
BBX 12 14 0 -3
BITMAP
0000
0E00
1000
1000
1000
0800
0800
F000
0800
0800
1000
1000
0E00
0000
ENDCHAR
STARTCHAR bar
ENCODING 124
SWIDTH 411 0
DWIDTH 8 0
BBX 12 14 0 -3
BITMAP
0000
1000
1000
1000
1000
1000
1000
1000
1000
1000
1000
1000
1000
0000
ENDCHAR
STARTCHAR braceright
ENCODING 125
SWIDTH 411 0
DWIDTH 8 0
BBX 12 14 0 -3
BITMAP
0000
7000
0800
0800
0800
1000
1000
0F00
1000
1000
0800
0800
7000
0000
ENDCHAR
STARTCHAR asciitilde
ENCODING 126
SWIDTH 411 0
DWIDTH 8 0
BBX 12 14 0 -3
BITMAP
0000
0000
0000
0000
0000
6200
9200
8C00
0000
0000
0000
0000
0000
0000
ENDCHAR
STARTCHAR nbspace
ENCODING 160
SWIDTH 411 0
DWIDTH 8 0
BBX 12 14 0 -3
BITMAP
0000
0000
0000
0000
0000
0000
0000
0000
0000
0000
0000
0000
0000
0000
ENDCHAR
STARTCHAR exclamdown
ENCODING 161
SWIDTH 411 0
DWIDTH 8 0
BBX 12 14 0 -3
BITMAP
0000
1000
1000
0000
1000
1000
1000
1000
1000
1000
1000
0000
0000
0000
ENDCHAR
STARTCHAR cent
ENCODING 162
SWIDTH 411 0
DWIDTH 8 0
BBX 12 14 0 -3
BITMAP
0000
0000
1000
1000
7C00
9200
9000
9000
9000
9200
7C00
1000
1000
0000
ENDCHAR
STARTCHAR sterling
ENCODING 163
SWIDTH 411 0
DWIDTH 8 0
BBX 12 14 0 -3
BITMAP
0000
1800
2400
2000
2000
7800
2000
2000
2000
2200
5C00
0000
0000
0000
ENDCHAR
STARTCHAR currency
ENCODING 164
SWIDTH 411 0
DWIDTH 8 0
BBX 12 14 0 -3
BITMAP
0000
0000
0000
0000
8200
7C00
4400
4400
4400
7C00
8200
0000
0000
0000
ENDCHAR
STARTCHAR yen
ENCODING 165
SWIDTH 411 0
DWIDTH 8 0
BBX 12 14 0 -3
BITMAP
0000
8200
8200
4400
2800
1000
7C00
1000
7C00
1000
1000
0000
0000
0000
ENDCHAR
STARTCHAR brokenbar
ENCODING 166
SWIDTH 411 0
DWIDTH 8 0
BBX 12 14 0 -3
BITMAP
0000
1000
1000
1000
1000
1000
0000
0000
1000
1000
1000
1000
1000
0000
ENDCHAR
STARTCHAR section
ENCODING 167
SWIDTH 411 0
DWIDTH 8 0
BBX 12 14 0 -3
BITMAP
0000
3800
4400
4000
3000
4800
4400
4400
2400
1800
0400
4400
3800
0000
ENDCHAR
STARTCHAR dieresis
ENCODING 168
SWIDTH 411 0
DWIDTH 8 0
BBX 12 14 0 -3
BITMAP
0000
2400
2400
0000
0000
0000
0000
0000
0000
0000
0000
0000
0000
0000
ENDCHAR
STARTCHAR copyright
ENCODING 169
SWIDTH 411 0
DWIDTH 8 0
BBX 12 14 0 -3
BITMAP
0000
0000
3C00
4200
9900
A500
A100
A500
9900
4200
3C00
0000
0000
0000
ENDCHAR
STARTCHAR ordfeminine
ENCODING 170
SWIDTH 411 0
DWIDTH 8 0
BBX 12 14 0 -3
BITMAP
0000
3800
0400
3C00
4400
3C00
0000
7C00
0000
0000
0000
0000
0000
0000
ENDCHAR
STARTCHAR guillemotleft
ENCODING 171
SWIDTH 411 0
DWIDTH 8 0
BBX 12 14 0 -3
BITMAP
0000
0000
0000
0000
1200
2400
4800
9000
4800
2400
1200
0000
0000
0000
ENDCHAR
STARTCHAR logicalnot
ENCODING 172
SWIDTH 411 0
DWIDTH 8 0
BBX 12 14 0 -3
BITMAP
0000
0000
0000
0000
0000
7E00
0200
0200
0200
0000
0000
0000
0000
0000
ENDCHAR
STARTCHAR softhyphen
ENCODING 173
SWIDTH 411 0
DWIDTH 8 0
BBX 12 14 0 -3
BITMAP
0000
0000
0000
0000
0000
0000
0000
3C00
0000
0000
0000
0000
0000
0000
ENDCHAR
STARTCHAR registered
ENCODING 174
SWIDTH 411 0
DWIDTH 8 0
BBX 12 14 0 -3
BITMAP
0000
0000
3C00
4200
B900
A500
B900
A900
A500
4200
3C00
0000
0000
0000
ENDCHAR
STARTCHAR macron
ENCODING 175
SWIDTH 411 0
DWIDTH 8 0
BBX 12 14 0 -3
BITMAP
0000
7E00
0000
0000
0000
0000
0000
0000
0000
0000
0000
0000
0000
0000
ENDCHAR
STARTCHAR degree
ENCODING 176
SWIDTH 411 0
DWIDTH 8 0
BBX 12 14 0 -3
BITMAP
0000
1800
2400
2400
1800
0000
0000
0000
0000
0000
0000
0000
0000
0000
ENDCHAR
STARTCHAR plusminus
ENCODING 177
SWIDTH 411 0
DWIDTH 8 0
BBX 12 14 0 -3
BITMAP
0000
0000
0000
0000
1000
1000
7C00
1000
1000
0000
7C00
0000
0000
0000
ENDCHAR
STARTCHAR twosuperior
ENCODING 178
SWIDTH 411 0
DWIDTH 8 0
BBX 12 14 0 -3
BITMAP
0000
1800
2400
0800
1000
3C00
0000
0000
0000
0000
0000
0000
0000
0000
ENDCHAR
STARTCHAR threesuperior
ENCODING 179
SWIDTH 411 0
DWIDTH 8 0
BBX 12 14 0 -3
BITMAP
0000
3800
0400
1800
0400
3800
0000
0000
0000
0000
0000
0000
0000
0000
ENDCHAR
STARTCHAR acute
ENCODING 180
SWIDTH 411 0
DWIDTH 8 0
BBX 12 14 0 -3
BITMAP
0800
1000
0000
0000
0000
0000
0000
0000
0000
0000
0000
0000
0000
0000
ENDCHAR
STARTCHAR mu
ENCODING 181
SWIDTH 411 0
DWIDTH 8 0
BBX 12 14 0 -3
BITMAP
0000
0000
0000
0000
4200
4200
4200
4200
4200
4600
7A00
4000
4000
4000
ENDCHAR
STARTCHAR paragraph
ENCODING 182
SWIDTH 411 0
DWIDTH 8 0
BBX 12 14 0 -3
BITMAP
0000
7E00
F200
F200
F200
F200
7200
1200
1200
1200
1200
0000
0000
0000
ENDCHAR
STARTCHAR periodcentered
ENCODING 183
SWIDTH 411 0
DWIDTH 8 0
BBX 12 14 0 -3
BITMAP
0000
0000
0000
0000
0000
0000
3000
3000
0000
0000
0000
0000
0000
0000
ENDCHAR
STARTCHAR cedilla
ENCODING 184
SWIDTH 411 0
DWIDTH 8 0
BBX 12 14 0 -3
BITMAP
0000
0000
0000
0000
0000
0000
0000
0000
0000
0000
0000
1000
1000
2000
ENDCHAR
STARTCHAR onesuperior
ENCODING 185
SWIDTH 411 0
DWIDTH 8 0
BBX 12 14 0 -3
BITMAP
0000
1000
3000
1000
1000
3800
0000
0000
0000
0000
0000
0000
0000
0000
ENDCHAR
STARTCHAR ordmasculine
ENCODING 186
SWIDTH 411 0
DWIDTH 8 0
BBX 12 14 0 -3
BITMAP
0000
3800
4400
4400
4400
3800
0000
7C00
0000
0000
0000
0000
0000
0000
ENDCHAR
STARTCHAR guillemotright
ENCODING 187
SWIDTH 411 0
DWIDTH 8 0
BBX 12 14 0 -3
BITMAP
0000
0000
0000
0000
9000
4800
2400
1200
2400
4800
9000
0000
0000
0000
ENDCHAR
STARTCHAR onequarter
ENCODING 188
SWIDTH 411 0
DWIDTH 8 0
BBX 12 14 0 -3
BITMAP
2000
6000
2000
2200
2400
0800
1000
2200
4600
8A00
1E00
0200
0200
0000
ENDCHAR
STARTCHAR onehalf
ENCODING 189
SWIDTH 411 0
DWIDTH 8 0
BBX 12 14 0 -3
BITMAP
2000
6000
2000
2200
2400
0800
1000
2000
4C00
9200
0400
0800
1E00
0000
ENDCHAR
STARTCHAR threequarters
ENCODING 190
SWIDTH 411 0
DWIDTH 8 0
BBX 12 14 0 -3
BITMAP
E000
1000
6000
1200
E400
0800
1000
2200
4600
8A00
1E00
0200
0200
0000
ENDCHAR
STARTCHAR question
ENCODING 191
SWIDTH 411 0
DWIDTH 8 0
BBX 12 14 0 -3
BITMAP
0000
0800
0800
0000
0800
1000
2000
4000
4000
4200
3C00
0000
0000
0000
ENDCHAR
STARTCHAR Agrave
ENCODING 192
SWIDTH 411 0
DWIDTH 8 0
BBX 12 14 0 -3
BITMAP
1000
0800
3C00
4200
4200
4200
7E00
4200
4200
4200
4200
0000
0000
0000
ENDCHAR
STARTCHAR Aacute
ENCODING 193
SWIDTH 411 0
DWIDTH 8 0
BBX 12 14 0 -3
BITMAP
0800
1000
3C00
4200
4200
4200
7E00
4200
4200
4200
4200
0000
0000
0000
ENDCHAR
STARTCHAR Acircumflex
ENCODING 194
SWIDTH 411 0
DWIDTH 8 0
BBX 12 14 0 -3
BITMAP
1800
2400
0000
3C00
4200
4200
4200
7E00
4200
4200
4200
0000
0000
0000
ENDCHAR
STARTCHAR Atilde
ENCODING 195
SWIDTH 411 0
DWIDTH 8 0
BBX 12 14 0 -3
BITMAP
3200
4C00
0000
3C00
4200
4200
4200
7E00
4200
4200
4200
0000
0000
0000
ENDCHAR
STARTCHAR Adieresis
ENCODING 196
SWIDTH 411 0
DWIDTH 8 0
BBX 12 14 0 -3
BITMAP
2400
2400
0000
3C00
4200
4200
4200
7E00
4200
4200
4200
0000
0000
0000
ENDCHAR
STARTCHAR Aring
ENCODING 197
SWIDTH 411 0
DWIDTH 8 0
BBX 12 14 0 -3
BITMAP
1800
2400
1800
3C00
4200
4200
4200
7E00
4200
4200
4200
0000
0000
0000
ENDCHAR
STARTCHAR AE
ENCODING 198
SWIDTH 411 0
DWIDTH 8 0
BBX 12 14 0 -3
BITMAP
0000
7E00
9000
9000
9000
FC00
9000
9000
9000
9000
9E00
0000
0000
0000
ENDCHAR
STARTCHAR Ccedilla
ENCODING 199
SWIDTH 411 0
DWIDTH 8 0
BBX 12 14 0 -3
BITMAP
0000
3C00
4200
4000
4000
4000
4000
4000
4000
4200
3C00
1000
2000
0000
ENDCHAR
STARTCHAR Egrave
ENCODING 200
SWIDTH 411 0
DWIDTH 8 0
BBX 12 14 0 -3
BITMAP
1000
0800
7E00
4000
4000
4000
7800
4000
4000
4000
7E00
0000
0000
0000
ENDCHAR
STARTCHAR Eacute
ENCODING 201
SWIDTH 411 0
DWIDTH 8 0
BBX 12 14 0 -3
BITMAP
0800
1000
7E00
4000
4000
4000
7800
4000
4000
4000
7E00
0000
0000
0000
ENDCHAR
STARTCHAR Ecircumflex
ENCODING 202
SWIDTH 411 0
DWIDTH 8 0
BBX 12 14 0 -3
BITMAP
1800
2400
0000
7E00
4000
4000
7800
4000
4000
4000
7E00
0000
0000
0000
ENDCHAR
STARTCHAR Edieresis
ENCODING 203
SWIDTH 411 0
DWIDTH 8 0
BBX 12 14 0 -3
BITMAP
2400
2400
0000
7E00
4000
4000
7800
4000
4000
4000
7E00
0000
0000
0000
ENDCHAR
STARTCHAR Igrave
ENCODING 204
SWIDTH 411 0
DWIDTH 8 0
BBX 12 14 0 -3
BITMAP
2000
1000
0000
3800
1000
1000
1000
1000
1000
1000
3800
0000
0000
0000
ENDCHAR
STARTCHAR Iacute
ENCODING 205
SWIDTH 411 0
DWIDTH 8 0
BBX 12 14 0 -3
BITMAP
0800
1000
0000
3800
1000
1000
1000
1000
1000
1000
3800
0000
0000
0000
ENDCHAR
STARTCHAR Icircumflex
ENCODING 206
SWIDTH 411 0
DWIDTH 8 0
BBX 12 14 0 -3
BITMAP
1800
2400
0000
3800
1000
1000
1000
1000
1000
1000
3800
0000
0000
0000
ENDCHAR
STARTCHAR Idieresis
ENCODING 207
SWIDTH 411 0
DWIDTH 8 0
BBX 12 14 0 -3
BITMAP
4400
4400
0000
3800
1000
1000
1000
1000
1000
1000
3800
0000
0000
0000
ENDCHAR
STARTCHAR Eth
ENCODING 208
SWIDTH 411 0
DWIDTH 8 0
BBX 12 14 0 -3
BITMAP
0000
7800
4400
4200
4200
F200
4200
4200
4200
4400
7800
0000
0000
0000
ENDCHAR
STARTCHAR Ntilde
ENCODING 209
SWIDTH 411 0
DWIDTH 8 0
BBX 12 14 0 -3
BITMAP
3200
4C00
0000
6200
6200
5200
5200
4A00
4A00
4600
4600
0000
0000
0000
ENDCHAR
STARTCHAR Ograve
ENCODING 210
SWIDTH 411 0
DWIDTH 8 0
BBX 12 14 0 -3
BITMAP
1000
0800
3C00
4200
4200
4200
4200
4200
4200
4200
3C00
0000
0000
0000
ENDCHAR
STARTCHAR Oacute
ENCODING 211
SWIDTH 411 0
DWIDTH 8 0
BBX 12 14 0 -3
BITMAP
0800
1000
3C00
4200
4200
4200
4200
4200
4200
4200
3C00
0000
0000
0000
ENDCHAR
STARTCHAR Ocircumflex
ENCODING 212
SWIDTH 411 0
DWIDTH 8 0
BBX 12 14 0 -3
BITMAP
1800
2400
0000
3C00
4200
4200
4200
4200
4200
4200
3C00
0000
0000
0000
ENDCHAR
STARTCHAR Otilde
ENCODING 213
SWIDTH 411 0
DWIDTH 8 0
BBX 12 14 0 -3
BITMAP
3200
4C00
0000
3C00
4200
4200
4200
4200
4200
4200
3C00
0000
0000
0000
ENDCHAR
STARTCHAR Odieresis
ENCODING 214
SWIDTH 411 0
DWIDTH 8 0
BBX 12 14 0 -3
BITMAP
2400
2400
0000
3C00
4200
4200
4200
4200
4200
4200
3C00
0000
0000
0000
ENDCHAR
STARTCHAR multiply
ENCODING 215
SWIDTH 411 0
DWIDTH 8 0
BBX 12 14 0 -3
BITMAP
0000
0000
0000
0000
0000
4200
2400
1800
2400
4200
0000
0000
0000
0000
ENDCHAR
STARTCHAR Oslash
ENCODING 216
SWIDTH 411 0
DWIDTH 8 0
BBX 12 14 0 -3
BITMAP
0200
3A00
4400
4600
4A00
4A00
5200
5200
6200
2200
5C00
4000
0000
0000
ENDCHAR
STARTCHAR Ugrave
ENCODING 217
SWIDTH 411 0
DWIDTH 8 0
BBX 12 14 0 -3
BITMAP
1000
0800
4200
4200
4200
4200
4200
4200
4200
4200
3C00
0000
0000
0000
ENDCHAR
STARTCHAR Uacute
ENCODING 218
SWIDTH 411 0
DWIDTH 8 0
BBX 12 14 0 -3
BITMAP
0800
1000
4200
4200
4200
4200
4200
4200
4200
4200
3C00
0000
0000
0000
ENDCHAR
STARTCHAR Ucircumflex
ENCODING 219
SWIDTH 411 0
DWIDTH 8 0
BBX 12 14 0 -3
BITMAP
1800
2400
0000
4200
4200
4200
4200
4200
4200
4200
3C00
0000
0000
0000
ENDCHAR
STARTCHAR Udieresis
ENCODING 220
SWIDTH 411 0
DWIDTH 8 0
BBX 12 14 0 -3
BITMAP
2400
2400
0000
4200
4200
4200
4200
4200
4200
4200
3C00
0000
0000
0000
ENDCHAR
STARTCHAR Yacute
ENCODING 221
SWIDTH 411 0
DWIDTH 8 0
BBX 12 14 0 -3
BITMAP
0800
1000
8200
8200
4400
4400
2800
1000
1000
1000
1000
0000
0000
0000
ENDCHAR
STARTCHAR Thorn
ENCODING 222
SWIDTH 411 0
DWIDTH 8 0
BBX 12 14 0 -3
BITMAP
0000
4000
4000
7C00
4200
4200
4200
4200
7C00
4000
4000
0000
0000
0000
ENDCHAR
STARTCHAR germandbls
ENCODING 223
SWIDTH 411 0
DWIDTH 8 0
BBX 12 14 0 -3
BITMAP
0000
3800
4400
4400
4800
7C00
4200
4200
4200
6200
5C00
0000
0000
0000
ENDCHAR
STARTCHAR agrave
ENCODING 224
SWIDTH 411 0
DWIDTH 8 0
BBX 12 14 0 -3
BITMAP
0000
1000
0800
0000
3C00
0200
3E00
4200
4200
4600
3A00
0000
0000
0000
ENDCHAR
STARTCHAR aacute
ENCODING 225
SWIDTH 411 0
DWIDTH 8 0
BBX 12 14 0 -3
BITMAP
0000
0800
1000
0000
3C00
0200
3E00
4200
4200
4600
3A00
0000
0000
0000
ENDCHAR
STARTCHAR acircumflex
ENCODING 226
SWIDTH 411 0
DWIDTH 8 0
BBX 12 14 0 -3
BITMAP
0000
1800
2400
0000
3C00
0200
3E00
4200
4200
4600
3A00
0000
0000
0000
ENDCHAR
STARTCHAR atilde
ENCODING 227
SWIDTH 411 0
DWIDTH 8 0
BBX 12 14 0 -3
BITMAP
0000
3200
4C00
0000
3C00
0200
3E00
4200
4200
4600
3A00
0000
0000
0000
ENDCHAR
STARTCHAR adieresis
ENCODING 228
SWIDTH 411 0
DWIDTH 8 0
BBX 12 14 0 -3
BITMAP
0000
2400
2400
0000
3C00
0200
3E00
4200
4200
4600
3A00
0000
0000
0000
ENDCHAR
STARTCHAR aring
ENCODING 229
SWIDTH 411 0
DWIDTH 8 0
BBX 12 14 0 -3
BITMAP
0000
1800
2400
1800
3C00
0200
3E00
4200
4200
4600
3A00
0000
0000
0000
ENDCHAR
STARTCHAR ae
ENCODING 230
SWIDTH 411 0
DWIDTH 8 0
BBX 12 14 0 -3
BITMAP
0000
0000
0000
0000
6C00
1200
7200
9E00
9000
9000
6C00
0000
0000
0000
ENDCHAR
STARTCHAR ccedilla
ENCODING 231
SWIDTH 411 0
DWIDTH 8 0
BBX 12 14 0 -3
BITMAP
0000
0000
0000
0000
3C00
4200
4000
4000
4000
4200
3C00
1000
2000
0000
ENDCHAR
STARTCHAR egrave
ENCODING 232
SWIDTH 411 0
DWIDTH 8 0
BBX 12 14 0 -3
BITMAP
0000
1000
0800
0000
3C00
4200
4200
7E00
4000
4000
3E00
0000
0000
0000
ENDCHAR
STARTCHAR eacute
ENCODING 233
SWIDTH 411 0
DWIDTH 8 0
BBX 12 14 0 -3
BITMAP
0000
0800
1000
0000
3C00
4200
4200
7E00
4000
4000
3E00
0000
0000
0000
ENDCHAR
STARTCHAR ecircumflex
ENCODING 234
SWIDTH 411 0
DWIDTH 8 0
BBX 12 14 0 -3
BITMAP
0000
1800
2400
0000
3C00
4200
4200
7E00
4000
4000
3E00
0000
0000
0000
ENDCHAR
STARTCHAR edieresis
ENCODING 235
SWIDTH 411 0
DWIDTH 8 0
BBX 12 14 0 -3
BITMAP
0000
2400
2400
0000
3C00
4200
4200
7E00
4000
4000
3E00
0000
0000
0000
ENDCHAR
STARTCHAR igrave
ENCODING 236
SWIDTH 411 0
DWIDTH 8 0
BBX 12 14 0 -3
BITMAP
0000
2000
1000
0000
7000
1000
1000
1000
1000
1000
1C00
0000
0000
0000
ENDCHAR
STARTCHAR iacute
ENCODING 237
SWIDTH 411 0
DWIDTH 8 0
BBX 12 14 0 -3
BITMAP
0000
0800
1000
0000
7000
1000
1000
1000
1000
1000
1C00
0000
0000
0000
ENDCHAR
STARTCHAR icircumflex
ENCODING 238
SWIDTH 411 0
DWIDTH 8 0
BBX 12 14 0 -3
BITMAP
0000
3000
4800
0000
7000
1000
1000
1000
1000
1000
1C00
0000
0000
0000
ENDCHAR
STARTCHAR idieresis
ENCODING 239
SWIDTH 411 0
DWIDTH 8 0
BBX 12 14 0 -3
BITMAP
0000
4800
4800
0000
7000
1000
1000
1000
1000
1000
1C00
0000
0000
0000
ENDCHAR
STARTCHAR eth
ENCODING 240
SWIDTH 411 0
DWIDTH 8 0
BBX 12 14 0 -3
BITMAP
0000
2800
1000
2800
3C00
4200
4200
4200
4200
4200
3C00
0000
0000
0000
ENDCHAR
STARTCHAR ntilde
ENCODING 241
SWIDTH 411 0
DWIDTH 8 0
BBX 12 14 0 -3
BITMAP
0000
3200
4C00
0000
7C00
4200
4200
4200
4200
4200
4200
0000
0000
0000
ENDCHAR
STARTCHAR ograve
ENCODING 242
SWIDTH 411 0
DWIDTH 8 0
BBX 12 14 0 -3
BITMAP
0000
1000
0800
0000
3C00
4200
4200
4200
4200
4200
3C00
0000
0000
0000
ENDCHAR
STARTCHAR oacute
ENCODING 243
SWIDTH 411 0
DWIDTH 8 0
BBX 12 14 0 -3
BITMAP
0000
0800
1000
0000
3C00
4200
4200
4200
4200
4200
3C00
0000
0000
0000
ENDCHAR
STARTCHAR ocircumflex
ENCODING 244
SWIDTH 411 0
DWIDTH 8 0
BBX 12 14 0 -3
BITMAP
0000
1800
2400
0000
3C00
4200
4200
4200
4200
4200
3C00
0000
0000
0000
ENDCHAR
STARTCHAR otilde
ENCODING 245
SWIDTH 411 0
DWIDTH 8 0
BBX 12 14 0 -3
BITMAP
0000
3200
4C00
0000
3C00
4200
4200
4200
4200
4200
3C00
0000
0000
0000
ENDCHAR
STARTCHAR odieresis
ENCODING 246
SWIDTH 411 0
DWIDTH 8 0
BBX 12 14 0 -3
BITMAP
0000
2400
2400
0000
3C00
4200
4200
4200
4200
4200
3C00
0000
0000
0000
ENDCHAR
STARTCHAR divide
ENCODING 247
SWIDTH 411 0
DWIDTH 8 0
BBX 12 14 0 -3
BITMAP
0000
0000
0000
0000
1000
1000
0000
7C00
0000
1000
1000
0000
0000
0000
ENDCHAR
STARTCHAR oslash
ENCODING 248
SWIDTH 411 0
DWIDTH 8 0
BBX 12 14 0 -3
BITMAP
0000
0000
0000
0200
3C00
4600
4A00
5200
6200
4200
BC00
0000
0000
0000
ENDCHAR
STARTCHAR ugrave
ENCODING 249
SWIDTH 411 0
DWIDTH 8 0
BBX 12 14 0 -3
BITMAP
0000
1000
0800
0000
4200
4200
4200
4200
4200
4600
3A00
0000
0000
0000
ENDCHAR
STARTCHAR uacute
ENCODING 250
SWIDTH 411 0
DWIDTH 8 0
BBX 12 14 0 -3
BITMAP
0000
0800
1000
0000
4200
4200
4200
4200
4200
4600
3A00
0000
0000
0000
ENDCHAR
STARTCHAR ucircumflex
ENCODING 251
SWIDTH 411 0
DWIDTH 8 0
BBX 12 14 0 -3
BITMAP
0000
1800
2400
0000
4200
4200
4200
4200
4200
4600
3A00
0000
0000
0000
ENDCHAR
STARTCHAR udieresis
ENCODING 252
SWIDTH 411 0
DWIDTH 8 0
BBX 12 14 0 -3
BITMAP
0000
2400
2400
0000
4200
4200
4200
4200
4200
4600
3A00
0000
0000
0000
ENDCHAR
STARTCHAR yacute
ENCODING 253
SWIDTH 411 0
DWIDTH 8 0
BBX 12 14 0 -3
BITMAP
0000
0800
1000
0000
4200
4200
4200
4200
4200
4600
3A00
0200
0200
3C00
ENDCHAR
STARTCHAR thorn
ENCODING 254
SWIDTH 411 0
DWIDTH 8 0
BBX 12 14 0 -3
BITMAP
0000
4000
4000
4000
7C00
4200
4200
4200
4200
4200
7C00
4000
4000
0000
ENDCHAR
STARTCHAR ydieresis
ENCODING 255
SWIDTH 411 0
DWIDTH 8 0
BBX 12 14 0 -3
BITMAP
0000
2400
2400
0000
4200
4200
4200
4200
4200
4600
3A00
0200
0200
3C00
ENDCHAR
STARTCHAR Amacron
ENCODING 256
SWIDTH 411 0
DWIDTH 8 0
BBX 12 14 0 -3
BITMAP
3C00
0000
3C00
4200
4200
4200
7E00
4200
4200
4200
4200
0000
0000
0000
ENDCHAR
STARTCHAR amacron
ENCODING 257
SWIDTH 411 0
DWIDTH 8 0
BBX 12 14 0 -3
BITMAP
0000
0000
3C00
0000
3C00
0200
3E00
4200
4200
4600
3A00
0000
0000
0000
ENDCHAR
STARTCHAR Abreve
ENCODING 258
SWIDTH 411 0
DWIDTH 8 0
BBX 12 14 0 -3
BITMAP
2400
1800
0000
3C00
4200
4200
4200
7E00
4200
4200
4200
0000
0000
0000
ENDCHAR
STARTCHAR abreve
ENCODING 259
SWIDTH 411 0
DWIDTH 8 0
BBX 12 14 0 -3
BITMAP
0000
2400
1800
0000
3C00
0200
3E00
4200
4200
4600
3A00
0000
0000
0000
ENDCHAR
STARTCHAR Aogonek
ENCODING 260
SWIDTH 411 0
DWIDTH 8 0
BBX 12 14 0 -3
BITMAP
0000
0000
3C00
4200
4200
4200
7E00
4200
4200
4200
4200
0400
0300
0000
ENDCHAR
STARTCHAR aogonek
ENCODING 261
SWIDTH 411 0
DWIDTH 8 0
BBX 12 14 0 -3
BITMAP
0000
0000
0000
0000
3C00
0200
3E00
4200
4200
4600
3A00
0400
0300
0000
ENDCHAR
STARTCHAR Cacute
ENCODING 262
SWIDTH 411 0
DWIDTH 8 0
BBX 12 14 0 -3
BITMAP
0800
1000
3C00
4200
4000
4000
4000
4000
4000
4200
3C00
0000
0000
0000
ENDCHAR
STARTCHAR cacute
ENCODING 263
SWIDTH 411 0
DWIDTH 8 0
BBX 12 14 0 -3
BITMAP
0000
0800
1000
0000
3C00
4200
4000
4000
4000
4200
3C00
0000
0000
0000
ENDCHAR
STARTCHAR Ccircumflex
ENCODING 264
SWIDTH 411 0
DWIDTH 8 0
BBX 12 14 0 -3
BITMAP
1800
2400
0000
3C00
4200
4000
4000
4000
4000
4200
3C00
0000
0000
0000
ENDCHAR
STARTCHAR ccircumflex
ENCODING 265
SWIDTH 411 0
DWIDTH 8 0
BBX 12 14 0 -3
BITMAP
0000
1800
2400
0000
3C00
4200
4000
4000
4000
4200
3C00
0000
0000
0000
ENDCHAR
STARTCHAR Cdotaccent
ENCODING 266
SWIDTH 411 0
DWIDTH 8 0
BBX 12 14 0 -3
BITMAP
1000
1000
0000
3C00
4200
4000
4000
4000
4000
4200
3C00
0000
0000
0000
ENDCHAR
STARTCHAR cdotaccent
ENCODING 267
SWIDTH 411 0
DWIDTH 8 0
BBX 12 14 0 -3
BITMAP
0000
1000
1000
0000
3C00
4200
4000
4000
4000
4200
3C00
0000
0000
0000
ENDCHAR
STARTCHAR Ccaron
ENCODING 268
SWIDTH 411 0
DWIDTH 8 0
BBX 12 14 0 -3
BITMAP
2400
1800
0000
3C00
4200
4200
4000
4000
4000
4200
3C00
0000
0000
0000
ENDCHAR
STARTCHAR ccaron
ENCODING 269
SWIDTH 411 0
DWIDTH 8 0
BBX 12 14 0 -3
BITMAP
0000
2400
1800
0000
3C00
4200
4000
4000
4000
4200
3C00
0000
0000
0000
ENDCHAR
STARTCHAR Dcaron
ENCODING 270
SWIDTH 411 0
DWIDTH 8 0
BBX 12 14 0 -3
BITMAP
2400
1800
0000
7800
4400
4200
4200
4200
4200
4400
7800
0000
0000
0000
ENDCHAR
STARTCHAR dcaron
ENCODING 271
SWIDTH 411 0
DWIDTH 8 0
BBX 12 14 0 -3
BITMAP
2400
1800
0200
0200
0200
3E00
4200
4200
4200
4600
3A00
0000
0000
0000
ENDCHAR
STARTCHAR Dcroat
ENCODING 272
SWIDTH 411 0
DWIDTH 8 0
BBX 12 14 0 -3
BITMAP
0000
0000
7800
4400
4200
4200
F200
4200
4200
4400
7800
0000
0000
0000
ENDCHAR
STARTCHAR dcroat
ENCODING 273
SWIDTH 411 0
DWIDTH 8 0
BBX 12 14 0 -3
BITMAP
0000
0200
0F00
0200
3E00
4200
4200
4200
4200
4600
3A00
0000
0000
0000
ENDCHAR
STARTCHAR Emacron
ENCODING 274
SWIDTH 411 0
DWIDTH 8 0
BBX 12 14 0 -3
BITMAP
3C00
0000
7E00
4000
4000
4000
7800
4000
4000
4000
7E00
0000
0000
0000
ENDCHAR
STARTCHAR emacron
ENCODING 275
SWIDTH 411 0
DWIDTH 8 0
BBX 12 14 0 -3
BITMAP
0000
0000
3C00
0000
3C00
4200
4200
7E00
4000
4000
3E00
0000
0000
0000
ENDCHAR
STARTCHAR Ebreve
ENCODING 276
SWIDTH 411 0
DWIDTH 8 0
BBX 12 14 0 -3
BITMAP
2400
1800
0000
7E00
4000
4000
7800
4000
4000
4000
7E00
0000
0000
0000
ENDCHAR
STARTCHAR ebreve
ENCODING 277
SWIDTH 411 0
DWIDTH 8 0
BBX 12 14 0 -3
BITMAP
0000
2400
1800
0000
3C00
4200
4200
7E00
4000
4000
3E00
0000
0000
0000
ENDCHAR
STARTCHAR Edotaccent
ENCODING 278
SWIDTH 411 0
DWIDTH 8 0
BBX 12 14 0 -3
BITMAP
1000
1000
0000
7E00
4000
4000
7800
4000
4000
4000
7E00
0000
0000
0000
ENDCHAR
STARTCHAR edotaccent
ENCODING 279
SWIDTH 411 0
DWIDTH 8 0
BBX 12 14 0 -3
BITMAP
0000
1000
1000
0000
3C00
4200
4200
7E00
4000
4000
3E00
0000
0000
0000
ENDCHAR
STARTCHAR Eogonek
ENCODING 280
SWIDTH 411 0
DWIDTH 8 0
BBX 12 14 0 -3
BITMAP
0000
0000
7E00
4000
4000
4000
7800
4000
4000
4000
7E00
0400
0300
0000
ENDCHAR
STARTCHAR eogonek
ENCODING 281
SWIDTH 411 0
DWIDTH 8 0
BBX 12 14 0 -3
BITMAP
0000
0000
0000
0000
3C00
4200
4200
7E00
4000
4000
3E00
0800
0600
0000
ENDCHAR
STARTCHAR Ecaron
ENCODING 282
SWIDTH 411 0
DWIDTH 8 0
BBX 12 14 0 -3
BITMAP
2400
1800
0000
7E00
4000
4000
7800
4000
4000
4000
7E00
0000
0000
0000
ENDCHAR
STARTCHAR ecaron
ENCODING 283
SWIDTH 411 0
DWIDTH 8 0
BBX 12 14 0 -3
BITMAP
0000
2400
1800
0000
3C00
4200
4200
7E00
4000
4000
3C00
0000
0000
0000
ENDCHAR
STARTCHAR Gcircumflex
ENCODING 284
SWIDTH 411 0
DWIDTH 8 0
BBX 12 14 0 -3
BITMAP
1800
2400
0000
3C00
4200
4000
4000
4E00
4200
4200
3C00
0000
0000
0000
ENDCHAR
STARTCHAR gcircumflex
ENCODING 285
SWIDTH 411 0
DWIDTH 8 0
BBX 12 14 0 -3
BITMAP
0000
1800
2400
0000
3E00
4200
4200
4200
4200
4600
3A00
0200
0200
3C00
ENDCHAR
STARTCHAR Gbreve
ENCODING 286
SWIDTH 411 0
DWIDTH 8 0
BBX 12 14 0 -3
BITMAP
2400
1800
0000
3C00
4200
4000
4000
4E00
4200
4200
3C00
0000
0000
0000
ENDCHAR
STARTCHAR gbreve
ENCODING 287
SWIDTH 411 0
DWIDTH 8 0
BBX 12 14 0 -3
BITMAP
0000
2400
1800
0000
3E00
4200
4200
4200
4200
4600
3A00
0200
0200
3C00
ENDCHAR
STARTCHAR Gdotaccent
ENCODING 288
SWIDTH 411 0
DWIDTH 8 0
BBX 12 14 0 -3
BITMAP
1000
1000
0000
3C00
4200
4000
4000
4E00
4200
4200
3C00
0000
0000
0000
ENDCHAR
STARTCHAR gdotaccent
ENCODING 289
SWIDTH 411 0
DWIDTH 8 0
BBX 12 14 0 -3
BITMAP
0000
0800
0800
0000
3E00
4200
4200
4200
4200
4600
3A00
0200
0200
3C00
ENDCHAR
STARTCHAR Gcommaaccent
ENCODING 290
SWIDTH 411 0
DWIDTH 8 0
BBX 12 14 0 -3
BITMAP
0000
0000
3C00
4200
4000
4000
4E00
4200
4200
4200
3C00
1000
2000
0000
ENDCHAR
STARTCHAR gcommaaccent
ENCODING 291
SWIDTH 411 0
DWIDTH 8 0
BBX 12 14 0 -3
BITMAP
0400
0800
0800
0000
3E00
4200
4200
4200
4200
4600
3A00
0200
0200
3C00
ENDCHAR
STARTCHAR Hcircumflex
ENCODING 292
SWIDTH 411 0
DWIDTH 8 0
BBX 12 14 0 -3
BITMAP
1800
2400
0000
4200
4200
4200
7E00
4200
4200
4200
4200
0000
0000
0000
ENDCHAR
STARTCHAR hcircumflex
ENCODING 293
SWIDTH 411 0
DWIDTH 8 0
BBX 12 14 0 -3
BITMAP
0C00
1200
4000
4000
4000
5C00
6200
4200
4200
4200
4200
0000
0000
0000
ENDCHAR
STARTCHAR Hbar
ENCODING 294
SWIDTH 411 0
DWIDTH 8 0
BBX 12 14 0 -3
BITMAP
0000
0000
4200
FF00
4200
4200
7E00
4200
4200
4200
4200
0000
0000
0000
ENDCHAR
STARTCHAR hbar
ENCODING 295
SWIDTH 411 0
DWIDTH 8 0
BBX 12 14 0 -3
BITMAP
0000
4000
F800
4000
5C00
6200
4200
4200
4200
4200
4200
0000
0000
0000
ENDCHAR
STARTCHAR Itilde
ENCODING 296
SWIDTH 411 0
DWIDTH 8 0
BBX 12 14 0 -3
BITMAP
3200
4C00
0000
3800
1000
1000
1000
1000
1000
1000
3800
0000
0000
0000
ENDCHAR
STARTCHAR itilde
ENCODING 297
SWIDTH 411 0
DWIDTH 8 0
BBX 12 14 0 -3
BITMAP
0000
3400
5800
0000
7000
1000
1000
1000
1000
1000
1C00
0000
0000
0000
ENDCHAR
STARTCHAR Imacron
ENCODING 298
SWIDTH 411 0
DWIDTH 8 0
BBX 12 14 0 -3
BITMAP
7C00
0000
3800
1000
1000
1000
1000
1000
1000
1000
3800
0000
0000
0000
ENDCHAR
STARTCHAR imacron
ENCODING 299
SWIDTH 411 0
DWIDTH 8 0
BBX 12 14 0 -3
BITMAP
0000
0000
7800
0000
7000
1000
1000
1000
1000
1000
1C00
0000
0000
0000
ENDCHAR
STARTCHAR Ibreve
ENCODING 300
SWIDTH 411 0
DWIDTH 8 0
BBX 12 14 0 -3
BITMAP
2400
1800
0000
3800
1000
1000
1000
1000
1000
1000
3800
0000
0000
0000
ENDCHAR
STARTCHAR ibreve
ENCODING 301
SWIDTH 411 0
DWIDTH 8 0
BBX 12 14 0 -3
BITMAP
0000
4800
3000
0000
7000
1000
1000
1000
1000
1000
1C00
0000
0000
0000
ENDCHAR
STARTCHAR Iogonek
ENCODING 302
SWIDTH 411 0
DWIDTH 8 0
BBX 12 14 0 -3
BITMAP
0000
0000
3800
1000
1000
1000
1000
1000
1000
1000
3800
1000
0C00
0000
ENDCHAR
STARTCHAR iogonek
ENCODING 303
SWIDTH 411 0
DWIDTH 8 0
BBX 12 14 0 -3
BITMAP
0000
1000
1000
0000
7000
1000
1000
1000
1000
1000
1C00
1000
0C00
0000
ENDCHAR
STARTCHAR Idotaccent
ENCODING 304
SWIDTH 411 0
DWIDTH 8 0
BBX 12 14 0 -3
BITMAP
1000
1000
0000
3800
1000
1000
1000
1000
1000
1000
3800
0000
0000
0000
ENDCHAR
STARTCHAR dotlessi
ENCODING 305
SWIDTH 411 0
DWIDTH 8 0
BBX 12 14 0 -3
BITMAP
0000
0000
0000
0000
7000
1000
1000
1000
1000
1000
1C00
0000
0000
0000
ENDCHAR
STARTCHAR IJ
ENCODING 306
SWIDTH 411 0
DWIDTH 8 0
BBX 12 14 0 -3
BITMAP
0000
0000
E200
4200
4200
4200
4200
4200
5200
5200
EC00
0000
0000
0000
ENDCHAR
STARTCHAR ij
ENCODING 307
SWIDTH 411 0
DWIDTH 8 0
BBX 12 14 0 -3
BITMAP
0000
2200
2200
0000
E600
2200
2200
2200
2200
2200
3A00
0200
0200
1C00
ENDCHAR
STARTCHAR Jcircumflex
ENCODING 308
SWIDTH 411 0
DWIDTH 8 0
BBX 12 14 0 -3
BITMAP
0C00
1200
0000
0400
0400
0400
0400
0400
4400
4400
3800
0000
0000
0000
ENDCHAR
STARTCHAR jcircumflex
ENCODING 309
SWIDTH 411 0
DWIDTH 8 0
BBX 12 14 0 -3
BITMAP
0000
0C00
1200
0000
0C00
0400
0400
0400
0400
0400
0400
0400
0400
3800
ENDCHAR
STARTCHAR Kcommaaccent
ENCODING 310
SWIDTH 411 0
DWIDTH 8 0
BBX 12 14 0 -3
BITMAP
0000
0000
4200
4400
4800
5000
6000
5000
4800
4400
5200
1000
2000
0000
ENDCHAR
STARTCHAR kcommaaccent
ENCODING 311
SWIDTH 411 0
DWIDTH 8 0
BBX 12 14 0 -3
BITMAP
0000
4000
4000
4000
4000
4400
4800
7000
4800
4400
5200
1000
2000
0000
ENDCHAR
STARTCHAR kgreenlandic
ENCODING 312
SWIDTH 411 0
DWIDTH 8 0
BBX 12 14 0 -3
BITMAP
0000
0000
0000
0000
4200
4400
4800
7000
4800
4400
4200
0000
0000
0000
ENDCHAR
STARTCHAR Lacute
ENCODING 313
SWIDTH 411 0
DWIDTH 8 0
BBX 12 14 0 -3
BITMAP
2000
4000
0000
4000
4000
4000
4000
4000
4000
4000
7E00
0000
0000
0000
ENDCHAR
STARTCHAR lacute
ENCODING 314
SWIDTH 411 0
DWIDTH 8 0
BBX 12 14 0 -3
BITMAP
0800
1000
0000
3000
1000
1000
1000
1000
1000
1000
0C00
0000
0000
0000
ENDCHAR
STARTCHAR Lcommaaccent
ENCODING 315
SWIDTH 411 0
DWIDTH 8 0
BBX 12 14 0 -3
BITMAP
0000
0000
4000
4000
4000
4000
4000
4000
4000
4000
7E00
1000
2000
0000
ENDCHAR
STARTCHAR lcommaaccent
ENCODING 316
SWIDTH 411 0
DWIDTH 8 0
BBX 12 14 0 -3
BITMAP
0000
3000
1000
1000
1000
1000
1000
1000
1000
1000
0E00
1000
2000
0000
ENDCHAR
STARTCHAR Lcaron
ENCODING 317
SWIDTH 411 0
DWIDTH 8 0
BBX 12 14 0 -3
BITMAP
2400
1800
4000
4000
4000
4000
4000
4000
4000
4000
7E00
0000
0000
0000
ENDCHAR
STARTCHAR lcaron
ENCODING 318
SWIDTH 411 0
DWIDTH 8 0
BBX 12 14 0 -3
BITMAP
4800
3000
0000
3000
1000
1000
1000
1000
1000
1000
0E00
0000
0000
0000
ENDCHAR
STARTCHAR Ldot
ENCODING 319
SWIDTH 411 0
DWIDTH 8 0
BBX 12 14 0 -3
BITMAP
0000
0000
4000
4000
4000
4400
4400
4000
4000
4000
7E00
0000
0000
0000
ENDCHAR
STARTCHAR ldot
ENCODING 320
SWIDTH 411 0
DWIDTH 8 0
BBX 12 14 0 -3
BITMAP
0000
3000
1000
1000
1000
1100
1100
1000
1000
1000
0E00
0000
0000
0000
ENDCHAR
STARTCHAR Lslash
ENCODING 321
SWIDTH 411 0
DWIDTH 8 0
BBX 12 14 0 -3
BITMAP
0000
0000
4000
4000
4000
4000
6000
C000
4000
4000
7E00
0000
0000
0000
ENDCHAR
STARTCHAR lslash
ENCODING 322
SWIDTH 411 0
DWIDTH 8 0
BBX 12 14 0 -3
BITMAP
0000
0000
3000
1000
1000
1000
1800
3000
1000
1000
0E00
0000
0000
0000
ENDCHAR
STARTCHAR Nacute
ENCODING 323
SWIDTH 411 0
DWIDTH 8 0
BBX 12 14 0 -3
BITMAP
0800
1000
4200
6200
6200
5200
5200
4A00
4A00
4600
4600
0000
0000
0000
ENDCHAR
STARTCHAR nacute
ENCODING 324
SWIDTH 411 0
DWIDTH 8 0
BBX 12 14 0 -3
BITMAP
0000
0800
1000
0000
7C00
4200
4200
4200
4200
4200
4200
0000
0000
0000
ENDCHAR
STARTCHAR Ncommaaccent
ENCODING 325
SWIDTH 411 0
DWIDTH 8 0
BBX 12 14 0 -3
BITMAP
0000
0000
4200
6200
6200
5200
5200
4A00
4A00
4600
5600
1000
2000
0000
ENDCHAR
STARTCHAR ncommaaccent
ENCODING 326
SWIDTH 411 0
DWIDTH 8 0
BBX 12 14 0 -3
BITMAP
0000
0000
0000
0000
7C00
4200
4200
4200
4200
4200
5200
1000
2000
0000
ENDCHAR
STARTCHAR Ncaron
ENCODING 327
SWIDTH 411 0
DWIDTH 8 0
BBX 12 14 0 -3
BITMAP
2400
1800
4200
6200
6200
5200
5200
4A00
4A00
4600
4600
0000
0000
0000
ENDCHAR
STARTCHAR ncaron
ENCODING 328
SWIDTH 411 0
DWIDTH 8 0
BBX 12 14 0 -3
BITMAP
0000
2400
1800
0000
7C00
4200
4200
4200
4200
4200
4200
0000
0000
0000
ENDCHAR
STARTCHAR napostrophe
ENCODING 329
SWIDTH 411 0
DWIDTH 8 0
BBX 12 14 0 -3
BITMAP
4000
4000
8000
0000
7C00
4200
4200
4200
4200
4200
4200
0000
0000
0000
ENDCHAR
STARTCHAR Eng
ENCODING 330
SWIDTH 411 0
DWIDTH 8 0
BBX 12 14 0 -3
BITMAP
0000
0000
4200
6200
6200
5200
5200
4A00
4A00
4600
4600
0200
0400
0000
ENDCHAR
STARTCHAR eng
ENCODING 331
SWIDTH 411 0
DWIDTH 8 0
BBX 12 14 0 -3
BITMAP
0000
0000
0000
0000
7C00
4200
4200
4200
4200
4200
4200
0200
0400
0000
ENDCHAR
STARTCHAR Omacron
ENCODING 332
SWIDTH 411 0
DWIDTH 8 0
BBX 12 14 0 -3
BITMAP
3C00
0000
3C00
4200
4200
4200
4200
4200
4200
4200
3C00
0000
0000
0000
ENDCHAR
STARTCHAR omacron
ENCODING 333
SWIDTH 411 0
DWIDTH 8 0
BBX 12 14 0 -3
BITMAP
0000
0000
3C00
0000
3C00
4200
4200
4200
4200
4200
3C00
0000
0000
0000
ENDCHAR
STARTCHAR Obreve
ENCODING 334
SWIDTH 411 0
DWIDTH 8 0
BBX 12 14 0 -3
BITMAP
2400
1800
0000
3C00
4200
4200
4200
4200
4200
4200
3C00
0000
0000
0000
ENDCHAR
STARTCHAR obreve
ENCODING 335
SWIDTH 411 0
DWIDTH 8 0
BBX 12 14 0 -3
BITMAP
0000
2400
1800
0000
3C00
4200
4200
4200
4200
4200
3C00
0000
0000
0000
ENDCHAR
STARTCHAR Ohungarumlaut
ENCODING 336
SWIDTH 411 0
DWIDTH 8 0
BBX 12 14 0 -3
BITMAP
1200
2400
0000
3C00
4200
4200
4200
4200
4200
4200
3C00
0000
0000
0000
ENDCHAR
STARTCHAR ohungarumlaut
ENCODING 337
SWIDTH 411 0
DWIDTH 8 0
BBX 12 14 0 -3
BITMAP
0000
1200
2400
0000
3C00
4200
4200
4200
4200
4200
3C00
0000
0000
0000
ENDCHAR
STARTCHAR OE
ENCODING 338
SWIDTH 411 0
DWIDTH 8 0
BBX 12 14 0 -3
BITMAP
0000
0000
7E00
9000
9000
9000
9C00
9000
9000
9000
7E00
0000
0000
0000
ENDCHAR
STARTCHAR oe
ENCODING 339
SWIDTH 411 0
DWIDTH 8 0
BBX 12 14 0 -3
BITMAP
0000
0000
0000
0000
7C00
9200
9200
9E00
9000
9000
7C00
0000
0000
0000
ENDCHAR
STARTCHAR Racute
ENCODING 340
SWIDTH 411 0
DWIDTH 8 0
BBX 12 14 0 -3
BITMAP
0800
1000
7C00
4200
4200
4200
7C00
4800
4400
4200
4200
0000
0000
0000
ENDCHAR
STARTCHAR racute
ENCODING 341
SWIDTH 411 0
DWIDTH 8 0
BBX 12 14 0 -3
BITMAP
0000
0800
1000
0000
5C00
6200
4000
4000
4000
4000
4000
0000
0000
0000
ENDCHAR
STARTCHAR Rcommaaccent
ENCODING 342
SWIDTH 411 0
DWIDTH 8 0
BBX 12 14 0 -3
BITMAP
0000
0000
7C00
4200
4200
4200
7C00
4800
4400
4200
5200
1000
2000
0000
ENDCHAR
STARTCHAR rcommaaccent
ENCODING 343
SWIDTH 411 0
DWIDTH 8 0
BBX 12 14 0 -3
BITMAP
0000
0000
0000
0000
5C00
6200
4000
4000
4000
4000
6000
2000
4000
0000
ENDCHAR
STARTCHAR Rcaron
ENCODING 344
SWIDTH 411 0
DWIDTH 8 0
BBX 12 14 0 -3
BITMAP
2400
1800
0000
7C00
4200
4200
7C00
4800
4400
4200
4200
0000
0000
0000
ENDCHAR
STARTCHAR rcaron
ENCODING 345
SWIDTH 411 0
DWIDTH 8 0
BBX 12 14 0 -3
BITMAP
0000
2400
1800
0000
5C00
6200
4000
4000
4000
4000
4000
0000
0000
0000
ENDCHAR
STARTCHAR Sacute
ENCODING 346
SWIDTH 411 0
DWIDTH 8 0
BBX 12 14 0 -3
BITMAP
0800
1000
3C00
4200
4000
4000
3C00
0200
0200
4200
3C00
0000
0000
0000
ENDCHAR
STARTCHAR sacute
ENCODING 347
SWIDTH 411 0
DWIDTH 8 0
BBX 12 14 0 -3
BITMAP
0000
0400
0800
0000
3E00
4000
4000
3C00
0200
0200
7C00
0000
0000
0000
ENDCHAR
STARTCHAR Scircumflex
ENCODING 348
SWIDTH 411 0
DWIDTH 8 0
BBX 12 14 0 -3
BITMAP
1800
2400
0000
3C00
4200
4000
3C00
0200
0200
4200
3C00
0000
0000
0000
ENDCHAR
STARTCHAR scircumflex
ENCODING 349
SWIDTH 411 0
DWIDTH 8 0
BBX 12 14 0 -3
BITMAP
0000
1800
2400
0000
3E00
4000
4000
3C00
0200
0200
7C00
0000
0000
0000
ENDCHAR
STARTCHAR Scedilla
ENCODING 350
SWIDTH 411 0
DWIDTH 8 0
BBX 12 14 0 -3
BITMAP
0000
0000
3C00
4200
4000
4000
3C00
0200
0200
4200
3C00
0000
1000
2000
ENDCHAR
STARTCHAR scedilla
ENCODING 351
SWIDTH 411 0
DWIDTH 8 0
BBX 12 14 0 -3
BITMAP
0000
0000
0000
0000
3E00
4000
4000
3C00
0200
0200
7C00
1000
2000
0000
ENDCHAR
STARTCHAR Scaron
ENCODING 352
SWIDTH 411 0
DWIDTH 8 0
BBX 12 14 0 -3
BITMAP
2400
1800
0000
3C00
4200
4000
3C00
0200
0200
4200
3C00
0000
0000
0000
ENDCHAR
STARTCHAR scaron
ENCODING 353
SWIDTH 411 0
DWIDTH 8 0
BBX 12 14 0 -3
BITMAP
0000
2400
1800
0000
3E00
4000
4000
3C00
0200
0200
7C00
0000
0000
0000
ENDCHAR
STARTCHAR Tcedilla
ENCODING 354
SWIDTH 411 0
DWIDTH 8 0
BBX 12 14 0 -3
BITMAP
0000
0000
FE00
1000
1000
1000
1000
1000
1000
1000
1800
0800
1000
0000
ENDCHAR
STARTCHAR tcedilla
ENCODING 355
SWIDTH 411 0
DWIDTH 8 0
BBX 12 14 0 -3
BITMAP
0000
1000
1000
1000
3C00
1000
1000
1000
1000
1000
0C00
0400
0800
0000
ENDCHAR
STARTCHAR Tcaron
ENCODING 356
SWIDTH 411 0
DWIDTH 8 0
BBX 12 14 0 -3
BITMAP
2400
1800
0000
FE00
1000
1000
1000
1000
1000
1000
1000
0000
0000
0000
ENDCHAR
STARTCHAR tcaron
ENCODING 357
SWIDTH 411 0
DWIDTH 8 0
BBX 12 14 0 -3
BITMAP
2400
1800
0000
1000
1000
3C00
1000
1000
1000
1000
0C00
0000
0000
0000
ENDCHAR
STARTCHAR Tbar
ENCODING 358
SWIDTH 411 0
DWIDTH 8 0
BBX 12 14 0 -3
BITMAP
0000
0000
FE00
1000
1000
7C00
1000
1000
1000
1000
1000
0000
0000
0000
ENDCHAR
STARTCHAR tbar
ENCODING 359
SWIDTH 411 0
DWIDTH 8 0
BBX 12 14 0 -3
BITMAP
0000
1000
1000
1000
3C00
1000
3800
1000
1000
1000
0C00
0000
0000
0000
ENDCHAR
STARTCHAR Utilde
ENCODING 360
SWIDTH 411 0
DWIDTH 8 0
BBX 12 14 0 -3
BITMAP
3200
4C00
0000
4200
4200
4200
4200
4200
4200
4200
3C00
0000
0000
0000
ENDCHAR
STARTCHAR utilde
ENCODING 361
SWIDTH 411 0
DWIDTH 8 0
BBX 12 14 0 -3
BITMAP
0000
3200
4C00
0000
4200
4200
4200
4200
4200
4600
3A00
0000
0000
0000
ENDCHAR
STARTCHAR Umacron
ENCODING 362
SWIDTH 411 0
DWIDTH 8 0
BBX 12 14 0 -3
BITMAP
3C00
0000
4200
4200
4200
4200
4200
4200
4200
4200
3C00
0000
0000
0000
ENDCHAR
STARTCHAR umacron
ENCODING 363
SWIDTH 411 0
DWIDTH 8 0
BBX 12 14 0 -3
BITMAP
0000
0000
3C00
0000
4200
4200
4200
4200
4200
4600
3A00
0000
0000
0000
ENDCHAR
STARTCHAR Ubreve
ENCODING 364
SWIDTH 411 0
DWIDTH 8 0
BBX 12 14 0 -3
BITMAP
2400
1800
4200
4200
4200
4200
4200
4200
4200
4200
3C00
0000
0000
0000
ENDCHAR
STARTCHAR ubreve
ENCODING 365
SWIDTH 411 0
DWIDTH 8 0
BBX 12 14 0 -3
BITMAP
0000
2400
1800
0000
4200
4200
4200
4200
4200
4600
3A00
0000
0000
0000
ENDCHAR
STARTCHAR Uring
ENCODING 366
SWIDTH 411 0
DWIDTH 8 0
BBX 12 14 0 -3
BITMAP
1800
2400
1800
4200
4200
4200
4200
4200
4200
4200
3C00
0000
0000
0000
ENDCHAR
STARTCHAR uring
ENCODING 367
SWIDTH 411 0
DWIDTH 8 0
BBX 12 14 0 -3
BITMAP
0000
1800
2400
1800
4200
4200
4200
4200
4200
4600
3A00
0000
0000
0000
ENDCHAR
STARTCHAR Uhungarumlaut
ENCODING 368
SWIDTH 411 0
DWIDTH 8 0
BBX 12 14 0 -3
BITMAP
1200
2400
0000
4200
4200
4200
4200
4200
4200
4200
3C00
0000
0000
0000
ENDCHAR
STARTCHAR uhungarumlaut
ENCODING 369
SWIDTH 411 0
DWIDTH 8 0
BBX 12 14 0 -3
BITMAP
0000
1200
2400
0000
4200
4200
4200
4200
4200
4600
3A00
0000
0000
0000
ENDCHAR
STARTCHAR Uogonek
ENCODING 370
SWIDTH 411 0
DWIDTH 8 0
BBX 12 14 0 -3
BITMAP
0000
0000
4200
4200
4200
4200
4200
4200
4200
4200
3C00
0800
0600
0000
ENDCHAR
STARTCHAR uogonek
ENCODING 371
SWIDTH 411 0
DWIDTH 8 0
BBX 12 14 0 -3
BITMAP
0000
0000
0000
0000
4200
4200
4200
4200
4200
4600
3A00
0400
0300
0000
ENDCHAR
STARTCHAR Wcircumflex
ENCODING 372
SWIDTH 411 0
DWIDTH 8 0
BBX 12 14 0 -3
BITMAP
1800
2400
0000
8200
8200
9200
9200
9200
AA00
4400
4400
0000
0000
0000
ENDCHAR
STARTCHAR wcircumflex
ENCODING 373
SWIDTH 411 0
DWIDTH 8 0
BBX 12 14 0 -3
BITMAP
0000
1800
2400
0000
8200
8200
9200
9200
AA00
4400
4400
0000
0000
0000
ENDCHAR
STARTCHAR Ydieresis
ENCODING 376
SWIDTH 411 0
DWIDTH 8 0
BBX 12 14 0 -3
BITMAP
4400
4400
0000
8200
8200
4400
4400
2800
1000
1000
1000
0000
0000
0000
ENDCHAR
STARTCHAR Zacute
ENCODING 377
SWIDTH 411 0
DWIDTH 8 0
BBX 12 14 0 -3
BITMAP
0800
1000
0000
7E00
0200
0400
0800
1000
2000
4000
7E00
0000
0000
0000
ENDCHAR
STARTCHAR zacute
ENCODING 378
SWIDTH 411 0
DWIDTH 8 0
BBX 12 14 0 -3
BITMAP
0000
0800
1000
0000
7E00
0400
0800
1000
2000
4000
7E00
0000
0000
0000
ENDCHAR
STARTCHAR Zdotaccent
ENCODING 379
SWIDTH 411 0
DWIDTH 8 0
BBX 12 14 0 -3
BITMAP
1000
1000
0000
7E00
0200
0400
0800
1000
2000
4000
7E00
0000
0000
0000
ENDCHAR
STARTCHAR zdotaccent
ENCODING 380
SWIDTH 411 0
DWIDTH 8 0
BBX 12 14 0 -3
BITMAP
0000
1000
1000
0000
7E00
0400
0800
1000
2000
4000
7E00
0000
0000
0000
ENDCHAR
STARTCHAR Zcaron
ENCODING 381
SWIDTH 411 0
DWIDTH 8 0
BBX 12 14 0 -3
BITMAP
2400
1800
0000
7E00
0200
0400
0800
1000
2000
4000
7E00
0000
0000
0000
ENDCHAR
STARTCHAR zcaron
ENCODING 382
SWIDTH 411 0
DWIDTH 8 0
BBX 12 14 0 -3
BITMAP
0000
2400
1800
0000
7E00
0400
0800
1000
2000
4000
7E00
0000
0000
0000
ENDCHAR
STARTCHAR longs
ENCODING 383
SWIDTH 411 0
DWIDTH 8 0
BBX 12 14 0 -3
BITMAP
0000
0E00
1000
1000
1000
1000
1000
1000
1000
1000
1000
0000
0000
0000
ENDCHAR
STARTCHAR uni0186
ENCODING 390
SWIDTH 411 0
DWIDTH 8 0
BBX 12 14 0 -3
BITMAP
0000
3C00
4200
4200
0200
0200
0200
0200
4200
4200
3C00
0000
0000
0000
ENDCHAR
STARTCHAR uni018E
ENCODING 398
SWIDTH 411 0
DWIDTH 8 0
BBX 12 14 0 -3
BITMAP
0000
0000
7E00
0200
0200
0200
1E00
0200
0200
0200
7E00
0000
0000
0000
ENDCHAR
STARTCHAR Schwa
ENCODING 399
SWIDTH 411 0
DWIDTH 8 0
BBX 12 14 0 -3
BITMAP
0000
0000
3C00
4200
0200
0200
7E00
4200
4200
4200
3C00
0000
0000
0000
ENDCHAR
STARTCHAR uni0190
ENCODING 400
SWIDTH 411 0
DWIDTH 8 0
BBX 12 14 0 -3
BITMAP
0000
0000
3C00
4200
4000
4000
3800
4000
4000
4200
3C00
0000
0000
0000
ENDCHAR
STARTCHAR florin
ENCODING 402
SWIDTH 411 0
DWIDTH 8 0
BBX 12 14 0 -3
BITMAP
0000
0C00
1200
1000
1000
7C00
1000
1000
1000
1000
1000
9000
6000
0000
ENDCHAR
STARTCHAR uni019D
ENCODING 413
SWIDTH 411 0
DWIDTH 8 0
BBX 12 14 0 -3
BITMAP
0000
0000
4200
6200
6200
5200
5200
4A00
4A00
4600
4600
4000
8000
0000
ENDCHAR
STARTCHAR uni019E
ENCODING 414
SWIDTH 411 0
DWIDTH 8 0
BBX 12 14 0 -3
BITMAP
0000
0000
0000
0000
7C00
4200
4200
4200
4200
4200
4200
0200
0200
0000
ENDCHAR
STARTCHAR Ezh
ENCODING 439
SWIDTH 411 0
DWIDTH 8 0
BBX 12 14 0 -3
BITMAP
0000
0000
7E00
0200
0400
0800
1C00
0200
4200
4200
3C00
0000
0000
0000
ENDCHAR
STARTCHAR Scommaaccent
ENCODING 536
SWIDTH 411 0
DWIDTH 8 0
BBX 12 14 0 -3
BITMAP
0000
0000
3C00
4200
4000
4000
3C00
0200
0200
4200
3C00
1000
2000
0000
ENDCHAR
STARTCHAR scommaaccent
ENCODING 537
SWIDTH 411 0
DWIDTH 8 0
BBX 12 14 0 -3
BITMAP
0000
0000
0000
0000
3E00
4000
4000
3C00
0200
0200
7C00
1000
2000
0000
ENDCHAR
STARTCHAR Tcommaaccent
ENCODING 538
SWIDTH 411 0
DWIDTH 8 0
BBX 12 14 0 -3
BITMAP
0000
0000
FE00
1000
1000
1000
1000
1000
1000
1000
1800
0800
1000
0000
ENDCHAR
STARTCHAR tcommaaccent
ENCODING 539
SWIDTH 411 0
DWIDTH 8 0
BBX 12 14 0 -3
BITMAP
0000
1000
1000
1000
3C00
1000
1000
1000
1000
1000
0C00
0400
0800
0000
ENDCHAR
STARTCHAR uni0232
ENCODING 562
SWIDTH 411 0
DWIDTH 8 0
BBX 12 14 0 -3
BITMAP
7C00
0000
8200
8200
4400
4400
2800
1000
1000
1000
1000
0000
0000
0000
ENDCHAR
STARTCHAR uni0233
ENCODING 563
SWIDTH 411 0
DWIDTH 8 0
BBX 12 14 0 -3
BITMAP
0000
0000
3C00
0000
4200
4200
4200
4200
4200
4600
3A00
0200
0200
3C00
ENDCHAR
STARTCHAR dotlessj
ENCODING 567
SWIDTH 411 0
DWIDTH 8 0
BBX 12 14 0 -3
BITMAP
0000
0000
0000
0000
0C00
0400
0400
0400
0400
0400
0400
0400
0400
3800
ENDCHAR
STARTCHAR uni0254
ENCODING 596
SWIDTH 411 0
DWIDTH 8 0
BBX 12 14 0 -3
BITMAP
0000
0000
0000
0000
0000
3C00
4200
0200
0200
0200
4200
3C00
0000
0000
ENDCHAR
STARTCHAR uni0258
ENCODING 600
SWIDTH 411 0
DWIDTH 8 0
BBX 12 14 0 -3
BITMAP
0000
0000
0000
0000
3C00
4200
4200
7E00
0200
0200
7C00
0000
0000
0000
ENDCHAR
STARTCHAR schwa
ENCODING 601
SWIDTH 411 0
DWIDTH 8 0
BBX 12 14 0 -3
BITMAP
0000
0000
0000
0000
7C00
0200
0200
7E00
4200
4200
3C00
0000
0000
0000
ENDCHAR
STARTCHAR uni025B
ENCODING 603
SWIDTH 411 0
DWIDTH 8 0
BBX 12 14 0 -3
BITMAP
0000
0000
0000
0000
3C00
4200
4000
3800
4000
4200
3C00
0000
0000
0000
ENDCHAR
STARTCHAR uni0272
ENCODING 626
SWIDTH 411 0
DWIDTH 8 0
BBX 12 14 0 -3
BITMAP
0000
0000
0000
0000
7C00
4200
4200
4200
4200
4200
4200
4000
8000
0000
ENDCHAR
STARTCHAR ezh
ENCODING 658
SWIDTH 411 0
DWIDTH 8 0
BBX 12 14 0 -3
BITMAP
0000
0000
0000
0000
7E00
0200
0400
0800
1C00
0200
0200
4200
3C00
0000
ENDCHAR
STARTCHAR commaturnedmod
ENCODING 699
SWIDTH 411 0
DWIDTH 8 0
BBX 12 14 0 -3
BITMAP
0800
1000
1000
0000
0000
0000
0000
0000
0000
0000
0000
0000
0000
0000
ENDCHAR
STARTCHAR afii57929
ENCODING 700
SWIDTH 411 0
DWIDTH 8 0
BBX 12 14 0 -3
BITMAP
0800
0800
1000
0000
0000
0000
0000
0000
0000
0000
0000
0000
0000
0000
ENDCHAR
STARTCHAR afii64937
ENCODING 701
SWIDTH 411 0
DWIDTH 8 0
BBX 12 14 0 -3
BITMAP
1000
1000
0800
0000
0000
0000
0000
0000
0000
0000
0000
0000
0000
0000
ENDCHAR
STARTCHAR circumflex
ENCODING 710
SWIDTH 411 0
DWIDTH 8 0
BBX 12 14 0 -3
BITMAP
1800
2400
0000
0000
0000
0000
0000
0000
0000
0000
0000
0000
0000
0000
ENDCHAR
STARTCHAR caron
ENCODING 711
SWIDTH 411 0
DWIDTH 8 0
BBX 12 14 0 -3
BITMAP
2400
1800
0000
0000
0000
0000
0000
0000
0000
0000
0000
0000
0000
0000
ENDCHAR
STARTCHAR breve
ENCODING 728
SWIDTH 411 0
DWIDTH 8 0
BBX 12 14 0 -3
BITMAP
2400
1800
0000
0000
0000
0000
0000
0000
0000
0000
0000
0000
0000
0000
ENDCHAR
STARTCHAR dotaccent
ENCODING 729
SWIDTH 411 0
DWIDTH 8 0
BBX 12 14 0 -3
BITMAP
1000
1000
0000
0000
0000
0000
0000
0000
0000
0000
0000
0000
0000
0000
ENDCHAR
STARTCHAR ogonek
ENCODING 731
SWIDTH 411 0
DWIDTH 8 0
BBX 12 14 0 -3
BITMAP
0000
0000
0000
0000
0000
0000
0000
0000
0000
0000
0000
0200
0400
0300
ENDCHAR
STARTCHAR tilde
ENCODING 732
SWIDTH 411 0
DWIDTH 8 0
BBX 12 14 0 -3
BITMAP
3200
4C00
0000
0000
0000
0000
0000
0000
0000
0000
0000
0000
0000
0000
ENDCHAR
STARTCHAR hungarumlaut
ENCODING 733
SWIDTH 411 0
DWIDTH 8 0
BBX 12 14 0 -3
BITMAP
1200
2400
0000
0000
0000
0000
0000
0000
0000
0000
0000
0000
0000
0000
ENDCHAR
STARTCHAR gravecomb
ENCODING 768
SWIDTH 411 0
DWIDTH 8 0
BBX 12 14 0 -3
BITMAP
1000
0800
0000
0000
0000
0000
0000
0000
0000
0000
0000
0000
0000
0000
ENDCHAR
STARTCHAR acutecomb
ENCODING 769
SWIDTH 411 0
DWIDTH 8 0
BBX 12 14 0 -3
BITMAP
0800
1000
0000
0000
0000
0000
0000
0000
0000
0000
0000
0000
0000
0000
ENDCHAR
STARTCHAR uni0302
ENCODING 770
SWIDTH 411 0
DWIDTH 8 0
BBX 12 14 0 -3
BITMAP
1800
2400
0000
0000
0000
0000
0000
0000
0000
0000
0000
0000
0000
0000
ENDCHAR
STARTCHAR tildecomb
ENCODING 771
SWIDTH 411 0
DWIDTH 8 0
BBX 12 14 0 -3
BITMAP
3200
4C00
0000
0000
0000
0000
0000
0000
0000
0000
0000
0000
0000
0000
ENDCHAR
STARTCHAR uni0306
ENCODING 774
SWIDTH 411 0
DWIDTH 8 0
BBX 12 14 0 -3
BITMAP
2400
1800
0000
0000
0000
0000
0000
0000
0000
0000
0000
0000
0000
0000
ENDCHAR
STARTCHAR uni030C
ENCODING 780
SWIDTH 411 0
DWIDTH 8 0
BBX 12 14 0 -3
BITMAP
2400
1800
0000
0000
0000
0000
0000
0000
0000
0000
0000
0000
0000
0000
ENDCHAR
STARTCHAR uni0329
ENCODING 809
SWIDTH 411 0
DWIDTH 8 0
BBX 12 14 0 -3
BITMAP
0000
0000
0000
0000
0000
0000
0000
0000
0000
0000
0000
0000
1000
1000
ENDCHAR
STARTCHAR tonos
ENCODING 900
SWIDTH 411 0
DWIDTH 8 0
BBX 12 14 0 -3
BITMAP
4000
8000
0000
0000
0000
0000
0000
0000
0000
0000
0000
0000
0000
0000
ENDCHAR
STARTCHAR dieresistonos
ENCODING 901
SWIDTH 411 0
DWIDTH 8 0
BBX 12 14 0 -3
BITMAP
0800
1000
0000
2400
0000
0000
0000
0000
0000
0000
0000
0000
0000
0000
ENDCHAR
STARTCHAR Alphatonos
ENCODING 902
SWIDTH 411 0
DWIDTH 8 0
BBX 12 14 0 -3
BITMAP
4000
8000
3C00
4200
4200
4200
7E00
4200
4200
4200
4200
0000
0000
0000
ENDCHAR
STARTCHAR anoteleia
ENCODING 903
SWIDTH 411 0
DWIDTH 8 0
BBX 12 14 0 -3
BITMAP
0000
0000
0000
0000
0000
1000
1000
0000
0000
0000
0000
0000
0000
0000
ENDCHAR
STARTCHAR Epsilontonos
ENCODING 904
SWIDTH 411 0
DWIDTH 8 0
BBX 12 14 0 -3
BITMAP
4000
8000
7E00
4000
4000
4000
7800
4000
4000
4000
7E00
0000
0000
0000
ENDCHAR
STARTCHAR Etatonos
ENCODING 905
SWIDTH 411 0
DWIDTH 8 0
BBX 12 14 0 -3
BITMAP
4000
8000
4200
4200
4200
4200
7E00
4200
4200
4200
4200
0000
0000
0000
ENDCHAR
STARTCHAR Iotatonos
ENCODING 906
SWIDTH 411 0
DWIDTH 8 0
BBX 12 14 0 -3
BITMAP
4000
8000
3800
1000
1000
1000
1000
1000
1000
1000
3800
0000
0000
0000
ENDCHAR
STARTCHAR Omicrontonos
ENCODING 908
SWIDTH 411 0
DWIDTH 8 0
BBX 12 14 0 -3
BITMAP
4000
8000
3C00
4200
4200
4200
4200
4200
4200
4200
3C00
0000
0000
0000
ENDCHAR
STARTCHAR Upsilontonos
ENCODING 910
SWIDTH 411 0
DWIDTH 8 0
BBX 12 14 0 -3
BITMAP
4000
8000
0000
8200
8200
4400
4400
2800
1000
1000
1000
0000
0000
0000
ENDCHAR
STARTCHAR Omegatonos
ENCODING 911
SWIDTH 411 0
DWIDTH 8 0
BBX 12 14 0 -3
BITMAP
4000
8000
3C00
4200
4200
4200
4200
4200
2400
2400
6600
0000
0000
0000
ENDCHAR
STARTCHAR iotadieresistonos
ENCODING 912
SWIDTH 411 0
DWIDTH 8 0
BBX 12 14 0 -3
BITMAP
0800
1000
4800
4800
0000
3000
1000
1000
1000
1000
0C00
0000
0000
0000
ENDCHAR
STARTCHAR Alpha
ENCODING 913
SWIDTH 411 0
DWIDTH 8 0
BBX 12 14 0 -3
BITMAP
0000
0000
3C00
4200
4200
4200
7E00
4200
4200
4200
4200
0000
0000
0000
ENDCHAR
STARTCHAR Beta
ENCODING 914
SWIDTH 411 0
DWIDTH 8 0
BBX 12 14 0 -3
BITMAP
0000
0000
7C00
4200
4200
4200
7C00
4200
4200
4200
7C00
0000
0000
0000
ENDCHAR
STARTCHAR Gamma
ENCODING 915
SWIDTH 411 0
DWIDTH 8 0
BBX 12 14 0 -3
BITMAP
0000
0000
7E00
4000
4000
4000
4000
4000
4000
4000
4000
0000
0000
0000
ENDCHAR
STARTCHAR Delta
ENCODING 916
SWIDTH 411 0
DWIDTH 8 0
BBX 12 14 0 -3
BITMAP
0000
0000
1000
1000
2800
2800
4400
4400
4400
8200
FE00
0000
0000
0000
ENDCHAR
STARTCHAR Epsilon
ENCODING 917
SWIDTH 411 0
DWIDTH 8 0
BBX 12 14 0 -3
BITMAP
0000
0000
7E00
4000
4000
4000
7800
4000
4000
4000
7E00
0000
0000
0000
ENDCHAR
STARTCHAR Zeta
ENCODING 918
SWIDTH 411 0
DWIDTH 8 0
BBX 12 14 0 -3
BITMAP
0000
0000
7E00
0200
0400
0800
1000
2000
4000
4000
7E00
0000
0000
0000
ENDCHAR
STARTCHAR Eta
ENCODING 919
SWIDTH 411 0
DWIDTH 8 0
BBX 12 14 0 -3
BITMAP
0000
0000
4200
4200
4200
4200
7E00
4200
4200
4200
4200
0000
0000
0000
ENDCHAR
STARTCHAR Theta
ENCODING 920
SWIDTH 411 0
DWIDTH 8 0
BBX 12 14 0 -3
BITMAP
0000
0000
3C00
4200
4200
4200
5A00
4200
4200
4200
3C00
0000
0000
0000
ENDCHAR
STARTCHAR Iota
ENCODING 921
SWIDTH 411 0
DWIDTH 8 0
BBX 12 14 0 -3
BITMAP
0000
0000
3800
1000
1000
1000
1000
1000
1000
1000
3800
0000
0000
0000
ENDCHAR
STARTCHAR Kappa
ENCODING 922
SWIDTH 411 0
DWIDTH 8 0
BBX 12 14 0 -3
BITMAP
0000
0000
4200
4400
4800
5000
6000
5000
4800
4400
4200
0000
0000
0000
ENDCHAR
STARTCHAR Lambda
ENCODING 923
SWIDTH 411 0
DWIDTH 8 0
BBX 12 14 0 -3
BITMAP
0000
0000
1000
1000
2800
2800
4400
4400
4400
8200
8200
0000
0000
0000
ENDCHAR
STARTCHAR Mu
ENCODING 924
SWIDTH 411 0
DWIDTH 8 0
BBX 12 14 0 -3
BITMAP
0000
0000
8200
C600
AA00
9200
9200
8200
8200
8200
8200
0000
0000
0000
ENDCHAR
STARTCHAR Nu
ENCODING 925
SWIDTH 411 0
DWIDTH 8 0
BBX 12 14 0 -3
BITMAP
0000
0000
4200
6200
6200
5200
5200
4A00
4A00
4600
4600
0000
0000
0000
ENDCHAR
STARTCHAR Xi
ENCODING 926
SWIDTH 411 0
DWIDTH 8 0
BBX 12 14 0 -3
BITMAP
0000
0000
7E00
0000
0000
0000
3C00
0000
0000
0000
7E00
0000
0000
0000
ENDCHAR
STARTCHAR Omicron
ENCODING 927
SWIDTH 411 0
DWIDTH 8 0
BBX 12 14 0 -3
BITMAP
0000
0000
3C00
4200
4200
4200
4200
4200
4200
4200
3C00
0000
0000
0000
ENDCHAR
STARTCHAR Pi
ENCODING 928
SWIDTH 411 0
DWIDTH 8 0
BBX 12 14 0 -3
BITMAP
0000
0000
7E00
4200
4200
4200
4200
4200
4200
4200
4200
0000
0000
0000
ENDCHAR
STARTCHAR Rho
ENCODING 929
SWIDTH 411 0
DWIDTH 8 0
BBX 12 14 0 -3
BITMAP
0000
0000
7C00
4200
4200
4200
7C00
4000
4000
4000
4000
0000
0000
0000
ENDCHAR
STARTCHAR Sigma
ENCODING 931
SWIDTH 411 0
DWIDTH 8 0
BBX 12 14 0 -3
BITMAP
0000
0000
7E00
4000
2000
1000
0800
1000
2000
4000
7E00
0000
0000
0000
ENDCHAR
STARTCHAR Tau
ENCODING 932
SWIDTH 411 0
DWIDTH 8 0
BBX 12 14 0 -3
BITMAP
0000
0000
FE00
1000
1000
1000
1000
1000
1000
1000
1000
0000
0000
0000
ENDCHAR
STARTCHAR Upsilon
ENCODING 933
SWIDTH 411 0
DWIDTH 8 0
BBX 12 14 0 -3
BITMAP
0000
0000
8200
8200
4400
4400
2800
1000
1000
1000
1000
0000
0000
0000
ENDCHAR
STARTCHAR Phi
ENCODING 934
SWIDTH 411 0
DWIDTH 8 0
BBX 12 14 0 -3
BITMAP
0000
0000
1000
7C00
9200
9200
9200
9200
9200
9200
7C00
1000
0000
0000
ENDCHAR
STARTCHAR Chi
ENCODING 935
SWIDTH 411 0
DWIDTH 8 0
BBX 12 14 0 -3
BITMAP
0000
0000
4200
4200
2400
2400
1800
2400
2400
4200
4200
0000
0000
0000
ENDCHAR
STARTCHAR Psi
ENCODING 936
SWIDTH 411 0
DWIDTH 8 0
BBX 12 14 0 -3
BITMAP
0000
0000
9200
9200
9200
9200
9200
9200
7C00
1000
1000
0000
0000
0000
ENDCHAR
STARTCHAR Omega
ENCODING 937
SWIDTH 411 0
DWIDTH 8 0
BBX 12 14 0 -3
BITMAP
0000
0000
3C00
4200
4200
4200
4200
4200
2400
2400
6600
0000
0000
0000
ENDCHAR
STARTCHAR Iotadieresis
ENCODING 938
SWIDTH 411 0
DWIDTH 8 0
BBX 12 14 0 -3
BITMAP
4400
4400
0000
3800
1000
1000
1000
1000
1000
1000
3800
0000
0000
0000
ENDCHAR
STARTCHAR Upsilondieresis
ENCODING 939
SWIDTH 411 0
DWIDTH 8 0
BBX 12 14 0 -3
BITMAP
4400
4400
0000
8200
8200
4400
4400
2800
1000
1000
1000
0000
0000
0000
ENDCHAR
STARTCHAR alphatonos
ENCODING 940
SWIDTH 411 0
DWIDTH 8 0
BBX 12 14 0 -3
BITMAP
0000
0800
1000
0000
3A00
4600
4400
4400
4400
4600
3A00
0000
0000
0000
ENDCHAR
STARTCHAR epsilontonos
ENCODING 941
SWIDTH 411 0
DWIDTH 8 0
BBX 12 14 0 -3
BITMAP
0000
0800
1000
0000
3C00
4200
4000
3800
4000
4200
3C00
0000
0000
0000
ENDCHAR
STARTCHAR etatonos
ENCODING 942
SWIDTH 411 0
DWIDTH 8 0
BBX 12 14 0 -3
BITMAP
0000
0800
1000
0000
7C00
4200
4200
4200
4200
4200
4200
0200
0200
0000
ENDCHAR
STARTCHAR iotatonos
ENCODING 943
SWIDTH 411 0
DWIDTH 8 0
BBX 12 14 0 -3
BITMAP
0000
0800
1000
0000
3000
1000
1000
1000
1000
1000
0C00
0000
0000
0000
ENDCHAR
STARTCHAR upsilondieresistonos
ENCODING 944
SWIDTH 411 0
DWIDTH 8 0
BBX 12 14 0 -3
BITMAP
0800
1000
0000
2400
0000
4200
4200
4200
4200
4200
3C00
0000
0000
0000
ENDCHAR
STARTCHAR alpha
ENCODING 945
SWIDTH 411 0
DWIDTH 8 0
BBX 12 14 0 -3
BITMAP
0000
0000
0000
0000
3A00
4600
4400
4400
4400
4600
3A00
0000
0000
0000
ENDCHAR
STARTCHAR beta
ENCODING 946
SWIDTH 411 0
DWIDTH 8 0
BBX 12 14 0 -3
BITMAP
0000
0000
3800
4400
4400
4800
7C00
4200
4200
4200
7C00
4000
4000
0000
ENDCHAR
STARTCHAR gamma
ENCODING 947
SWIDTH 411 0
DWIDTH 8 0
BBX 12 14 0 -3
BITMAP
0000
0000
0000
0000
8200
8200
4400
4400
2800
2800
1000
1000
1000
0000
ENDCHAR
STARTCHAR delta
ENCODING 948
SWIDTH 411 0
DWIDTH 8 0
BBX 12 14 0 -3
BITMAP
0000
0000
3E00
1000
0800
3C00
4200
4200
4200
4200
3C00
0000
0000
0000
ENDCHAR
STARTCHAR epsilon
ENCODING 949
SWIDTH 411 0
DWIDTH 8 0
BBX 12 14 0 -3
BITMAP
0000
0000
0000
0000
3C00
4200
4000
3800
4000
4200
3C00
0000
0000
0000
ENDCHAR
STARTCHAR zeta
ENCODING 950
SWIDTH 411 0
DWIDTH 8 0
BBX 12 14 0 -3
BITMAP
0000
0000
7C00
0400
0800
1000
2000
4000
4000
4000
3C00
0200
0400
0000
ENDCHAR
STARTCHAR eta
ENCODING 951
SWIDTH 411 0
DWIDTH 8 0
BBX 12 14 0 -3
BITMAP
0000
0000
0000
0000
7C00
4200
4200
4200
4200
4200
4200
0200
0200
0000
ENDCHAR
STARTCHAR theta
ENCODING 952
SWIDTH 411 0
DWIDTH 8 0
BBX 12 14 0 -3
BITMAP
0000
0000
3800
4400
4400
4400
7C00
4400
4400
4400
3800
0000
0000
0000
ENDCHAR
STARTCHAR iota
ENCODING 953
SWIDTH 411 0
DWIDTH 8 0
BBX 12 14 0 -3
BITMAP
0000
0000
0000
0000
3000
1000
1000
1000
1000
1000
0C00
0000
0000
0000
ENDCHAR
STARTCHAR kappa
ENCODING 954
SWIDTH 411 0
DWIDTH 8 0
BBX 12 14 0 -3
BITMAP
0000
0000
0000
0000
4200
4400
4800
7000
4800
4400
4200
0000
0000
0000
ENDCHAR
STARTCHAR lambda
ENCODING 955
SWIDTH 411 0
DWIDTH 8 0
BBX 12 14 0 -3
BITMAP
0000
0000
2000
2000
1000
1000
2800
2800
4400
4400
8200
0000
0000
0000
ENDCHAR
STARTCHAR mugreek
ENCODING 956
SWIDTH 411 0
DWIDTH 8 0
BBX 12 14 0 -3
BITMAP
0000
0000
0000
0000
4200
4200
4200
4200
4200
4600
7A00
4000
4000
0000
ENDCHAR
STARTCHAR nu
ENCODING 957
SWIDTH 411 0
DWIDTH 8 0
BBX 12 14 0 -3
BITMAP
0000
0000
0000
0000
0000
4200
4200
2400
2400
1800
1800
0000
0000
0000
ENDCHAR
STARTCHAR xi
ENCODING 958
SWIDTH 411 0
DWIDTH 8 0
BBX 12 14 0 -3
BITMAP
0000
0000
3E00
4000
4000
4000
3C00
4000
4000
4000
3C00
0200
0400
0000
ENDCHAR
STARTCHAR omicron
ENCODING 959
SWIDTH 411 0
DWIDTH 8 0
BBX 12 14 0 -3
BITMAP
0000
0000
0000
0000
3C00
4200
4200
4200
4200
4200
3C00
0000
0000
0000
ENDCHAR
STARTCHAR pi
ENCODING 960
SWIDTH 411 0
DWIDTH 8 0
BBX 12 14 0 -3
BITMAP
0000
0000
0000
0000
7E00
4200
4200
4200
4200
4200
4200
0000
0000
0000
ENDCHAR
STARTCHAR rho
ENCODING 961
SWIDTH 411 0
DWIDTH 8 0
BBX 12 14 0 -3
BITMAP
0000
0000
0000
0000
3C00
4200
4200
4200
4200
4200
7C00
4000
4000
0000
ENDCHAR
STARTCHAR sigma1
ENCODING 962
SWIDTH 411 0
DWIDTH 8 0
BBX 12 14 0 -3
BITMAP
0000
0000
0000
0000
3C00
4200
4000
4000
4000
4000
3C00
0200
0400
0000
ENDCHAR
STARTCHAR sigma
ENCODING 963
SWIDTH 411 0
DWIDTH 8 0
BBX 12 14 0 -3
BITMAP
0000
0000
0000
0000
3E00
4400
4400
4400
4400
4400
3800
0000
0000
0000
ENDCHAR
STARTCHAR tau
ENCODING 964
SWIDTH 411 0
DWIDTH 8 0
BBX 12 14 0 -3
BITMAP
0000
0000
0000
0000
FE00
1000
1000
1000
1000
1000
0C00
0000
0000
0000
ENDCHAR
STARTCHAR upsilon
ENCODING 965
SWIDTH 411 0
DWIDTH 8 0
BBX 12 14 0 -3
BITMAP
0000
0000
0000
0000
4200
4200
4200
4200
4200
4200
3C00
0000
0000
0000
ENDCHAR
STARTCHAR phi
ENCODING 966
SWIDTH 411 0
DWIDTH 8 0
BBX 12 14 0 -3
BITMAP
0000
0000
0000
0000
4C00
9200
9200
9200
9200
9200
7C00
1000
1000
0000
ENDCHAR
STARTCHAR chi
ENCODING 967
SWIDTH 411 0
DWIDTH 8 0
BBX 12 14 0 -3
BITMAP
0000
0000
0000
0000
4200
4200
2400
2400
1800
2400
2400
4200
4200
0000
ENDCHAR
STARTCHAR psi
ENCODING 968
SWIDTH 411 0
DWIDTH 8 0
BBX 12 14 0 -3
BITMAP
0000
0000
0000
0000
9200
9200
9200
9200
9200
9200
7C00
1000
1000
0000
ENDCHAR
STARTCHAR omega
ENCODING 969
SWIDTH 411 0
DWIDTH 8 0
BBX 12 14 0 -3
BITMAP
0000
0000
0000
0000
4400
8200
9200
9200
9200
9200
6C00
0000
0000
0000
ENDCHAR
STARTCHAR iotadieresis
ENCODING 970
SWIDTH 411 0
DWIDTH 8 0
BBX 12 14 0 -3
BITMAP
0000
4800
4800
0000
3000
1000
1000
1000
1000
1000
0C00
0000
0000
0000
ENDCHAR
STARTCHAR upsilondieresis
ENCODING 971
SWIDTH 411 0
DWIDTH 8 0
BBX 12 14 0 -3
BITMAP
0000
2400
2400
0000
4200
4200
4200
4200
4200
4200
3C00
0000
0000
0000
ENDCHAR
STARTCHAR omicrontonos
ENCODING 972
SWIDTH 411 0
DWIDTH 8 0
BBX 12 14 0 -3
BITMAP
0000
0800
1000
0000
3C00
4200
4200
4200
4200
4200
3C00
0000
0000
0000
ENDCHAR
STARTCHAR upsilontonos
ENCODING 973
SWIDTH 411 0
DWIDTH 8 0
BBX 12 14 0 -3
BITMAP
0000
0800
1000
0000
4200
4200
4200
4200
4200
4200
3C00
0000
0000
0000
ENDCHAR
STARTCHAR omegatonos
ENCODING 974
SWIDTH 411 0
DWIDTH 8 0
BBX 12 14 0 -3
BITMAP
0000
0800
1000
0000
4400
8200
9200
9200
9200
9200
6C00
0000
0000
0000
ENDCHAR
STARTCHAR uni03F3
ENCODING 1011
SWIDTH 411 0
DWIDTH 8 0
BBX 12 14 0 -3
BITMAP
0000
0000
0400
0400
0000
0C00
0400
0400
0400
0400
0400
4400
4400
3800
ENDCHAR
STARTCHAR uni03F4
ENCODING 1012
SWIDTH 411 0
DWIDTH 8 0
BBX 12 14 0 -3
BITMAP
0000
0000
3C00
4200
4200
4200
7E00
4200
4200
4200
4200
3C00
0000
0000
ENDCHAR
STARTCHAR uni0400
ENCODING 1024
SWIDTH 411 0
DWIDTH 8 0
BBX 12 14 0 -3
BITMAP
1000
0800
0000
7E00
4000
4000
7800
4000
4000
4000
7E00
0000
0000
0000
ENDCHAR
STARTCHAR afii10023
ENCODING 1025
SWIDTH 411 0
DWIDTH 8 0
BBX 12 14 0 -3
BITMAP
2400
2400
0000
7E00
4000
4000
7800
4000
4000
4000
7E00
0000
0000
0000
ENDCHAR
STARTCHAR afii10051
ENCODING 1026
SWIDTH 411 0
DWIDTH 8 0
BBX 12 14 0 -3
BITMAP
0000
0000
F800
2000
2000
3C00
2200
2200
2200
2200
2200
0200
0400
0000
ENDCHAR
STARTCHAR afii10052
ENCODING 1027
SWIDTH 411 0
DWIDTH 8 0
BBX 12 14 0 -3
BITMAP
0800
1000
0000
7E00
4000
4000
4000
4000
4000
4000
4000
0000
0000
0000
ENDCHAR
STARTCHAR afii10053
ENCODING 1028
SWIDTH 411 0
DWIDTH 8 0
BBX 12 14 0 -3
BITMAP
0000
0000
3C00
4200
4000
4000
7800
4000
4000
4200
3C00
0000
0000
0000
ENDCHAR
STARTCHAR afii10054
ENCODING 1029
SWIDTH 411 0
DWIDTH 8 0
BBX 12 14 0 -3
BITMAP
0000
0000
3C00
4200
4000
4000
3C00
0200
0200
4200
3C00
0000
0000
0000
ENDCHAR
STARTCHAR afii10055
ENCODING 1030
SWIDTH 411 0
DWIDTH 8 0
BBX 12 14 0 -3
BITMAP
0000
0000
3800
1000
1000
1000
1000
1000
1000
1000
3800
0000
0000
0000
ENDCHAR
STARTCHAR afii10056
ENCODING 1031
SWIDTH 411 0
DWIDTH 8 0
BBX 12 14 0 -3
BITMAP
4400
4400
0000
3800
1000
1000
1000
1000
1000
1000
3800
0000
0000
0000
ENDCHAR
STARTCHAR afii10057
ENCODING 1032
SWIDTH 411 0
DWIDTH 8 0
BBX 12 14 0 -3
BITMAP
0000
0000
0200
0200
0200
0200
0200
0200
4200
4200
3C00
0000
0000
0000
ENDCHAR
STARTCHAR afii10058
ENCODING 1033
SWIDTH 411 0
DWIDTH 8 0
BBX 12 14 0 -3
BITMAP
0000
0000
3000
5000
9000
9C00
9200
9200
9200
9200
9C00
0000
0000
0000
ENDCHAR
STARTCHAR afii10059
ENCODING 1034
SWIDTH 411 0
DWIDTH 8 0
BBX 12 14 0 -3
BITMAP
0000
0000
9000
9000
9000
9C00
F200
9200
9200
9200
9C00
0000
0000
0000
ENDCHAR
STARTCHAR afii10060
ENCODING 1035
SWIDTH 411 0
DWIDTH 8 0
BBX 12 14 0 -3
BITMAP
0000
0000
F800
2000
2000
3C00
2200
2200
2200
2200
2200
0000
0000
0000
ENDCHAR
STARTCHAR afii10061
ENCODING 1036
SWIDTH 411 0
DWIDTH 8 0
BBX 12 14 0 -3
BITMAP
0800
1000
4200
4400
4800
5000
6000
5000
4800
4400
4200
0000
0000
0000
ENDCHAR
STARTCHAR uni040D
ENCODING 1037
SWIDTH 411 0
DWIDTH 8 0
BBX 12 14 0 -3
BITMAP
1000
0800
4200
4600
4600
4A00
4A00
5200
5200
6200
6200
0000
0000
0000
ENDCHAR
STARTCHAR afii10062
ENCODING 1038
SWIDTH 411 0
DWIDTH 8 0
BBX 12 14 0 -3
BITMAP
2400
1800
4200
4200
4200
4200
3E00
0200
0200
0200
3C00
0000
0000
0000
ENDCHAR
STARTCHAR afii10145
ENCODING 1039
SWIDTH 411 0
DWIDTH 8 0
BBX 12 14 0 -3
BITMAP
0000
0000
4200
4200
4200
4200
4200
4200
4200
4200
7E00
1800
1800
0000
ENDCHAR
STARTCHAR afii10017
ENCODING 1040
SWIDTH 411 0
DWIDTH 8 0
BBX 12 14 0 -3
BITMAP
0000
0000
3C00
4200
4200
4200
7E00
4200
4200
4200
4200
0000
0000
0000
ENDCHAR
STARTCHAR afii10018
ENCODING 1041
SWIDTH 411 0
DWIDTH 8 0
BBX 12 14 0 -3
BITMAP
0000
0000
7C00
4000
4000
7C00
4200
4200
4200
4200
7C00
0000
0000
0000
ENDCHAR
STARTCHAR afii10019
ENCODING 1042
SWIDTH 411 0
DWIDTH 8 0
BBX 12 14 0 -3
BITMAP
0000
0000
7C00
4200
4200
4200
7C00
4200
4200
4200
7C00
0000
0000
0000
ENDCHAR
STARTCHAR afii10020
ENCODING 1043
SWIDTH 411 0
DWIDTH 8 0
BBX 12 14 0 -3
BITMAP
0000
0000
7E00
4000
4000
4000
4000
4000
4000
4000
4000
0000
0000
0000
ENDCHAR
STARTCHAR afii10021
ENCODING 1044
SWIDTH 411 0
DWIDTH 8 0
BBX 12 14 0 -3
BITMAP
0000
0000
3C00
4400
4400
4400
4400
4400
4400
4400
FE00
8200
0000
0000
ENDCHAR
STARTCHAR afii10022
ENCODING 1045
SWIDTH 411 0
DWIDTH 8 0
BBX 12 14 0 -3
BITMAP
0000
0000
7E00
4000
4000
4000
7800
4000
4000
4000
7E00
0000
0000
0000
ENDCHAR
STARTCHAR afii10024
ENCODING 1046
SWIDTH 411 0
DWIDTH 8 0
BBX 12 14 0 -3
BITMAP
0000
0000
9200
9200
9200
5400
3800
5400
9200
9200
9200
0000
0000
0000
ENDCHAR
STARTCHAR afii10025
ENCODING 1047
SWIDTH 411 0
DWIDTH 8 0
BBX 12 14 0 -3
BITMAP
0000
0000
3C00
4200
4200
0200
1C00
0200
4200
4200
3C00
0000
0000
0000
ENDCHAR
STARTCHAR afii10026
ENCODING 1048
SWIDTH 411 0
DWIDTH 8 0
BBX 12 14 0 -3
BITMAP
0000
0000
4200
4600
4600
4A00
4A00
5200
5200
6200
6200
0000
0000
0000
ENDCHAR
STARTCHAR afii10027
ENCODING 1049
SWIDTH 411 0
DWIDTH 8 0
BBX 12 14 0 -3
BITMAP
2400
1800
4200
4600
4600
4A00
4A00
5200
5200
6200
6200
0000
0000
0000
ENDCHAR
STARTCHAR afii10028
ENCODING 1050
SWIDTH 411 0
DWIDTH 8 0
BBX 12 14 0 -3
BITMAP
0000
0000
4200
4400
4800
5000
6000
5000
4800
4400
4200
0000
0000
0000
ENDCHAR
STARTCHAR afii10029
ENCODING 1051
SWIDTH 411 0
DWIDTH 8 0
BBX 12 14 0 -3
BITMAP
0000
0000
0E00
1200
2200
2200
2200
2200
2200
2200
4200
0000
0000
0000
ENDCHAR
STARTCHAR afii10030
ENCODING 1052
SWIDTH 411 0
DWIDTH 8 0
BBX 12 14 0 -3
BITMAP
0000
0000
8200
C600
AA00
9200
9200
8200
8200
8200
8200
0000
0000
0000
ENDCHAR
STARTCHAR afii10031
ENCODING 1053
SWIDTH 411 0
DWIDTH 8 0
BBX 12 14 0 -3
BITMAP
0000
0000
4200
4200
4200
4200
7E00
4200
4200
4200
4200
0000
0000
0000
ENDCHAR
STARTCHAR afii10032
ENCODING 1054
SWIDTH 411 0
DWIDTH 8 0
BBX 12 14 0 -3
BITMAP
0000
0000
3C00
4200
4200
4200
4200
4200
4200
4200
3C00
0000
0000
0000
ENDCHAR
STARTCHAR afii10033
ENCODING 1055
SWIDTH 411 0
DWIDTH 8 0
BBX 12 14 0 -3
BITMAP
0000
0000
7E00
4200
4200
4200
4200
4200
4200
4200
4200
0000
0000
0000
ENDCHAR
STARTCHAR afii10034
ENCODING 1056
SWIDTH 411 0
DWIDTH 8 0
BBX 12 14 0 -3
BITMAP
0000
0000
7C00
4200
4200
4200
7C00
4000
4000
4000
4000
0000
0000
0000
ENDCHAR
STARTCHAR afii10035
ENCODING 1057
SWIDTH 411 0
DWIDTH 8 0
BBX 12 14 0 -3
BITMAP
0000
0000
3C00
4200
4000
4000
4000
4000
4000
4200
3C00
0000
0000
0000
ENDCHAR
STARTCHAR afii10036
ENCODING 1058
SWIDTH 411 0
DWIDTH 8 0
BBX 12 14 0 -3
BITMAP
0000
0000
FE00
1000
1000
1000
1000
1000
1000
1000
1000
0000
0000
0000
ENDCHAR
STARTCHAR afii10037
ENCODING 1059
SWIDTH 411 0
DWIDTH 8 0
BBX 12 14 0 -3
BITMAP
0000
0000
4200
4200
4200
4200
3E00
0200
0200
0200
3C00
0000
0000
0000
ENDCHAR
STARTCHAR afii10038
ENCODING 1060
SWIDTH 411 0
DWIDTH 8 0
BBX 12 14 0 -3
BITMAP
0000
1000
7C00
9200
9200
9200
9200
9200
9200
9200
7C00
1000
0000
0000
ENDCHAR
STARTCHAR afii10039
ENCODING 1061
SWIDTH 411 0
DWIDTH 8 0
BBX 12 14 0 -3
BITMAP
0000
0000
4200
4200
2400
2400
1800
2400
2400
4200
4200
0000
0000
0000
ENDCHAR
STARTCHAR afii10040
ENCODING 1062
SWIDTH 411 0
DWIDTH 8 0
BBX 12 14 0 -3
BITMAP
0000
0000
4200
4200
4200
4200
4200
4200
4200
4200
3F00
0100
0100
0000
ENDCHAR
STARTCHAR afii10041
ENCODING 1063
SWIDTH 411 0
DWIDTH 8 0
BBX 12 14 0 -3
BITMAP
0000
0000
4200
4200
4200
4200
3E00
0200
0200
0200
0200
0000
0000
0000
ENDCHAR
STARTCHAR afii10042
ENCODING 1064
SWIDTH 411 0
DWIDTH 8 0
BBX 12 14 0 -3
BITMAP
0000
0000
9200
9200
9200
9200
9200
9200
9200
9200
7E00
0000
0000
0000
ENDCHAR
STARTCHAR afii10043
ENCODING 1065
SWIDTH 411 0
DWIDTH 8 0
BBX 12 14 0 -3
BITMAP
0000
0000
9200
9200
9200
9200
9200
9200
9200
9200
7F00
0100
0100
0000
ENDCHAR
STARTCHAR afii10044
ENCODING 1066
SWIDTH 411 0
DWIDTH 8 0
BBX 12 14 0 -3
BITMAP
0000
C000
4000
4000
7C00
4200
4200
4200
4200
4200
7C00
0000
0000
0000
ENDCHAR
STARTCHAR afii10045
ENCODING 1067
SWIDTH 411 0
DWIDTH 8 0
BBX 12 14 0 -3
BITMAP
0000
8200
8200
8200
F200
8A00
8A00
8A00
8A00
8A00
F200
0000
0000
0000
ENDCHAR
STARTCHAR afii10046
ENCODING 1068
SWIDTH 411 0
DWIDTH 8 0
BBX 12 14 0 -3
BITMAP
0000
4000
4000
4000
7C00
4200
4200
4200
4200
4200
7C00
0000
0000
0000
ENDCHAR
STARTCHAR afii10047
ENCODING 1069
SWIDTH 411 0
DWIDTH 8 0
BBX 12 14 0 -3
BITMAP
0000
0000
3C00
4200
0200
0200
1E00
0200
0200
4200
3C00
0000
0000
0000
ENDCHAR
STARTCHAR afii10048
ENCODING 1070
SWIDTH 411 0
DWIDTH 8 0
BBX 12 14 0 -3
BITMAP
0000
8C00
9200
9200
9200
9200
F200
9200
9200
9200
8C00
0000
0000
0000
ENDCHAR
STARTCHAR afii10049
ENCODING 1071
SWIDTH 411 0
DWIDTH 8 0
BBX 12 14 0 -3
BITMAP
0000
3E00
4200
4200
4200
4200
3E00
1200
2200
4200
4200
0000
0000
0000
ENDCHAR
STARTCHAR afii10065
ENCODING 1072
SWIDTH 411 0
DWIDTH 8 0
BBX 12 14 0 -3
BITMAP
0000
0000
0000
0000
3C00
0200
3E00
4200
4200
4600
3A00
0000
0000
0000
ENDCHAR
STARTCHAR afii10066
ENCODING 1073
SWIDTH 411 0
DWIDTH 8 0
BBX 12 14 0 -3
BITMAP
0000
3C00
4000
4000
7C00
4200
4200
4200
4200
4200
7C00
0000
0000
0000
ENDCHAR
STARTCHAR afii10067
ENCODING 1074
SWIDTH 411 0
DWIDTH 8 0
BBX 12 14 0 -3
BITMAP
0000
3800
4400
4400
4800
7C00
4200
4200
4200
4200
7C00
0000
0000
0000
ENDCHAR
STARTCHAR afii10068
ENCODING 1075
SWIDTH 411 0
DWIDTH 8 0
BBX 12 14 0 -3
BITMAP
0000
0000
0000
0000
3C00
0200
0200
3C00
4000
4000
3C00
0000
0000
0000
ENDCHAR
STARTCHAR afii10069
ENCODING 1076
SWIDTH 411 0
DWIDTH 8 0
BBX 12 14 0 -3
BITMAP
0000
0000
0000
0000
3E00
4200
4200
4200
4200
4600
3A00
0200
0200
3C00
ENDCHAR
STARTCHAR afii10070
ENCODING 1077
SWIDTH 411 0
DWIDTH 8 0
BBX 12 14 0 -3
BITMAP
0000
0000
0000
0000
3C00
4200
4200
7E00
4000
4000
3C00
0000
0000
0000
ENDCHAR
STARTCHAR afii10072
ENCODING 1078
SWIDTH 411 0
DWIDTH 8 0
BBX 12 14 0 -3
BITMAP
0000
0000
0000
0000
9200
9200
5400
3800
5400
9200
9200
0000
0000
0000
ENDCHAR
STARTCHAR afii10073
ENCODING 1079
SWIDTH 411 0
DWIDTH 8 0
BBX 12 14 0 -3
BITMAP
0000
0000
0000
0000
3C00
4200
0200
1C00
0200
4200
3C00
0000
0000
0000
ENDCHAR
STARTCHAR afii10074
ENCODING 1080
SWIDTH 411 0
DWIDTH 8 0
BBX 12 14 0 -3
BITMAP
0000
0000
0000
0000
4200
4200
4200
4200
4200
4600
3A00
0000
0000
0000
ENDCHAR
STARTCHAR afii10075
ENCODING 1081
SWIDTH 411 0
DWIDTH 8 0
BBX 12 14 0 -3
BITMAP
0000
2400
1800
0000
4200
4200
4200
4200
4200
4600
3A00
0000
0000
0000
ENDCHAR
STARTCHAR afii10076
ENCODING 1082
SWIDTH 411 0
DWIDTH 8 0
BBX 12 14 0 -3
BITMAP
0000
0000
0000
0000
4200
4400
4800
7000
4800
4400
4200
0000
0000
0000
ENDCHAR
STARTCHAR afii10077
ENCODING 1083
SWIDTH 411 0
DWIDTH 8 0
BBX 12 14 0 -3
BITMAP
0000
0000
0000
0000
1E00
2200
2200
2200
2200
2200
4200
0000
0000
0000
ENDCHAR
STARTCHAR afii10078
ENCODING 1084
SWIDTH 411 0
DWIDTH 8 0
BBX 12 14 0 -3
BITMAP
0000
0000
0000
0000
8200
C600
AA00
9200
8200
8200
8200
0000
0000
0000
ENDCHAR
STARTCHAR afii10079
ENCODING 1085
SWIDTH 411 0
DWIDTH 8 0
BBX 12 14 0 -3
BITMAP
0000
0000
0000
0000
4200
4200
4200
7E00
4200
4200
4200
0000
0000
0000
ENDCHAR
STARTCHAR afii10080
ENCODING 1086
SWIDTH 411 0
DWIDTH 8 0
BBX 12 14 0 -3
BITMAP
0000
0000
0000
0000
3C00
4200
4200
4200
4200
4200
3C00
0000
0000
0000
ENDCHAR
STARTCHAR afii10081
ENCODING 1087
SWIDTH 411 0
DWIDTH 8 0
BBX 12 14 0 -3
BITMAP
0000
0000
0000
0000
7E00
4200
4200
4200
4200
4200
4200
0000
0000
0000
ENDCHAR
STARTCHAR afii10082
ENCODING 1088
SWIDTH 411 0
DWIDTH 8 0
BBX 12 14 0 -3
BITMAP
0000
0000
0000
0000
5C00
6200
4200
4200
4200
4200
7C00
4000
4000
4000
ENDCHAR
STARTCHAR afii10083
ENCODING 1089
SWIDTH 411 0
DWIDTH 8 0
BBX 12 14 0 -3
BITMAP
0000
0000
0000
0000
3C00
4200
4000
4000
4000
4200
3C00
0000
0000
0000
ENDCHAR
STARTCHAR afii10084
ENCODING 1090
SWIDTH 411 0
DWIDTH 8 0
BBX 12 14 0 -3
BITMAP
0000
0000
0000
0000
FE00
1000
1000
1000
1000
1000
1000
0000
0000
0000
ENDCHAR
STARTCHAR afii10085
ENCODING 1091
SWIDTH 411 0
DWIDTH 8 0
BBX 12 14 0 -3
BITMAP
0000
0000
0000
0000
4200
4200
4200
4200
4200
4600
3A00
0200
0200
3C00
ENDCHAR
STARTCHAR afii10086
ENCODING 1092
SWIDTH 411 0
DWIDTH 8 0
BBX 12 14 0 -3
BITMAP
0000
0000
0000
1000
7C00
9200
9200
9200
9200
9200
7C00
1000
0000
0000
ENDCHAR
STARTCHAR afii10087
ENCODING 1093
SWIDTH 411 0
DWIDTH 8 0
BBX 12 14 0 -3
BITMAP
0000
0000
0000
0000
4200
4200
2400
1800
2400
4200
4200
0000
0000
0000
ENDCHAR
STARTCHAR afii10088
ENCODING 1094
SWIDTH 411 0
DWIDTH 8 0
BBX 12 14 0 -3
BITMAP
0000
0000
0000
0000
4200
4200
4200
4200
4200
4200
3F00
0100
0100
0000
ENDCHAR
STARTCHAR afii10089
ENCODING 1095
SWIDTH 411 0
DWIDTH 8 0
BBX 12 14 0 -3
BITMAP
0000
0000
0000
0000
4200
4200
4200
3E00
0200
0200
0200
0000
0000
0000
ENDCHAR
STARTCHAR afii10090
ENCODING 1096
SWIDTH 411 0
DWIDTH 8 0
BBX 12 14 0 -3
BITMAP
0000
0000
0000
0000
9200
9200
9200
9200
9200
9200
7E00
0000
0000
0000
ENDCHAR
STARTCHAR afii10091
ENCODING 1097
SWIDTH 411 0
DWIDTH 8 0
BBX 12 14 0 -3
BITMAP
0000
0000
0000
0000
9200
9200
9200
9200
9200
9200
7F00
0100
0100
0000
ENDCHAR
STARTCHAR afii10092
ENCODING 1098
SWIDTH 411 0
DWIDTH 8 0
BBX 12 14 0 -3
BITMAP
0000
0000
0000
0000
6000
2000
3C00
2200
2200
2200
3C00
0000
0000
0000
ENDCHAR
STARTCHAR afii10093
ENCODING 1099
SWIDTH 411 0
DWIDTH 8 0
BBX 12 14 0 -3
BITMAP
0000
0000
0000
0000
8200
8200
F200
8A00
8A00
8A00
F200
0000
0000
0000
ENDCHAR
STARTCHAR afii10094
ENCODING 1100
SWIDTH 411 0
DWIDTH 8 0
BBX 12 14 0 -3
BITMAP
0000
0000
0000
0000
4000
4000
7800
4400
4400
4400
7800
0000
0000
0000
ENDCHAR
STARTCHAR afii10095
ENCODING 1101
SWIDTH 411 0
DWIDTH 8 0
BBX 12 14 0 -3
BITMAP
0000
0000
0000
0000
3C00
4200
0200
1E00
0200
4200
3C00
0000
0000
0000
ENDCHAR
STARTCHAR afii10096
ENCODING 1102
SWIDTH 411 0
DWIDTH 8 0
BBX 12 14 0 -3
BITMAP
0000
0000
0000
0000
8C00
9200
9200
F200
9200
9200
8C00
0000
0000
0000
ENDCHAR
STARTCHAR afii10097
ENCODING 1103
SWIDTH 411 0
DWIDTH 8 0
BBX 12 14 0 -3
BITMAP
0000
0000
0000
0000
3E00
4200
4200
3E00
1200
2200
4200
0000
0000
0000
ENDCHAR
STARTCHAR uni0450
ENCODING 1104
SWIDTH 411 0
DWIDTH 8 0
BBX 12 14 0 -3
BITMAP
0000
1000
0800
0000
3C00
4200
4200
7E00
4000
4000
3C00
0000
0000
0000
ENDCHAR
STARTCHAR afii10071
ENCODING 1105
SWIDTH 411 0
DWIDTH 8 0
BBX 12 14 0 -3
BITMAP
0000
2400
2400
0000
3C00
4200
4200
7E00
4000
4000
3C00
0000
0000
0000
ENDCHAR
STARTCHAR afii10099
ENCODING 1106
SWIDTH 411 0
DWIDTH 8 0
BBX 12 14 0 -3
BITMAP
0000
4000
F800
4000
7C00
4200
4200
4200
4200
4200
4200
0200
0400
0000
ENDCHAR
STARTCHAR afii10100
ENCODING 1107
SWIDTH 411 0
DWIDTH 8 0
BBX 12 14 0 -3
BITMAP
0000
0800
1000
0000
3C00
0200
0200
3C00
4000
4000
3C00
0000
0000
0000
ENDCHAR
STARTCHAR afii10101
ENCODING 1108
SWIDTH 411 0
DWIDTH 8 0
BBX 12 14 0 -3
BITMAP
0000
0000
0000
0000
3C00
4200
4000
7800
4000
4200
3C00
0000
0000
0000
ENDCHAR
STARTCHAR afii10102
ENCODING 1109
SWIDTH 411 0
DWIDTH 8 0
BBX 12 14 0 -3
BITMAP
0000
0000
0000
0000
3E00
4000
4000
3C00
0200
0200
7C00
0000
0000
0000
ENDCHAR
STARTCHAR afii10103
ENCODING 1110
SWIDTH 411 0
DWIDTH 8 0
BBX 12 14 0 -3
BITMAP
0000
1000
1000
0000
7000
1000
1000
1000
1000
1000
1C00
0000
0000
0000
ENDCHAR
STARTCHAR afii10104
ENCODING 1111
SWIDTH 411 0
DWIDTH 8 0
BBX 12 14 0 -3
BITMAP
0000
4800
4800
0000
7000
1000
1000
1000
1000
1000
1C00
0000
0000
0000
ENDCHAR
STARTCHAR afii10105
ENCODING 1112
SWIDTH 411 0
DWIDTH 8 0
BBX 12 14 0 -3
BITMAP
0000
0400
0400
0000
0C00
0400
0400
0400
0400
0400
0400
0400
0400
3800
ENDCHAR
STARTCHAR afii10106
ENCODING 1113
SWIDTH 411 0
DWIDTH 8 0
BBX 12 14 0 -3
BITMAP
0000
0000
0000
0000
7000
9000
9C00
9200
9200
9200
9C00
0000
0000
0000
ENDCHAR
STARTCHAR afii10107
ENCODING 1114
SWIDTH 411 0
DWIDTH 8 0
BBX 12 14 0 -3
BITMAP
0000
0000
0000
0000
9000
9000
9C00
F200
9200
9200
9C00
0000
0000
0000
ENDCHAR
STARTCHAR afii10108
ENCODING 1115
SWIDTH 411 0
DWIDTH 8 0
BBX 12 14 0 -3
BITMAP
0000
4000
F800
4000
7C00
4200
4200
4200
4200
4200
4200
0000
0000
0000
ENDCHAR
STARTCHAR afii10109
ENCODING 1116
SWIDTH 411 0
DWIDTH 8 0
BBX 12 14 0 -3
BITMAP
0000
0800
1000
0000
4200
4400
4800
7000
4800
4400
4200
0000
0000
0000
ENDCHAR
STARTCHAR uni045D
ENCODING 1117
SWIDTH 411 0
DWIDTH 8 0
BBX 12 14 0 -3
BITMAP
0000
1000
0800
0000
4200
4200
4200
4200
4200
4600
3A00
0000
0000
0000
ENDCHAR
STARTCHAR afii10110
ENCODING 1118
SWIDTH 411 0
DWIDTH 8 0
BBX 12 14 0 -3
BITMAP
0000
2400
1800
0000
4200
4200
4200
4200
4200
4600
3A00
0200
0200
3C00
ENDCHAR
STARTCHAR afii10193
ENCODING 1119
SWIDTH 411 0
DWIDTH 8 0
BBX 12 14 0 -3
BITMAP
0000
0000
0000
0000
4200
4200
4200
4200
4200
4200
7E00
1800
1800
0000
ENDCHAR
STARTCHAR afii10050
ENCODING 1168
SWIDTH 411 0
DWIDTH 8 0
BBX 12 14 0 -3
BITMAP
0200
0200
7E00
4000
4000
4000
4000
4000
4000
4000
4000
0000
0000
0000
ENDCHAR
STARTCHAR afii10098
ENCODING 1169
SWIDTH 411 0
DWIDTH 8 0
BBX 12 14 0 -3
BITMAP
0000
0000
2000
2000
3C00
0200
0200
3C00
4000
4000
3C00
0000
0000
0000
ENDCHAR
STARTCHAR uni0492
ENCODING 1170
SWIDTH 411 0
DWIDTH 8 0
BBX 12 14 0 -3
BITMAP
0000
0000
7E00
4000
4000
4000
F800
4000
4000
4000
4000
0000
0000
0000
ENDCHAR
STARTCHAR uni0493
ENCODING 1171
SWIDTH 411 0
DWIDTH 8 0
BBX 12 14 0 -3
BITMAP
0000
0000
0000
0000
7E00
4000
4000
F800
4000
4000
4000
0000
0000
0000
ENDCHAR
STARTCHAR uni0494
ENCODING 1172
SWIDTH 411 0
DWIDTH 8 0
BBX 12 14 0 -3
BITMAP
0000
0000
7E00
4000
4000
4000
7C00
4200
4200
4200
4200
0200
0400
0000
ENDCHAR
STARTCHAR uni0495
ENCODING 1173
SWIDTH 411 0
DWIDTH 8 0
BBX 12 14 0 -3
BITMAP
0000
0000
0000
0000
7E00
4000
4000
7800
4400
4400
4400
0400
0800
0000
ENDCHAR
STARTCHAR uni0496
ENCODING 1174
SWIDTH 411 0
DWIDTH 8 0
BBX 12 14 0 -3
BITMAP
0000
0000
9200
9200
9200
5400
3800
5400
9200
9200
9300
0100
0100
0000
ENDCHAR
STARTCHAR uni0497
ENCODING 1175
SWIDTH 411 0
DWIDTH 8 0
BBX 12 14 0 -3
BITMAP
0000
0000
0000
0000
9200
9200
5400
3800
5400
9200
9300
0100
0100
0000
ENDCHAR
STARTCHAR uni0498
ENCODING 1176
SWIDTH 411 0
DWIDTH 8 0
BBX 12 14 0 -3
BITMAP
0000
0000
3C00
4200
4200
0200
1C00
0200
4200
4200
3C00
1000
1000
0000
ENDCHAR
STARTCHAR uni0499
ENCODING 1177
SWIDTH 411 0
DWIDTH 8 0
BBX 12 14 0 -3
BITMAP
0000
0000
0000
0000
3C00
4200
0200
1C00
0200
4200
3C00
1000
1000
0000
ENDCHAR
STARTCHAR uni049A
ENCODING 1178
SWIDTH 411 0
DWIDTH 8 0
BBX 12 14 0 -3
BITMAP
0000
0000
4200
4400
4800
5000
6000
5000
4800
4400
4300
0100
0100
0000
ENDCHAR
STARTCHAR uni049B
ENCODING 1179
SWIDTH 411 0
DWIDTH 8 0
BBX 12 14 0 -3
BITMAP
0000
0000
0000
0000
4200
4400
4800
7000
4800
4400
4300
0100
0100
0000
ENDCHAR
STARTCHAR uni049C
ENCODING 1180
SWIDTH 411 0
DWIDTH 8 0
BBX 12 14 0 -3
BITMAP
0000
0000
4200
5400
5800
5000
7000
5000
5800
5400
4200
0000
0000
0000
ENDCHAR
STARTCHAR uni049D
ENCODING 1181
SWIDTH 411 0
DWIDTH 8 0
BBX 12 14 0 -3
BITMAP
0000
0000
0000
0000
4200
5400
5800
7000
5800
5400
4200
0000
0000
0000
ENDCHAR
STARTCHAR uni04A0
ENCODING 1184
SWIDTH 411 0
DWIDTH 8 0
BBX 12 14 0 -3
BITMAP
0000
0000
C200
4400
4800
5000
6000
5000
4800
4400
4200
0000
0000
0000
ENDCHAR
STARTCHAR uni04A1
ENCODING 1185
SWIDTH 411 0
DWIDTH 8 0
BBX 12 14 0 -3
BITMAP
0000
0000
0000
0000
C200
4400
4800
7000
4800
4400
4200
0000
0000
0000
ENDCHAR
STARTCHAR uni04A2
ENCODING 1186
SWIDTH 411 0
DWIDTH 8 0
BBX 12 14 0 -3
BITMAP
0000
0000
4200
4200
4200
4200
7E00
4200
4200
4200
4300
0100
0100
0000
ENDCHAR
STARTCHAR uni04A3
ENCODING 1187
SWIDTH 411 0
DWIDTH 8 0
BBX 12 14 0 -3
BITMAP
0000
0000
0000
0000
4200
4200
4200
7E00
4200
4200
4300
0100
0100
0000
ENDCHAR
STARTCHAR uni04A4
ENCODING 1188
SWIDTH 411 0
DWIDTH 8 0
BBX 12 14 0 -3
BITMAP
0000
0000
4700
4400
4400
4400
7C00
4400
4400
4400
4400
0000
0000
0000
ENDCHAR
STARTCHAR uni04A5
ENCODING 1189
SWIDTH 411 0
DWIDTH 8 0
BBX 12 14 0 -3
BITMAP
0000
0000
0000
0000
4700
4400
4400
7C00
4400
4400
4400
0000
0000
0000
ENDCHAR
STARTCHAR uni04AA
ENCODING 1194
SWIDTH 411 0
DWIDTH 8 0
BBX 12 14 0 -3
BITMAP
0000
0000
3C00
4200
4000
4000
4000
4000
4000
4200
3C00
1000
1000
0000
ENDCHAR
STARTCHAR uni04AB
ENCODING 1195
SWIDTH 411 0
DWIDTH 8 0
BBX 12 14 0 -3
BITMAP
0000
0000
0000
0000
3C00
4200
4000
4000
4000
4200
3C00
1000
1000
0000
ENDCHAR
STARTCHAR uni04AE
ENCODING 1198
SWIDTH 411 0
DWIDTH 8 0
BBX 12 14 0 -3
BITMAP
0000
0000
8200
8200
4400
4400
2800
1000
1000
1000
1000
0000
0000
0000
ENDCHAR
STARTCHAR uni04AF
ENCODING 1199
SWIDTH 411 0
DWIDTH 8 0
BBX 12 14 0 -3
BITMAP
0000
0000
0000
0000
8200
8200
4400
4400
2800
2800
1000
1000
1000
0000
ENDCHAR
STARTCHAR uni04B0
ENCODING 1200
SWIDTH 411 0
DWIDTH 8 0
BBX 12 14 0 -3
BITMAP
0000
0000
8200
8200
4400
4400
2800
1000
7C00
1000
1000
0000
0000
0000
ENDCHAR
STARTCHAR uni04B1
ENCODING 1201
SWIDTH 411 0
DWIDTH 8 0
BBX 12 14 0 -3
BITMAP
0000
0000
0000
0000
8200
8200
4400
4400
2800
2800
1000
7C00
1000
0000
ENDCHAR
STARTCHAR uni04B2
ENCODING 1202
SWIDTH 411 0
DWIDTH 8 0
BBX 12 14 0 -3
BITMAP
0000
0000
4200
4200
2400
2400
1800
2400
2400
4200
4300
0100
0100
0000
ENDCHAR
STARTCHAR uni04B3
ENCODING 1203
SWIDTH 411 0
DWIDTH 8 0
BBX 12 14 0 -3
BITMAP
0000
0000
0000
0000
4200
4200
2400
1800
2400
4200
4300
0100
0100
0000
ENDCHAR
STARTCHAR uni04B6
ENCODING 1206
SWIDTH 411 0
DWIDTH 8 0
BBX 12 14 0 -3
BITMAP
0000
0000
4200
4200
4200
4200
3E00
0200
0200
0200
0300
0100
0100
0000
ENDCHAR
STARTCHAR uni04B7
ENCODING 1207
SWIDTH 411 0
DWIDTH 8 0
BBX 12 14 0 -3
BITMAP
0000
0000
0000
0000
4200
4200
4200
3E00
0200
0200
0300
0100
0100
0000
ENDCHAR
STARTCHAR uni04B8
ENCODING 1208
SWIDTH 411 0
DWIDTH 8 0
BBX 12 14 0 -3
BITMAP
0000
0000
4200
4200
5200
5200
3E00
1200
1200
0200
0200
0000
0000
0000
ENDCHAR
STARTCHAR uni04B9
ENCODING 1209
SWIDTH 411 0
DWIDTH 8 0
BBX 12 14 0 -3
BITMAP
0000
0000
0000
0000
4200
4200
5200
3E00
1200
0200
0200
0000
0000
0000
ENDCHAR
STARTCHAR uni04BA
ENCODING 1210
SWIDTH 411 0
DWIDTH 8 0
BBX 12 14 0 -3
BITMAP
0000
4000
4000
4000
4000
5C00
6200
4200
4200
4200
4200
0000
0000
0000
ENDCHAR
STARTCHAR uni04BB
ENCODING 1211
SWIDTH 411 0
DWIDTH 8 0
BBX 12 14 0 -3
BITMAP
0000
0000
0000
0000
4000
4000
7C00
4200
4200
4200
4200
0000
0000
0000
ENDCHAR
STARTCHAR uni04D0
ENCODING 1232
SWIDTH 411 0
DWIDTH 8 0
BBX 12 14 0 -3
BITMAP
2400
1800
0000
3C00
4200
4200
4200
7E00
4200
4200
4200
0000
0000
0000
ENDCHAR
STARTCHAR uni04D1
ENCODING 1233
SWIDTH 411 0
DWIDTH 8 0
BBX 12 14 0 -3
BITMAP
0000
2400
1800
0000
3C00
0200
3E00
4200
4200
4600
3A00
0000
0000
0000
ENDCHAR
STARTCHAR uni04D2
ENCODING 1234
SWIDTH 411 0
DWIDTH 8 0
BBX 12 14 0 -3
BITMAP
2400
2400
0000
3C00
4200
4200
4200
7E00
4200
4200
4200
0000
0000
0000
ENDCHAR
STARTCHAR uni04D3
ENCODING 1235
SWIDTH 411 0
DWIDTH 8 0
BBX 12 14 0 -3
BITMAP
0000
2400
2400
0000
3C00
0200
3E00
4200
4200
4600
3A00
0000
0000
0000
ENDCHAR
STARTCHAR uni04D4
ENCODING 1236
SWIDTH 411 0
DWIDTH 8 0
BBX 12 14 0 -3
BITMAP
0000
0000
7E00
9000
9000
9000
FC00
9000
9000
9000
9E00
0000
0000
0000
ENDCHAR
STARTCHAR uni04D5
ENCODING 1237
SWIDTH 411 0
DWIDTH 8 0
BBX 12 14 0 -3
BITMAP
0000
0000
0000
0000
6C00
1200
7200
9E00
9000
9000
6C00
0000
0000
0000
ENDCHAR
STARTCHAR uni04D6
ENCODING 1238
SWIDTH 411 0
DWIDTH 8 0
BBX 12 14 0 -3
BITMAP
2400
1800
0000
7E00
4000
4000
7800
4000
4000
4000
7E00
0000
0000
0000
ENDCHAR
STARTCHAR uni04D7
ENCODING 1239
SWIDTH 411 0
DWIDTH 8 0
BBX 12 14 0 -3
BITMAP
0000
2400
1800
0000
3C00
4200
4200
7E00
4000
4000
3C00
0000
0000
0000
ENDCHAR
STARTCHAR uni04D8
ENCODING 1240
SWIDTH 411 0
DWIDTH 8 0
BBX 12 14 0 -3
BITMAP
0000
0000
3C00
4200
0200
0200
7E00
4200
4200
4200
3C00
0000
0000
0000
ENDCHAR
STARTCHAR afii10846
ENCODING 1241
SWIDTH 411 0
DWIDTH 8 0
BBX 12 14 0 -3
BITMAP
0000
0000
0000
0000
3C00
0200
0200
7E00
4200
4200
3C00
0000
0000
0000
ENDCHAR
STARTCHAR uni04DA
ENCODING 1242
SWIDTH 411 0
DWIDTH 8 0
BBX 12 14 0 -3
BITMAP
2400
2400
0000
3C00
4200
0200
0200
7E00
4200
4200
3C00
0000
0000
0000
ENDCHAR
STARTCHAR uni04DB
ENCODING 1243
SWIDTH 411 0
DWIDTH 8 0
BBX 12 14 0 -3
BITMAP
0000
2400
2400
0000
3C00
0200
0200
7E00
4200
4200
3C00
0000
0000
0000
ENDCHAR
STARTCHAR uni04DC
ENCODING 1244
SWIDTH 411 0
DWIDTH 8 0
BBX 12 14 0 -3
BITMAP
4400
4400
0000
8200
9200
5400
3800
5400
9200
9200
8200
0000
0000
0000
ENDCHAR
STARTCHAR uni04DD
ENCODING 1245
SWIDTH 411 0
DWIDTH 8 0
BBX 12 14 0 -3
BITMAP
0000
4400
4400
0000
9200
9200
5400
3800
5400
9200
9200
0000
0000
0000
ENDCHAR
STARTCHAR uni04DE
ENCODING 1246
SWIDTH 411 0
DWIDTH 8 0
BBX 12 14 0 -3
BITMAP
2400
2400
0000
3C00
4200
4200
0200
1C00
0200
4200
3C00
0000
0000
0000
ENDCHAR
STARTCHAR uni04DF
ENCODING 1247
SWIDTH 411 0
DWIDTH 8 0
BBX 12 14 0 -3
BITMAP
0000
2400
2400
0000
3C00
4200
0200
1C00
0200
4200
3C00
0000
0000
0000
ENDCHAR
STARTCHAR uni04E2
ENCODING 1250
SWIDTH 411 0
DWIDTH 8 0
BBX 12 14 0 -3
BITMAP
3C00
0000
4200
4600
4600
4A00
4A00
5200
5200
6200
6200
0000
0000
0000
ENDCHAR
STARTCHAR uni04E3
ENCODING 1251
SWIDTH 411 0
DWIDTH 8 0
BBX 12 14 0 -3
BITMAP
0000
0000
3C00
0000
4200
4200
4200
4200
4200
4600
3A00
0000
0000
0000
ENDCHAR
STARTCHAR uni04E4
ENCODING 1252
SWIDTH 411 0
DWIDTH 8 0
BBX 12 14 0 -3
BITMAP
2400
2400
0000
4600
4600
4A00
4A00
5200
5200
6200
6200
0000
0000
0000
ENDCHAR
STARTCHAR uni04E5
ENCODING 1253
SWIDTH 411 0
DWIDTH 8 0
BBX 12 14 0 -3
BITMAP
0000
2400
2400
0000
4200
4200
4200
4200
4200
4600
3A00
0000
0000
0000
ENDCHAR
STARTCHAR uni04E6
ENCODING 1254
SWIDTH 411 0
DWIDTH 8 0
BBX 12 14 0 -3
BITMAP
2400
2400
0000
3C00
4200
4200
4200
4200
4200
4200
3C00
0000
0000
0000
ENDCHAR
STARTCHAR uni04E7
ENCODING 1255
SWIDTH 411 0
DWIDTH 8 0
BBX 12 14 0 -3
BITMAP
0000
2400
2400
0000
3C00
4200
4200
4200
4200
4200
3C00
0000
0000
0000
ENDCHAR
STARTCHAR uni04E8
ENCODING 1256
SWIDTH 411 0
DWIDTH 8 0
BBX 12 14 0 -3
BITMAP
0000
0000
3C00
4200
4200
4200
7E00
4200
4200
4200
3C00
0000
0000
0000
ENDCHAR
STARTCHAR uni04E9
ENCODING 1257
SWIDTH 411 0
DWIDTH 8 0
BBX 12 14 0 -3
BITMAP
0000
0000
0000
0000
3C00
4200
4200
7E00
4200
4200
3C00
0000
0000
0000
ENDCHAR
STARTCHAR uni04EA
ENCODING 1258
SWIDTH 411 0
DWIDTH 8 0
BBX 12 14 0 -3
BITMAP
2400
2400
0000
3C00
4200
4200
4200
7E00
4200
4200
3C00
0000
0000
0000
ENDCHAR
STARTCHAR uni04EB
ENCODING 1259
SWIDTH 411 0
DWIDTH 8 0
BBX 12 14 0 -3
BITMAP
0000
2400
2400
0000
3C00
4200
4200
7E00
4200
4200
3C00
0000
0000
0000
ENDCHAR
STARTCHAR uni04EC
ENCODING 1260
SWIDTH 411 0
DWIDTH 8 0
BBX 12 14 0 -3
BITMAP
2400
2400
0000
3C00
4200
0200
0200
1E00
0200
4200
3C00
0000
0000
0000
ENDCHAR
STARTCHAR uni04ED
ENCODING 1261
SWIDTH 411 0
DWIDTH 8 0
BBX 12 14 0 -3
BITMAP
0000
2400
2400
0000
3C00
4200
0200
1E00
0200
4200
3C00
0000
0000
0000
ENDCHAR
STARTCHAR uni04EE
ENCODING 1262
SWIDTH 411 0
DWIDTH 8 0
BBX 12 14 0 -3
BITMAP
3C00
0000
4200
4200
4200
4200
3E00
0200
0200
0200
3C00
0000
0000
0000
ENDCHAR
STARTCHAR uni04EF
ENCODING 1263
SWIDTH 411 0
DWIDTH 8 0
BBX 12 14 0 -3
BITMAP
0000
0000
3C00
0000
4200
4200
4200
4200
4200
4600
3A00
0200
0200
3C00
ENDCHAR
STARTCHAR uni04F0
ENCODING 1264
SWIDTH 411 0
DWIDTH 8 0
BBX 12 14 0 -3
BITMAP
2400
2400
0000
4200
4200
4200
3E00
0200
0200
0200
3C00
0000
0000
0000
ENDCHAR
STARTCHAR uni04F1
ENCODING 1265
SWIDTH 411 0
DWIDTH 8 0
BBX 12 14 0 -3
BITMAP
0000
2400
2400
0000
4200
4200
4200
4200
4200
4600
3A00
0200
0200
3C00
ENDCHAR
STARTCHAR uni04F2
ENCODING 1266
SWIDTH 411 0
DWIDTH 8 0
BBX 12 14 0 -3
BITMAP
1200
2400
0000
4200
4200
4200
3E00
0200
0200
0200
3C00
0000
0000
0000
ENDCHAR
STARTCHAR uni04F3
ENCODING 1267
SWIDTH 411 0
DWIDTH 8 0
BBX 12 14 0 -3
BITMAP
0000
1200
2400
0000
4200
4200
4200
4200
4200
4600
3A00
0200
0200
3C00
ENDCHAR
STARTCHAR uni04F4
ENCODING 1268
SWIDTH 411 0
DWIDTH 8 0
BBX 12 14 0 -3
BITMAP
2400
2400
0000
4200
4200
4200
4200
3E00
0200
0200
0200
0000
0000
0000
ENDCHAR
STARTCHAR uni04F5
ENCODING 1269
SWIDTH 411 0
DWIDTH 8 0
BBX 12 14 0 -3
BITMAP
0000
2400
2400
0000
4200
4200
4200
3E00
0200
0200
0200
0000
0000
0000
ENDCHAR
STARTCHAR uni04F8
ENCODING 1272
SWIDTH 411 0
DWIDTH 8 0
BBX 12 14 0 -3
BITMAP
4800
4800
0000
8200
8200
8200
F200
8A00
8A00
8A00
F200
0000
0000
0000
ENDCHAR
STARTCHAR uni04F9
ENCODING 1273
SWIDTH 411 0
DWIDTH 8 0
BBX 12 14 0 -3
BITMAP
0000
4800
4800
0000
8200
8200
F200
8A00
8A00
8A00
F200
0000
0000
0000
ENDCHAR
STARTCHAR Klinebelow
ENCODING 7732
SWIDTH 411 0
DWIDTH 8 0
BBX 12 14 0 -3
BITMAP
0000
0000
4200
4400
4800
5000
6000
5000
4800
4400
4200
0000
3C00
0000
ENDCHAR
STARTCHAR klinebelow
ENCODING 7733
SWIDTH 411 0
DWIDTH 8 0
BBX 12 14 0 -3
BITMAP
0000
4000
4000
4000
4000
4400
4800
7000
4800
4400
4200
0000
3C00
0000
ENDCHAR
STARTCHAR Edotbelow
ENCODING 7864
SWIDTH 411 0
DWIDTH 8 0
BBX 12 14 0 -3
BITMAP
0000
0000
7E00
4000
4000
4000
7800
4000
4000
4000
7E00
1000
1000
0000
ENDCHAR
STARTCHAR edotbelow
ENCODING 7865
SWIDTH 411 0
DWIDTH 8 0
BBX 12 14 0 -3
BITMAP
0000
0000
0000
0000
3C00
4200
4200
7E00
4000
4000
3C00
1000
1000
0000
ENDCHAR
STARTCHAR Etilde
ENCODING 7868
SWIDTH 411 0
DWIDTH 8 0
BBX 12 14 0 -3
BITMAP
3200
4C00
0000
7E00
4000
4000
4000
7800
4000
4000
7E00
0000
0000
0000
ENDCHAR
STARTCHAR etilde
ENCODING 7869
SWIDTH 411 0
DWIDTH 8 0
BBX 12 14 0 -3
BITMAP
0000
3200
4C00
0000
3C00
4200
4200
7E00
4000
4000
3C00
0000
0000
0000
ENDCHAR
STARTCHAR Odotbelow
ENCODING 7884
SWIDTH 411 0
DWIDTH 8 0
BBX 12 14 0 -3
BITMAP
0000
0000
3C00
4200
4200
4200
4200
4200
4200
4200
3C00
1000
1000
0000
ENDCHAR
STARTCHAR odotbelow
ENCODING 7885
SWIDTH 411 0
DWIDTH 8 0
BBX 12 14 0 -3
BITMAP
0000
0000
0000
0000
3C00
4200
4200
4200
4200
4200
3C00
1000
1000
0000
ENDCHAR
STARTCHAR Ytilde
ENCODING 7928
SWIDTH 411 0
DWIDTH 8 0
BBX 12 14 0 -3
BITMAP
6400
9800
0000
8200
8200
4400
4400
2800
1000
1000
1000
0000
0000
0000
ENDCHAR
STARTCHAR ytilde
ENCODING 7929
SWIDTH 411 0
DWIDTH 8 0
BBX 12 14 0 -3
BITMAP
0000
3200
4C00
0000
4200
4200
4200
4200
4200
4600
3A00
0200
0200
3C00
ENDCHAR
STARTCHAR uni2000
ENCODING 8192
SWIDTH 411 0
DWIDTH 8 0
BBX 12 14 0 -3
BITMAP
0000
0000
0000
0000
0000
0000
0000
0000
0000
0000
0000
0000
0000
0000
ENDCHAR
STARTCHAR uni2001
ENCODING 8193
SWIDTH 411 0
DWIDTH 8 0
BBX 12 14 0 -3
BITMAP
0000
0000
0000
0000
0000
0000
0000
0000
0000
0000
0000
0000
0000
0000
ENDCHAR
STARTCHAR enspace
ENCODING 8194
SWIDTH 411 0
DWIDTH 8 0
BBX 12 14 0 -3
BITMAP
0000
0000
0000
0000
0000
0000
0000
0000
0000
0000
0000
0000
0000
0000
ENDCHAR
STARTCHAR uni2003
ENCODING 8195
SWIDTH 411 0
DWIDTH 8 0
BBX 12 14 0 -3
BITMAP
0000
0000
0000
0000
0000
0000
0000
0000
0000
0000
0000
0000
0000
0000
ENDCHAR
STARTCHAR uni2004
ENCODING 8196
SWIDTH 411 0
DWIDTH 8 0
BBX 12 14 0 -3
BITMAP
0000
0000
0000
0000
0000
0000
0000
0000
0000
0000
0000
0000
0000
0000
ENDCHAR
STARTCHAR uni2005
ENCODING 8197
SWIDTH 411 0
DWIDTH 8 0
BBX 12 14 0 -3
BITMAP
0000
0000
0000
0000
0000
0000
0000
0000
0000
0000
0000
0000
0000
0000
ENDCHAR
STARTCHAR uni2006
ENCODING 8198
SWIDTH 411 0
DWIDTH 8 0
BBX 12 14 0 -3
BITMAP
0000
0000
0000
0000
0000
0000
0000
0000
0000
0000
0000
0000
0000
0000
ENDCHAR
STARTCHAR uni2007
ENCODING 8199
SWIDTH 411 0
DWIDTH 8 0
BBX 12 14 0 -3
BITMAP
0000
0000
0000
0000
0000
0000
0000
0000
0000
0000
0000
0000
0000
0000
ENDCHAR
STARTCHAR uni2008
ENCODING 8200
SWIDTH 411 0
DWIDTH 8 0
BBX 12 14 0 -3
BITMAP
0000
0000
0000
0000
0000
0000
0000
0000
0000
0000
0000
0000
0000
0000
ENDCHAR
STARTCHAR uni2009
ENCODING 8201
SWIDTH 411 0
DWIDTH 8 0
BBX 12 14 0 -3
BITMAP
0000
0000
0000
0000
0000
0000
0000
0000
0000
0000
0000
0000
0000
0000
ENDCHAR
STARTCHAR uni200A
ENCODING 8202
SWIDTH 411 0
DWIDTH 8 0
BBX 12 14 0 -3
BITMAP
0000
0000
0000
0000
0000
0000
0000
0000
0000
0000
0000
0000
0000
0000
ENDCHAR
STARTCHAR hyphentwo
ENCODING 8208
SWIDTH 411 0
DWIDTH 8 0
BBX 12 14 0 -3
BITMAP
0000
0000
0000
0000
0000
0000
0000
3C00
0000
0000
0000
0000
0000
0000
ENDCHAR
STARTCHAR uni2011
ENCODING 8209
SWIDTH 411 0
DWIDTH 8 0
BBX 12 14 0 -3
BITMAP
0000
0000
0000
0000
0000
0000
0000
3C00
0000
0000
0000
0000
0000
0000
ENDCHAR
STARTCHAR figuredash
ENCODING 8210
SWIDTH 411 0
DWIDTH 8 0
BBX 12 14 0 -3
BITMAP
0000
0000
0000
0000
0000
0000
0000
7E00
0000
0000
0000
0000
0000
0000
ENDCHAR
STARTCHAR endash
ENCODING 8211
SWIDTH 411 0
DWIDTH 8 0
BBX 12 14 0 -3
BITMAP
0000
0000
0000
0000
0000
0000
0000
7E00
0000
0000
0000
0000
0000
0000
ENDCHAR
STARTCHAR emdash
ENCODING 8212
SWIDTH 411 0
DWIDTH 8 0
BBX 12 14 0 -3
BITMAP
0000
0000
0000
0000
0000
0000
0000
FE00
0000
0000
0000
0000
0000
0000
ENDCHAR
STARTCHAR afii00208
ENCODING 8213
SWIDTH 411 0
DWIDTH 8 0
BBX 12 14 0 -3
BITMAP
0000
0000
0000
0000
0000
0000
0000
FE00
0000
0000
0000
0000
0000
0000
ENDCHAR
STARTCHAR dblverticalbar
ENCODING 8214
SWIDTH 411 0
DWIDTH 8 0
BBX 12 14 0 -3
BITMAP
0000
0000
2800
2800
2800
2800
2800
2800
2800
2800
2800
2800
0000
0000
ENDCHAR
STARTCHAR underscoredbl
ENCODING 8215
SWIDTH 411 0
DWIDTH 8 0
BBX 12 14 0 -3
BITMAP
0000
0000
0000
0000
0000
0000
0000
0000
0000
0000
0000
FF00
0000
FF00
ENDCHAR
STARTCHAR quoteleft
ENCODING 8216
SWIDTH 411 0
DWIDTH 8 0
BBX 12 14 0 -3
BITMAP
0000
0800
1000
1000
0000
0000
0000
0000
0000
0000
0000
0000
0000
0000
ENDCHAR
STARTCHAR quoteright
ENCODING 8217
SWIDTH 411 0
DWIDTH 8 0
BBX 12 14 0 -3
BITMAP
0000
0800
0800
1000
0000
0000
0000
0000
0000
0000
0000
0000
0000
0000
ENDCHAR
STARTCHAR quotesinglbase
ENCODING 8218
SWIDTH 411 0
DWIDTH 8 0
BBX 12 14 0 -3
BITMAP
0000
0000
0000
0000
0000
0000
0000
0000
0000
0000
0800
0800
1000
0000
ENDCHAR
STARTCHAR quotedblleft
ENCODING 8220
SWIDTH 411 0
DWIDTH 8 0
BBX 12 14 0 -3
BITMAP
0000
1200
2400
2400
0000
0000
0000
0000
0000
0000
0000
0000
0000
0000
ENDCHAR
STARTCHAR quotedblright
ENCODING 8221
SWIDTH 411 0
DWIDTH 8 0
BBX 12 14 0 -3
BITMAP
0000
1200
1200
2400
0000
0000
0000
0000
0000
0000
0000
0000
0000
0000
ENDCHAR
STARTCHAR quotedblbase
ENCODING 8222
SWIDTH 411 0
DWIDTH 8 0
BBX 12 14 0 -3
BITMAP
0000
0000
0000
0000
0000
0000
0000
0000
0000
0000
2400
2400
4800
0000
ENDCHAR
STARTCHAR dagger
ENCODING 8224
SWIDTH 411 0
DWIDTH 8 0
BBX 12 14 0 -3
BITMAP
0000
0000
1000
1000
7C00
1000
1000
1000
1000
1000
1000
1000
0000
0000
ENDCHAR
STARTCHAR daggerdbl
ENCODING 8225
SWIDTH 411 0
DWIDTH 8 0
BBX 12 14 0 -3
BITMAP
0000
0000
1000
1000
7C00
1000
1000
1000
1000
7C00
1000
1000
0000
0000
ENDCHAR
STARTCHAR bullet
ENCODING 8226
SWIDTH 411 0
DWIDTH 8 0
BBX 12 14 0 -3
BITMAP
0000
0000
0000
0000
0000
1800
3C00
3C00
1800
0000
0000
0000
0000
0000
ENDCHAR
STARTCHAR ellipsis
ENCODING 8230
SWIDTH 411 0
DWIDTH 8 0
BBX 12 14 0 -3
BITMAP
0000
0000
0000
0000
0000
0000
0000
0000
0000
9200
9200
0000
0000
0000
ENDCHAR
STARTCHAR perthousand
ENCODING 8240
SWIDTH 411 0
DWIDTH 8 0
BBX 12 14 0 -3
BITMAP
0000
0000
4800
A800
5000
1000
2000
2000
4000
5400
AA00
9400
0000
0000
ENDCHAR
STARTCHAR minute
ENCODING 8242
SWIDTH 411 0
DWIDTH 8 0
BBX 12 14 0 -3
BITMAP
0000
1000
1000
1000
1000
0000
0000
0000
0000
0000
0000
0000
0000
0000
ENDCHAR
STARTCHAR second
ENCODING 8243
SWIDTH 411 0
DWIDTH 8 0
BBX 12 14 0 -3
BITMAP
0000
2400
2400
2400
2400
0000
0000
0000
0000
0000
0000
0000
0000
0000
ENDCHAR
STARTCHAR guilsinglleft
ENCODING 8249
SWIDTH 411 0
DWIDTH 8 0
BBX 12 14 0 -3
BITMAP
0000
0000
0000
0000
0400
0800
1000
2000
1000
0800
0400
0000
0000
0000
ENDCHAR
STARTCHAR guilsinglright
ENCODING 8250
SWIDTH 411 0
DWIDTH 8 0
BBX 12 14 0 -3
BITMAP
0000
0000
0000
0000
2000
1000
0800
0400
0800
1000
2000
0000
0000
0000
ENDCHAR
STARTCHAR exclamdbl
ENCODING 8252
SWIDTH 411 0
DWIDTH 8 0
BBX 12 14 0 -3
BITMAP
0000
2400
2400
2400
2400
2400
2400
2400
0000
2400
2400
0000
0000
0000
ENDCHAR
STARTCHAR overline
ENCODING 8254
SWIDTH 411 0
DWIDTH 8 0
BBX 12 14 0 -3
BITMAP
7E00
0000
0000
0000
0000
0000
0000
0000
0000
0000
0000
0000
0000
0000
ENDCHAR
STARTCHAR nsuperior
ENCODING 8319
SWIDTH 411 0
DWIDTH 8 0
BBX 12 14 0 -3
BITMAP
0000
3800
2400
2400
2400
2400
0000
0000
0000
0000
0000
0000
0000
0000
ENDCHAR
STARTCHAR peseta
ENCODING 8359
SWIDTH 411 0
DWIDTH 8 0
BBX 12 14 0 -3
BITMAP
0000
0000
F000
8800
8800
8800
F400
8400
8E00
8400
8200
0000
0000
0000
ENDCHAR
STARTCHAR Euro
ENCODING 8364
SWIDTH 411 0
DWIDTH 8 0
BBX 12 14 0 -3
BITMAP
0000
0000
1C00
2200
4000
F800
4000
F800
4000
2200
1C00
0000
0000
0000
ENDCHAR
STARTCHAR uni20AE
ENCODING 8366
SWIDTH 411 0
DWIDTH 8 0
BBX 12 14 0 -3
BITMAP
0000
0000
FE00
1000
1000
1C00
7000
1C00
7000
1000
1000
0000
0000
0000
ENDCHAR
STARTCHAR uni210E
ENCODING 8462
SWIDTH 411 0
DWIDTH 8 0
BBX 12 14 0 -3
BITMAP
0000
0000
4000
4000
4000
5C00
6200
4200
4200
4200
4200
0000
0000
0000
ENDCHAR
STARTCHAR uni210F
ENCODING 8463
SWIDTH 411 0
DWIDTH 8 0
BBX 12 14 0 -3
BITMAP
0000
0000
4000
F800
4000
5C00
6200
4200
4200
4200
4200
0000
0000
0000
ENDCHAR
STARTCHAR afii61352
ENCODING 8470
SWIDTH 411 0
DWIDTH 8 0
BBX 12 14 0 -3
BITMAP
0000
9600
9600
9600
D000
F000
F000
B000
9600
9000
9600
0000
0000
0000
ENDCHAR
STARTCHAR trademark
ENCODING 8482
SWIDTH 411 0
DWIDTH 8 0
BBX 12 14 0 -3
BITMAP
0000
0000
FB00
5500
5500
5100
0000
0000
0000
0000
0000
0000
0000
0000
ENDCHAR
STARTCHAR Ohm
ENCODING 8486
SWIDTH 411 0
DWIDTH 8 0
BBX 12 14 0 -3
BITMAP
0000
0000
3C00
4200
4200
4200
4200
2400
2400
2400
6600
0000
0000
0000
ENDCHAR
STARTCHAR arrowleft
ENCODING 8592
SWIDTH 411 0
DWIDTH 8 0
BBX 12 14 0 -3
BITMAP
0000
0000
0000
0000
2000
4000
FE00
4000
2000
0000
0000
0000
0000
0000
ENDCHAR
STARTCHAR arrowup
ENCODING 8593
SWIDTH 411 0
DWIDTH 8 0
BBX 12 14 0 -3
BITMAP
0000
0000
1000
3800
5400
1000
1000
1000
1000
1000
1000
1000
0000
0000
ENDCHAR
STARTCHAR arrowright
ENCODING 8594
SWIDTH 411 0
DWIDTH 8 0
BBX 12 14 0 -3
BITMAP
0000
0000
0000
0000
0800
0400
FE00
0400
0800
0000
0000
0000
0000
0000
ENDCHAR
STARTCHAR arrowdown
ENCODING 8595
SWIDTH 411 0
DWIDTH 8 0
BBX 12 14 0 -3
BITMAP
0000
0000
1000
1000
1000
1000
1000
1000
1000
5400
3800
1000
0000
0000
ENDCHAR
STARTCHAR arrowboth
ENCODING 8596
SWIDTH 411 0
DWIDTH 8 0
BBX 12 14 0 -3
BITMAP
0000
0000
0000
0000
2400
4200
FF00
4200
2400
0000
0000
0000
0000
0000
ENDCHAR
STARTCHAR arrowupdn
ENCODING 8597
SWIDTH 411 0
DWIDTH 8 0
BBX 12 14 0 -3
BITMAP
0000
0000
1000
3800
5400
1000
1000
1000
1000
5400
3800
1000
0000
0000
ENDCHAR
STARTCHAR arrowupdnbse
ENCODING 8616
SWIDTH 411 0
DWIDTH 8 0
BBX 12 14 0 -3
BITMAP
0000
0000
1000
3800
5400
1000
1000
1000
5400
3800
1000
7C00
0000
0000
ENDCHAR
STARTCHAR carriagereturn
ENCODING 8629
SWIDTH 411 0
DWIDTH 8 0
BBX 12 14 0 -3
BITMAP
0000
0000
0200
0200
0200
0200
0200
2200
4200
FE00
4000
2000
0000
0000
ENDCHAR
STARTCHAR arrowdblleft
ENCODING 8656
SWIDTH 411 0
DWIDTH 8 0
BBX 12 14 0 -3
BITMAP
0000
0000
0000
0000
2000
7E00
C000
7E00
2000
0000
0000
0000
0000
0000
ENDCHAR
STARTCHAR arrowdblup
ENCODING 8657
SWIDTH 411 0
DWIDTH 8 0
BBX 12 14 0 -3
BITMAP
0000
0000
1000
3800
6C00
2800
2800
2800
2800
2800
2800
2800
0000
0000
ENDCHAR
STARTCHAR arrowdblright
ENCODING 8658
SWIDTH 411 0
DWIDTH 8 0
BBX 12 14 0 -3
BITMAP
0000
0000
0000
0000
0800
FC00
0600
FC00
0800
0000
0000
0000
0000
0000
ENDCHAR
STARTCHAR arrowdbldown
ENCODING 8659
SWIDTH 411 0
DWIDTH 8 0
BBX 12 14 0 -3
BITMAP
0000
0000
2800
2800
2800
2800
2800
2800
2800
6C00
3800
1000
0000
0000
ENDCHAR
STARTCHAR arrowdblboth
ENCODING 8660
SWIDTH 411 0
DWIDTH 8 0
BBX 12 14 0 -3
BITMAP
0000
0000
0000
0000
2400
7E00
C300
7E00
2400
0000
0000
0000
0000
0000
ENDCHAR
STARTCHAR uni21D5
ENCODING 8661
SWIDTH 411 0
DWIDTH 8 0
BBX 12 14 0 -3
BITMAP
0000
0000
1000
3800
6C00
2800
2800
2800
2800
6C00
3800
1000
0000
0000
ENDCHAR
STARTCHAR existential
ENCODING 8707
SWIDTH 411 0
DWIDTH 8 0
BBX 12 14 0 -3
BITMAP
0000
0000
7E00
0200
0200
0200
7E00
0200
0200
0200
7E00
0000
0000
0000
ENDCHAR
STARTCHAR emptyset
ENCODING 8709
SWIDTH 411 0
DWIDTH 8 0
BBX 12 14 0 -3
BITMAP
0000
0200
0400
7C00
8A00
9200
9200
A200
7C00
4000
8000
0000
0000
0000
ENDCHAR
STARTCHAR increment
ENCODING 8710
SWIDTH 411 0
DWIDTH 8 0
BBX 12 14 0 -3
BITMAP
0000
1000
1000
2800
2800
4400
4400
4400
8200
8200
FE00
0000
0000
0000
ENDCHAR
STARTCHAR element
ENCODING 8712
SWIDTH 411 0
DWIDTH 8 0
BBX 12 14 0 -3
BITMAP
0000
0000
1E00
2000
4000
4000
7E00
4000
4000
2000
1E00
0000
0000
0000
ENDCHAR
STARTCHAR uni220A
ENCODING 8714
SWIDTH 411 0
DWIDTH 8 0
BBX 12 14 0 -3
BITMAP
0000
0000
0000
1E00
2000
4000
7E00
4000
2000
1E00
0000
0000
0000
0000
ENDCHAR
STARTCHAR minus
ENCODING 8722
SWIDTH 411 0
DWIDTH 8 0
BBX 12 14 0 -3
BITMAP
0000
0000
0000
0000
0000
0000
0000
7E00
0000
0000
0000
0000
0000
0000
ENDCHAR
STARTCHAR bulletoperator
ENCODING 8729
SWIDTH 411 0
DWIDTH 8 0
BBX 12 14 0 -3
BITMAP
0000
0000
0000
0000
0000
0000
1800
1800
0000
0000
0000
0000
0000
0000
ENDCHAR
STARTCHAR radical
ENCODING 8730
SWIDTH 411 0
DWIDTH 8 0
BBX 12 14 0 -3
BITMAP
0000
0700
0400
0400
0400
0400
4400
4400
4400
2400
1400
0C00
0000
0000
ENDCHAR
STARTCHAR infinity
ENCODING 8734
SWIDTH 411 0
DWIDTH 8 0
BBX 12 14 0 -3
BITMAP
0000
0000
0000
0000
0000
6C00
9200
9200
9200
6C00
0000
0000
0000
0000
ENDCHAR
STARTCHAR orthogonal
ENCODING 8735
SWIDTH 411 0
DWIDTH 8 0
BBX 12 14 0 -3
BITMAP
0000
0000
0000
0000
4000
4000
4000
4000
4000
7E00
0000
0000
0000
0000
ENDCHAR
STARTCHAR logicaland
ENCODING 8743
SWIDTH 411 0
DWIDTH 8 0
BBX 12 14 0 -3
BITMAP
0000
0000
0000
1000
1000
2800
2800
4400
4400
8200
8200
0000
0000
0000
ENDCHAR
STARTCHAR logicalor
ENCODING 8744
SWIDTH 411 0
DWIDTH 8 0
BBX 12 14 0 -3
BITMAP
0000
0000
0000
8200
8200
4400
4400
2800
2800
1000
1000
0000
0000
0000
ENDCHAR
STARTCHAR intersection
ENCODING 8745
SWIDTH 411 0
DWIDTH 8 0
BBX 12 14 0 -3
BITMAP
0000
0000
0000
3C00
4200
4200
4200
4200
4200
4200
4200
0000
0000
0000
ENDCHAR
STARTCHAR union
ENCODING 8746
SWIDTH 411 0
DWIDTH 8 0
BBX 12 14 0 -3
BITMAP
0000
0000
0000
4200
4200
4200
4200
4200
4200
4200
3C00
0000
0000
0000
ENDCHAR
STARTCHAR approxequal
ENCODING 8776
SWIDTH 411 0
DWIDTH 8 0
BBX 12 14 0 -3
BITMAP
0000
0000
0000
0000
0000
3200
4C00
0000
3200
4C00
0000
0000
0000
0000
ENDCHAR
STARTCHAR notequal
ENCODING 8800
SWIDTH 411 0
DWIDTH 8 0
BBX 12 14 0 -3
BITMAP
0000
0000
0000
0000
0200
7E00
0800
1000
7E00
4000
0000
0000
0000
0000
ENDCHAR
STARTCHAR equivalence
ENCODING 8801
SWIDTH 411 0
DWIDTH 8 0
BBX 12 14 0 -3
BITMAP
0000
0000
0000
0000
7E00
0000
0000
7E00
0000
0000
7E00
0000
0000
0000
ENDCHAR
STARTCHAR lessequal
ENCODING 8804
SWIDTH 411 0
DWIDTH 8 0
BBX 12 14 0 -3
BITMAP
0000
0000
0400
0800
1000
2000
1000
0800
0400
0000
3E00
0000
0000
0000
ENDCHAR
STARTCHAR greaterequal
ENCODING 8805
SWIDTH 411 0
DWIDTH 8 0
BBX 12 14 0 -3
BITMAP
0000
0000
2000
1000
0800
0400
0800
1000
2000
0000
7C00
0000
0000
0000
ENDCHAR
STARTCHAR house
ENCODING 8962
SWIDTH 411 0
DWIDTH 8 0
BBX 12 14 0 -3
BITMAP
0000
0000
0000
1000
2800
4400
8200
8200
8200
FE00
0000
0000
0000
0000
ENDCHAR
STARTCHAR revlogicalnot
ENCODING 8976
SWIDTH 411 0
DWIDTH 8 0
BBX 12 14 0 -3
BITMAP
0000
0000
0000
0000
0000
7E00
4000
4000
4000
0000
0000
0000
0000
0000
ENDCHAR
STARTCHAR integraltp
ENCODING 8992
SWIDTH 411 0
DWIDTH 8 0
BBX 12 14 0 -3
BITMAP
0000
0000
0C00
1200
1200
1000
1000
1000
1000
1000
1000
1000
1000
1000
ENDCHAR
STARTCHAR integralbt
ENCODING 8993
SWIDTH 411 0
DWIDTH 8 0
BBX 12 14 0 -3
BITMAP
1000
1000
1000
1000
1000
1000
1000
1000
1000
9000
9000
6000
0000
0000
ENDCHAR
STARTCHAR uni23BA
ENCODING 9146
SWIDTH 411 0
DWIDTH 8 0
BBX 12 14 0 -3
BITMAP
FF00
0000
0000
0000
0000
0000
0000
0000
0000
0000
0000
0000
0000
0000
ENDCHAR
STARTCHAR uni23BB
ENCODING 9147
SWIDTH 411 0
DWIDTH 8 0
BBX 12 14 0 -3
BITMAP
0000
0000
0000
FF00
0000
0000
0000
0000
0000
0000
0000
0000
0000
0000
ENDCHAR
STARTCHAR uni23BC
ENCODING 9148
SWIDTH 411 0
DWIDTH 8 0
BBX 12 14 0 -3
BITMAP
0000
0000
0000
0000
0000
0000
0000
0000
0000
0000
FF00
0000
0000
0000
ENDCHAR
STARTCHAR uni23BD
ENCODING 9149
SWIDTH 411 0
DWIDTH 8 0
BBX 12 14 0 -3
BITMAP
0000
0000
0000
0000
0000
0000
0000
0000
0000
0000
0000
0000
0000
FF00
ENDCHAR
STARTCHAR uni2409
ENCODING 9225
SWIDTH 411 0
DWIDTH 8 0
BBX 12 14 0 -3
BITMAP
0000
8800
8800
F800
8800
8800
0000
1F00
0400
0400
0400
0400
0000
0000
ENDCHAR
STARTCHAR uni240A
ENCODING 9226
SWIDTH 411 0
DWIDTH 8 0
BBX 12 14 0 -3
BITMAP
0000
8000
8000
8000
8000
F800
0000
1F00
1000
1C00
1000
1000
0000
0000
ENDCHAR
STARTCHAR uni240B
ENCODING 9227
SWIDTH 411 0
DWIDTH 8 0
BBX 12 14 0 -3
BITMAP
0000
8800
8800
5000
5000
2000
0000
1F00
0400
0400
0400
0400
0000
0000
ENDCHAR
STARTCHAR uni240C
ENCODING 9228
SWIDTH 411 0
DWIDTH 8 0
BBX 12 14 0 -3
BITMAP
0000
F800
8000
E000
8000
8000
0000
1F00
1000
1C00
1000
1000
0000
0000
ENDCHAR
STARTCHAR uni240D
ENCODING 9229
SWIDTH 411 0
DWIDTH 8 0
BBX 12 14 0 -3
BITMAP
0000
7000
8800
8000
8800
7000
0000
1E00
1100
1E00
1200
1100
0000
0000
ENDCHAR
STARTCHAR uni2424
ENCODING 9252
SWIDTH 411 0
DWIDTH 8 0
BBX 12 14 0 -3
BITMAP
0000
8800
C800
A800
9800
8800
0000
1000
1000
1000
1000
1F00
0000
0000
ENDCHAR
STARTCHAR SF100000
ENCODING 9472
SWIDTH 411 0
DWIDTH 8 0
BBX 12 14 0 -3
BITMAP
0000
0000
0000
0000
0000
0000
FF00
0000
0000
0000
0000
0000
0000
0000
ENDCHAR
STARTCHAR uni2501
ENCODING 9473
SWIDTH 411 0
DWIDTH 8 0
BBX 12 14 0 -3
BITMAP
0000
0000
0000
0000
0000
0000
FF00
FF00
0000
0000
0000
0000
0000
0000
ENDCHAR
STARTCHAR SF110000
ENCODING 9474
SWIDTH 411 0
DWIDTH 8 0
BBX 12 14 0 -3
BITMAP
1000
1000
1000
1000
1000
1000
1000
1000
1000
1000
1000
1000
1000
1000
ENDCHAR
STARTCHAR uni2503
ENCODING 9475
SWIDTH 411 0
DWIDTH 8 0
BBX 12 14 0 -3
BITMAP
1800
1800
1800
1800
1800
1800
1800
1800
1800
1800
1800
1800
1800
1800
ENDCHAR
STARTCHAR uni2508
ENCODING 9480
SWIDTH 411 0
DWIDTH 8 0
BBX 12 14 0 -3
BITMAP
0000
0000
0000
0000
0000
0000
AA00
0000
0000
0000
0000
0000
0000
0000
ENDCHAR
STARTCHAR uni2509
ENCODING 9481
SWIDTH 411 0
DWIDTH 8 0
BBX 12 14 0 -3
BITMAP
0000
0000
0000
0000
0000
0000
AA00
AA00
0000
0000
0000
0000
0000
0000
ENDCHAR
STARTCHAR uni250A
ENCODING 9482
SWIDTH 411 0
DWIDTH 8 0
BBX 12 14 0 -3
BITMAP
1000
1000
1000
0000
1000
1000
0000
1000
1000
1000
0000
1000
1000
0000
ENDCHAR
STARTCHAR uni250B
ENCODING 9483
SWIDTH 411 0
DWIDTH 8 0
BBX 12 14 0 -3
BITMAP
1800
1800
1800
0000
1800
1800
0000
1800
1800
1800
0000
1800
1800
0000
ENDCHAR
STARTCHAR SF010000
ENCODING 9484
SWIDTH 411 0
DWIDTH 8 0
BBX 12 14 0 -3
BITMAP
0000
0000
0000
0000
0000
0000
1F00
1000
1000
1000
1000
1000
1000
1000
ENDCHAR
STARTCHAR uni250D
ENCODING 9485
SWIDTH 411 0
DWIDTH 8 0
BBX 12 14 0 -3
BITMAP
0000
0000
0000
0000
0000
0000
1F00
1F00
1000
1000
1000
1000
1000
1000
ENDCHAR
STARTCHAR uni250E
ENCODING 9486
SWIDTH 411 0
DWIDTH 8 0
BBX 12 14 0 -3
BITMAP
0000
0000
0000
0000
0000
0000
1F00
1800
1800
1800
1800
1800
1800
1800
ENDCHAR
STARTCHAR uni250F
ENCODING 9487
SWIDTH 411 0
DWIDTH 8 0
BBX 12 14 0 -3
BITMAP
0000
0000
0000
0000
0000
0000
1F00
1F00
1800
1800
1800
1800
1800
1800
ENDCHAR
STARTCHAR SF030000
ENCODING 9488
SWIDTH 411 0
DWIDTH 8 0
BBX 12 14 0 -3
BITMAP
0000
0000
0000
0000
0000
0000
F000
1000
1000
1000
1000
1000
1000
1000
ENDCHAR
STARTCHAR uni2511
ENCODING 9489
SWIDTH 411 0
DWIDTH 8 0
BBX 12 14 0 -3
BITMAP
0000
0000
0000
0000
0000
0000
F000
F000
1000
1000
1000
1000
1000
1000
ENDCHAR
STARTCHAR uni2512
ENCODING 9490
SWIDTH 411 0
DWIDTH 8 0
BBX 12 14 0 -3
BITMAP
0000
0000
0000
0000
0000
0000
F800
1800
1800
1800
1800
1800
1800
1800
ENDCHAR
STARTCHAR uni2513
ENCODING 9491
SWIDTH 411 0
DWIDTH 8 0
BBX 12 14 0 -3
BITMAP
0000
0000
0000
0000
0000
0000
F800
F800
1800
1800
1800
1800
1800
1800
ENDCHAR
STARTCHAR SF020000
ENCODING 9492
SWIDTH 411 0
DWIDTH 8 0
BBX 12 14 0 -3
BITMAP
1000
1000
1000
1000
1000
1000
1F00
0000
0000
0000
0000
0000
0000
0000
ENDCHAR
STARTCHAR uni2515
ENCODING 9493
SWIDTH 411 0
DWIDTH 8 0
BBX 12 14 0 -3
BITMAP
1000
1000
1000
1000
1000
1000
1F00
1F00
0000
0000
0000
0000
0000
0000
ENDCHAR
STARTCHAR uni2516
ENCODING 9494
SWIDTH 411 0
DWIDTH 8 0
BBX 12 14 0 -3
BITMAP
1800
1800
1800
1800
1800
1800
1F00
0000
0000
0000
0000
0000
0000
0000
ENDCHAR
STARTCHAR uni2517
ENCODING 9495
SWIDTH 411 0
DWIDTH 8 0
BBX 12 14 0 -3
BITMAP
1800
1800
1800
1800
1800
1800
1F00
1F00
0000
0000
0000
0000
0000
0000
ENDCHAR
STARTCHAR SF040000
ENCODING 9496
SWIDTH 411 0
DWIDTH 8 0
BBX 12 14 0 -3
BITMAP
1000
1000
1000
1000
1000
1000
F000
0000
0000
0000
0000
0000
0000
0000
ENDCHAR
STARTCHAR uni2519
ENCODING 9497
SWIDTH 411 0
DWIDTH 8 0
BBX 12 14 0 -3
BITMAP
1000
1000
1000
1000
1000
1000
F000
F000
0000
0000
0000
0000
0000
0000
ENDCHAR
STARTCHAR uni251A
ENCODING 9498
SWIDTH 411 0
DWIDTH 8 0
BBX 12 14 0 -3
BITMAP
1800
1800
1800
1800
1800
1800
F800
0000
0000
0000
0000
0000
0000
0000
ENDCHAR
STARTCHAR uni251B
ENCODING 9499
SWIDTH 411 0
DWIDTH 8 0
BBX 12 14 0 -3
BITMAP
1800
1800
1800
1800
1800
1800
F800
F800
0000
0000
0000
0000
0000
0000
ENDCHAR
STARTCHAR SF080000
ENCODING 9500
SWIDTH 411 0
DWIDTH 8 0
BBX 12 14 0 -3
BITMAP
1000
1000
1000
1000
1000
1000
1F00
1000
1000
1000
1000
1000
1000
1000
ENDCHAR
STARTCHAR uni251D
ENCODING 9501
SWIDTH 411 0
DWIDTH 8 0
BBX 12 14 0 -3
BITMAP
1000
1000
1000
1000
1000
1000
1F00
1F00
1000
1000
1000
1000
1000
1000
ENDCHAR
STARTCHAR uni251E
ENCODING 9502
SWIDTH 411 0
DWIDTH 8 0
BBX 12 14 0 -3
BITMAP
1800
1800
1800
1800
1800
1800
1F00
1000
1000
1000
1000
1000
1000
1000
ENDCHAR
STARTCHAR uni251F
ENCODING 9503
SWIDTH 411 0
DWIDTH 8 0
BBX 12 14 0 -3
BITMAP
1000
1000
1000
1000
1000
1000
1F00
1800
1800
1800
1800
1800
1800
1800
ENDCHAR
STARTCHAR uni2520
ENCODING 9504
SWIDTH 411 0
DWIDTH 8 0
BBX 12 14 0 -3
BITMAP
1800
1800
1800
1800
1800
1800
1F00
1800
1800
1800
1800
1800
1800
1800
ENDCHAR
STARTCHAR uni2521
ENCODING 9505
SWIDTH 411 0
DWIDTH 8 0
BBX 12 14 0 -3
BITMAP
1800
1800
1800
1800
1800
1800
1F00
1F00
1000
1000
1000
1000
1000
1000
ENDCHAR
STARTCHAR uni2522
ENCODING 9506
SWIDTH 411 0
DWIDTH 8 0
BBX 12 14 0 -3
BITMAP
1000
1000
1000
1000
1000
1000
1F00
1F00
1800
1800
1800
1800
1800
1800
ENDCHAR
STARTCHAR uni2523
ENCODING 9507
SWIDTH 411 0
DWIDTH 8 0
BBX 12 14 0 -3
BITMAP
1800
1800
1800
1800
1800
1800
1F00
1F00
1800
1800
1800
1800
1800
1800
ENDCHAR
STARTCHAR SF090000
ENCODING 9508
SWIDTH 411 0
DWIDTH 8 0
BBX 12 14 0 -3
BITMAP
1000
1000
1000
1000
1000
1000
F000
1000
1000
1000
1000
1000
1000
1000
ENDCHAR
STARTCHAR uni2525
ENCODING 9509
SWIDTH 411 0
DWIDTH 8 0
BBX 12 14 0 -3
BITMAP
1000
1000
1000
1000
1000
1000
F000
F000
1000
1000
1000
1000
1000
1000
ENDCHAR
STARTCHAR uni2526
ENCODING 9510
SWIDTH 411 0
DWIDTH 8 0
BBX 12 14 0 -3
BITMAP
1800
1800
1800
1800
1800
1800
F800
1000
1000
1000
1000
1000
1000
1000
ENDCHAR
STARTCHAR uni2527
ENCODING 9511
SWIDTH 411 0
DWIDTH 8 0
BBX 12 14 0 -3
BITMAP
1000
1000
1000
1000
1000
1000
F800
1800
1800
1800
1800
1800
1800
1800
ENDCHAR
STARTCHAR uni2528
ENCODING 9512
SWIDTH 411 0
DWIDTH 8 0
BBX 12 14 0 -3
BITMAP
1800
1800
1800
1800
1800
1800
F800
1800
1800
1800
1800
1800
1800
1800
ENDCHAR
STARTCHAR uni2529
ENCODING 9513
SWIDTH 411 0
DWIDTH 8 0
BBX 12 14 0 -3
BITMAP
1800
1800
1800
1800
1800
1800
F800
F800
1000
1000
1000
1000
1000
1000
ENDCHAR
STARTCHAR uni252A
ENCODING 9514
SWIDTH 411 0
DWIDTH 8 0
BBX 12 14 0 -3
BITMAP
1000
1000
1000
1000
1000
1000
F800
F800
1800
1800
1800
1800
1800
1800
ENDCHAR
STARTCHAR uni252B
ENCODING 9515
SWIDTH 411 0
DWIDTH 8 0
BBX 12 14 0 -3
BITMAP
1800
1800
1800
1800
1800
1800
F800
F800
1800
1800
1800
1800
1800
1800
ENDCHAR
STARTCHAR SF060000
ENCODING 9516
SWIDTH 411 0
DWIDTH 8 0
BBX 12 14 0 -3
BITMAP
0000
0000
0000
0000
0000
0000
FF00
1000
1000
1000
1000
1000
1000
1000
ENDCHAR
STARTCHAR uni252D
ENCODING 9517
SWIDTH 411 0
DWIDTH 8 0
BBX 12 14 0 -3
BITMAP
0000
0000
0000
0000
0000
0000
FF00
F000
1000
1000
1000
1000
1000
1000
ENDCHAR
STARTCHAR uni252E
ENCODING 9518
SWIDTH 411 0
DWIDTH 8 0
BBX 12 14 0 -3
BITMAP
0000
0000
0000
0000
0000
0000
FF00
1F00
1000
1000
1000
1000
1000
1000
ENDCHAR
STARTCHAR uni252F
ENCODING 9519
SWIDTH 411 0
DWIDTH 8 0
BBX 12 14 0 -3
BITMAP
0000
0000
0000
0000
0000
0000
FF00
FF00
1000
1000
1000
1000
1000
1000
ENDCHAR
STARTCHAR uni2530
ENCODING 9520
SWIDTH 411 0
DWIDTH 8 0
BBX 12 14 0 -3
BITMAP
0000
0000
0000
0000
0000
0000
FF00
1800
1800
1800
1800
1800
1800
1800
ENDCHAR
STARTCHAR uni2531
ENCODING 9521
SWIDTH 411 0
DWIDTH 8 0
BBX 12 14 0 -3
BITMAP
0000
0000
0000
0000
0000
0000
FF00
F800
1800
1800
1800
1800
1800
1800
ENDCHAR
STARTCHAR uni2532
ENCODING 9522
SWIDTH 411 0
DWIDTH 8 0
BBX 12 14 0 -3
BITMAP
0000
0000
0000
0000
0000
0000
FF00
1F00
1800
1800
1800
1800
1800
1800
ENDCHAR
STARTCHAR uni2533
ENCODING 9523
SWIDTH 411 0
DWIDTH 8 0
BBX 12 14 0 -3
BITMAP
0000
0000
0000
0000
0000
0000
FF00
FF00
1800
1800
1800
1800
1800
1800
ENDCHAR
STARTCHAR SF070000
ENCODING 9524
SWIDTH 411 0
DWIDTH 8 0
BBX 12 14 0 -3
BITMAP
1000
1000
1000
1000
1000
1000
FF00
0000
0000
0000
0000
0000
0000
0000
ENDCHAR
STARTCHAR uni2535
ENCODING 9525
SWIDTH 411 0
DWIDTH 8 0
BBX 12 14 0 -3
BITMAP
1000
1000
1000
1000
1000
1000
FF00
F000
0000
0000
0000
0000
0000
0000
ENDCHAR
STARTCHAR uni2536
ENCODING 9526
SWIDTH 411 0
DWIDTH 8 0
BBX 12 14 0 -3
BITMAP
1000
1000
1000
1000
1000
1000
FF00
1F00
0000
0000
0000
0000
0000
0000
ENDCHAR
STARTCHAR uni2537
ENCODING 9527
SWIDTH 411 0
DWIDTH 8 0
BBX 12 14 0 -3
BITMAP
1000
1000
1000
1000
1000
1000
FF00
FF00
0000
0000
0000
0000
0000
0000
ENDCHAR
STARTCHAR uni2538
ENCODING 9528
SWIDTH 411 0
DWIDTH 8 0
BBX 12 14 0 -3
BITMAP
1800
1800
1800
1800
1800
1800
FF00
0000
0000
0000
0000
0000
0000
0000
ENDCHAR
STARTCHAR uni2539
ENCODING 9529
SWIDTH 411 0
DWIDTH 8 0
BBX 12 14 0 -3
BITMAP
1800
1800
1800
1800
1800
1800
FF00
F800
0000
0000
0000
0000
0000
0000
ENDCHAR
STARTCHAR uni253A
ENCODING 9530
SWIDTH 411 0
DWIDTH 8 0
BBX 12 14 0 -3
BITMAP
1800
1800
1800
1800
1800
1800
FF00
1F00
0000
0000
0000
0000
0000
0000
ENDCHAR
STARTCHAR uni253B
ENCODING 9531
SWIDTH 411 0
DWIDTH 8 0
BBX 12 14 0 -3
BITMAP
1800
1800
1800
1800
1800
1800
FF00
FF00
0000
0000
0000
0000
0000
0000
ENDCHAR
STARTCHAR SF050000
ENCODING 9532
SWIDTH 411 0
DWIDTH 8 0
BBX 12 14 0 -3
BITMAP
1000
1000
1000
1000
1000
1000
FF00
1000
1000
1000
1000
1000
1000
1000
ENDCHAR
STARTCHAR uni253D
ENCODING 9533
SWIDTH 411 0
DWIDTH 8 0
BBX 12 14 0 -3
BITMAP
1000
1000
1000
1000
1000
1000
FF00
F000
1000
1000
1000
1000
1000
1000
ENDCHAR
STARTCHAR uni253E
ENCODING 9534
SWIDTH 411 0
DWIDTH 8 0
BBX 12 14 0 -3
BITMAP
1000
1000
1000
1000
1000
1000
FF00
1F00
1000
1000
1000
1000
1000
1000
ENDCHAR
STARTCHAR uni253F
ENCODING 9535
SWIDTH 411 0
DWIDTH 8 0
BBX 12 14 0 -3
BITMAP
1000
1000
1000
1000
1000
1000
FF00
FF00
1000
1000
1000
1000
1000
1000
ENDCHAR
STARTCHAR uni2540
ENCODING 9536
SWIDTH 411 0
DWIDTH 8 0
BBX 12 14 0 -3
BITMAP
1800
1800
1800
1800
1800
1800
FF00
1000
1000
1000
1000
1000
1000
1000
ENDCHAR
STARTCHAR uni2541
ENCODING 9537
SWIDTH 411 0
DWIDTH 8 0
BBX 12 14 0 -3
BITMAP
1000
1000
1000
1000
1000
1000
FF00
1800
1800
1800
1800
1800
1800
1800
ENDCHAR
STARTCHAR uni2542
ENCODING 9538
SWIDTH 411 0
DWIDTH 8 0
BBX 12 14 0 -3
BITMAP
1800
1800
1800
1800
1800
1800
FF00
1800
1800
1800
1800
1800
1800
1800
ENDCHAR
STARTCHAR uni2543
ENCODING 9539
SWIDTH 411 0
DWIDTH 8 0
BBX 12 14 0 -3
BITMAP
1800
1800
1800
1800
1800
1800
FF00
F000
1000
1000
1000
1000
1000
1000
ENDCHAR
STARTCHAR uni2544
ENCODING 9540
SWIDTH 411 0
DWIDTH 8 0
BBX 12 14 0 -3
BITMAP
1800
1800
1800
1800
1800
1800
FF00
1F00
1000
1000
1000
1000
1000
1000
ENDCHAR
STARTCHAR uni2545
ENCODING 9541
SWIDTH 411 0
DWIDTH 8 0
BBX 12 14 0 -3
BITMAP
1000
1000
1000
1000
1000
1000
FF00
F800
1800
1800
1800
1800
1800
1800
ENDCHAR
STARTCHAR uni2546
ENCODING 9542
SWIDTH 411 0
DWIDTH 8 0
BBX 12 14 0 -3
BITMAP
1000
1000
1000
1000
1000
1000
FF00
1F00
1800
1800
1800
1800
1800
1800
ENDCHAR
STARTCHAR uni2547
ENCODING 9543
SWIDTH 411 0
DWIDTH 8 0
BBX 12 14 0 -3
BITMAP
1800
1800
1800
1800
1800
1800
FF00
FF00
1000
1000
1000
1000
1000
1000
ENDCHAR
STARTCHAR uni2548
ENCODING 9544
SWIDTH 411 0
DWIDTH 8 0
BBX 12 14 0 -3
BITMAP
1000
1000
1000
1000
1000
1000
FF00
FF00
1800
1800
1800
1800
1800
1800
ENDCHAR
STARTCHAR uni2549
ENCODING 9545
SWIDTH 411 0
DWIDTH 8 0
BBX 12 14 0 -3
BITMAP
1800
1800
1800
1800
1800
1800
FF00
F800
1800
1800
1800
1800
1800
1800
ENDCHAR
STARTCHAR uni254A
ENCODING 9546
SWIDTH 411 0
DWIDTH 8 0
BBX 12 14 0 -3
BITMAP
1800
1800
1800
1800
1800
1800
FF00
1F00
1800
1800
1800
1800
1800
1800
ENDCHAR
STARTCHAR uni254B
ENCODING 9547
SWIDTH 411 0
DWIDTH 8 0
BBX 12 14 0 -3
BITMAP
1800
1800
1800
1800
1800
1800
FF00
FF00
1800
1800
1800
1800
1800
1800
ENDCHAR
STARTCHAR SF430000
ENCODING 9552
SWIDTH 411 0
DWIDTH 8 0
BBX 12 14 0 -3
BITMAP
0000
0000
0000
0000
0000
FF00
0000
FF00
0000
0000
0000
0000
0000
0000
ENDCHAR
STARTCHAR SF240000
ENCODING 9553
SWIDTH 411 0
DWIDTH 8 0
BBX 12 14 0 -3
BITMAP
2800
2800
2800
2800
2800
2800
2800
2800
2800
2800
2800
2800
2800
2800
ENDCHAR
STARTCHAR SF510000
ENCODING 9554
SWIDTH 411 0
DWIDTH 8 0
BBX 12 14 0 -3
BITMAP
0000
0000
0000
0000
0000
1F00
1000
1F00
1000
1000
1000
1000
1000
1000
ENDCHAR
STARTCHAR SF520000
ENCODING 9555
SWIDTH 411 0
DWIDTH 8 0
BBX 12 14 0 -3
BITMAP
0000
0000
0000
0000
0000
0000
3F00
2800
2800
2800
2800
2800
2800
2800
ENDCHAR
STARTCHAR SF390000
ENCODING 9556
SWIDTH 411 0
DWIDTH 8 0
BBX 12 14 0 -3
BITMAP
0000
0000
0000
0000
0000
3F00
2000
2F00
2800
2800
2800
2800
2800
2800
ENDCHAR
STARTCHAR SF220000
ENCODING 9557
SWIDTH 411 0
DWIDTH 8 0
BBX 12 14 0 -3
BITMAP
0000
0000
0000
0000
0000
F000
1000
F000
1000
1000
1000
1000
1000
1000
ENDCHAR
STARTCHAR SF210000
ENCODING 9558
SWIDTH 411 0
DWIDTH 8 0
BBX 12 14 0 -3
BITMAP
0000
0000
0000
0000
0000
0000
F800
2800
2800
2800
2800
2800
2800
2800
ENDCHAR
STARTCHAR SF250000
ENCODING 9559
SWIDTH 411 0
DWIDTH 8 0
BBX 12 14 0 -3
BITMAP
0000
0000
0000
0000
0000
F800
0800
E800
2800
2800
2800
2800
2800
2800
ENDCHAR
STARTCHAR SF500000
ENCODING 9560
SWIDTH 411 0
DWIDTH 8 0
BBX 12 14 0 -3
BITMAP
1000
1000
1000
1000
1000
1F00
1000
1F00
0000
0000
0000
0000
0000
0000
ENDCHAR
STARTCHAR SF490000
ENCODING 9561
SWIDTH 411 0
DWIDTH 8 0
BBX 12 14 0 -3
BITMAP
2800
2800
2800
2800
2800
2800
3F00
0000
0000
0000
0000
0000
0000
0000
ENDCHAR
STARTCHAR SF380000
ENCODING 9562
SWIDTH 411 0
DWIDTH 8 0
BBX 12 14 0 -3
BITMAP
2800
2800
2800
2800
2800
2F00
2000
3F00
0000
0000
0000
0000
0000
0000
ENDCHAR
STARTCHAR SF280000
ENCODING 9563
SWIDTH 411 0
DWIDTH 8 0
BBX 12 14 0 -3
BITMAP
1000
1000
1000
1000
1000
F000
1000
F000
0000
0000
0000
0000
0000
0000
ENDCHAR
STARTCHAR SF270000
ENCODING 9564
SWIDTH 411 0
DWIDTH 8 0
BBX 12 14 0 -3
BITMAP
2800
2800
2800
2800
2800
2800
F800
0000
0000
0000
0000
0000
0000
0000
ENDCHAR
STARTCHAR SF260000
ENCODING 9565
SWIDTH 411 0
DWIDTH 8 0
BBX 12 14 0 -3
BITMAP
2800
2800
2800
2800
2800
E800
0800
F800
0000
0000
0000
0000
0000
0000
ENDCHAR
STARTCHAR SF360000
ENCODING 9566
SWIDTH 411 0
DWIDTH 8 0
BBX 12 14 0 -3
BITMAP
1000
1000
1000
1000
1000
1F00
1000
1F00
1000
1000
1000
1000
1000
1000
ENDCHAR
STARTCHAR SF370000
ENCODING 9567
SWIDTH 411 0
DWIDTH 8 0
BBX 12 14 0 -3
BITMAP
2800
2800
2800
2800
2800
2800
2F00
2800
2800
2800
2800
2800
2800
2800
ENDCHAR
STARTCHAR SF420000
ENCODING 9568
SWIDTH 411 0
DWIDTH 8 0
BBX 12 14 0 -3
BITMAP
2800
2800
2800
2800
2800
2F00
2000
2F00
2800
2800
2800
2800
2800
2800
ENDCHAR
STARTCHAR SF190000
ENCODING 9569
SWIDTH 411 0
DWIDTH 8 0
BBX 12 14 0 -3
BITMAP
1000
1000
1000
1000
1000
F000
1000
F000
1000
1000
1000
1000
1000
1000
ENDCHAR
STARTCHAR SF200000
ENCODING 9570
SWIDTH 411 0
DWIDTH 8 0
BBX 12 14 0 -3
BITMAP
2800
2800
2800
2800
2800
2800
E800
2800
2800
2800
2800
2800
2800
2800
ENDCHAR
STARTCHAR SF230000
ENCODING 9571
SWIDTH 411 0
DWIDTH 8 0
BBX 12 14 0 -3
BITMAP
2800
2800
2800
2800
2800
E800
0800
E800
2800
2800
2800
2800
2800
2800
ENDCHAR
STARTCHAR SF470000
ENCODING 9572
SWIDTH 411 0
DWIDTH 8 0
BBX 12 14 0 -3
BITMAP
0000
0000
0000
0000
0000
FF00
0000
FF00
1000
1000
1000
1000
1000
1000
ENDCHAR
STARTCHAR SF480000
ENCODING 9573
SWIDTH 411 0
DWIDTH 8 0
BBX 12 14 0 -3
BITMAP
0000
0000
0000
0000
0000
0000
FF00
2800
2800
2800
2800
2800
2800
2800
ENDCHAR
STARTCHAR SF410000
ENCODING 9574
SWIDTH 411 0
DWIDTH 8 0
BBX 12 14 0 -3
BITMAP
0000
0000
0000
0000
0000
FF00
0000
EF00
2800
2800
2800
2800
2800
2800
ENDCHAR
STARTCHAR SF450000
ENCODING 9575
SWIDTH 411 0
DWIDTH 8 0
BBX 12 14 0 -3
BITMAP
1000
1000
1000
1000
1000
FF00
0000
FF00
0000
0000
0000
0000
0000
0000
ENDCHAR
STARTCHAR SF460000
ENCODING 9576
SWIDTH 411 0
DWIDTH 8 0
BBX 12 14 0 -3
BITMAP
2800
2800
2800
2800
2800
2800
FF00
0000
0000
0000
0000
0000
0000
0000
ENDCHAR
STARTCHAR SF400000
ENCODING 9577
SWIDTH 411 0
DWIDTH 8 0
BBX 12 14 0 -3
BITMAP
2800
2800
2800
2800
2800
EF00
0000
FF00
0000
0000
0000
0000
0000
0000
ENDCHAR
STARTCHAR SF540000
ENCODING 9578
SWIDTH 411 0
DWIDTH 8 0
BBX 12 14 0 -3
BITMAP
1000
1000
1000
1000
1000
FF00
1000
FF00
1000
1000
1000
1000
1000
1000
ENDCHAR
STARTCHAR SF530000
ENCODING 9579
SWIDTH 411 0
DWIDTH 8 0
BBX 12 14 0 -3
BITMAP
2800
2800
2800
2800
2800
2800
FF00
2800
2800
2800
2800
2800
2800
2800
ENDCHAR
STARTCHAR SF440000
ENCODING 9580
SWIDTH 411 0
DWIDTH 8 0
BBX 12 14 0 -3
BITMAP
2800
2800
2800
2800
2800
EF00
0000
EF00
2800
2800
2800
2800
2800
2800
ENDCHAR
STARTCHAR upblock
ENCODING 9600
SWIDTH 411 0
DWIDTH 8 0
BBX 12 14 0 -3
BITMAP
FF00
FF00
FF00
FF00
FF00
FF00
FF00
0000
0000
0000
0000
0000
0000
0000
ENDCHAR
STARTCHAR uni2581
ENCODING 9601
SWIDTH 411 0
DWIDTH 8 0
BBX 12 14 0 -3
BITMAP
0000
0000
0000
0000
0000
0000
0000
0000
0000
0000
0000
0000
FF00
FF00
ENDCHAR
STARTCHAR uni2582
ENCODING 9602
SWIDTH 411 0
DWIDTH 8 0
BBX 12 14 0 -3
BITMAP
0000
0000
0000
0000
0000
0000
0000
0000
0000
0000
0000
FF00
FF00
FF00
ENDCHAR
STARTCHAR uni2583
ENCODING 9603
SWIDTH 411 0
DWIDTH 8 0
BBX 12 14 0 -3
BITMAP
0000
0000
0000
0000
0000
0000
0000
0000
0000
FF00
FF00
FF00
FF00
FF00
ENDCHAR
STARTCHAR dnblock
ENCODING 9604
SWIDTH 411 0
DWIDTH 8 0
BBX 12 14 0 -3
BITMAP
0000
0000
0000
0000
0000
0000
0000
FF00
FF00
FF00
FF00
FF00
FF00
FF00
ENDCHAR
STARTCHAR uni2585
ENCODING 9605
SWIDTH 411 0
DWIDTH 8 0
BBX 12 14 0 -3
BITMAP
0000
0000
0000
0000
0000
FF00
FF00
FF00
FF00
FF00
FF00
FF00
FF00
FF00
ENDCHAR
STARTCHAR uni2586
ENCODING 9606
SWIDTH 411 0
DWIDTH 8 0
BBX 12 14 0 -3
BITMAP
0000
0000
0000
0000
FF00
FF00
FF00
FF00
FF00
FF00
FF00
FF00
FF00
FF00
ENDCHAR
STARTCHAR uni2587
ENCODING 9607
SWIDTH 411 0
DWIDTH 8 0
BBX 12 14 0 -3
BITMAP
0000
0000
FF00
FF00
FF00
FF00
FF00
FF00
FF00
FF00
FF00
FF00
FF00
FF00
ENDCHAR
STARTCHAR block
ENCODING 9608
SWIDTH 411 0
DWIDTH 8 0
BBX 12 14 0 -3
BITMAP
FF00
FF00
FF00
FF00
FF00
FF00
FF00
FF00
FF00
FF00
FF00
FF00
FF00
FF00
ENDCHAR
STARTCHAR lfblock
ENCODING 9612
SWIDTH 411 0
DWIDTH 8 0
BBX 12 14 0 -3
BITMAP
F000
F000
F000
F000
F000
F000
F000
F000
F000
F000
F000
F000
F000
F000
ENDCHAR
STARTCHAR rtblock
ENCODING 9616
SWIDTH 411 0
DWIDTH 8 0
BBX 12 14 0 -3
BITMAP
0F00
0F00
0F00
0F00
0F00
0F00
0F00
0F00
0F00
0F00
0F00
0F00
0F00
0F00
ENDCHAR
STARTCHAR ltshade
ENCODING 9617
SWIDTH 411 0
DWIDTH 8 0
BBX 12 14 0 -3
BITMAP
8800
2200
8800
2200
8800
2200
8800
2200
8800
2200
8800
2200
8800
2200
ENDCHAR
STARTCHAR shade
ENCODING 9618
SWIDTH 411 0
DWIDTH 8 0
BBX 12 14 0 -3
BITMAP
AA00
5500
AA00
5500
AA00
5500
AA00
5500
AA00
5500
AA00
5500
AA00
5500
ENDCHAR
STARTCHAR dkshade
ENCODING 9619
SWIDTH 411 0
DWIDTH 8 0
BBX 12 14 0 -3
BITMAP
EE00
BB00
EE00
BB00
EE00
BB00
EE00
BB00
EE00
BB00
EE00
BB00
EE00
BB00
ENDCHAR
STARTCHAR uni2596
ENCODING 9622
SWIDTH 411 0
DWIDTH 8 0
BBX 12 14 0 -3
BITMAP
0000
0000
0000
0000
0000
0000
0000
F000
F000
F000
F000
F000
F000
F000
ENDCHAR
STARTCHAR uni2597
ENCODING 9623
SWIDTH 411 0
DWIDTH 8 0
BBX 12 14 0 -3
BITMAP
0000
0000
0000
0000
0000
0000
0000
0F00
0F00
0F00
0F00
0F00
0F00
0F00
ENDCHAR
STARTCHAR uni2598
ENCODING 9624
SWIDTH 411 0
DWIDTH 8 0
BBX 12 14 0 -3
BITMAP
F000
F000
F000
F000
F000
F000
F000
0000
0000
0000
0000
0000
0000
0000
ENDCHAR
STARTCHAR uni2599
ENCODING 9625
SWIDTH 411 0
DWIDTH 8 0
BBX 12 14 0 -3
BITMAP
F000
F000
F000
F000
F000
F000
F000
FF00
FF00
FF00
FF00
FF00
FF00
FF00
ENDCHAR
STARTCHAR uni259A
ENCODING 9626
SWIDTH 411 0
DWIDTH 8 0
BBX 12 14 0 -3
BITMAP
F000
F000
F000
F000
F000
F000
F000
0F00
0F00
0F00
0F00
0F00
0F00
0F00
ENDCHAR
STARTCHAR uni259B
ENCODING 9627
SWIDTH 411 0
DWIDTH 8 0
BBX 12 14 0 -3
BITMAP
FF00
FF00
FF00
FF00
FF00
FF00
FF00
F000
F000
F000
F000
F000
F000
F000
ENDCHAR
STARTCHAR uni259C
ENCODING 9628
SWIDTH 411 0
DWIDTH 8 0
BBX 12 14 0 -3
BITMAP
FF00
FF00
FF00
FF00
FF00
FF00
FF00
0F00
0F00
0F00
0F00
0F00
0F00
0F00
ENDCHAR
STARTCHAR uni259D
ENCODING 9629
SWIDTH 411 0
DWIDTH 8 0
BBX 12 14 0 -3
BITMAP
0F00
0F00
0F00
0F00
0F00
0F00
0F00
0000
0000
0000
0000
0000
0000
0000
ENDCHAR
STARTCHAR uni259E
ENCODING 9630
SWIDTH 411 0
DWIDTH 8 0
BBX 12 14 0 -3
BITMAP
0F00
0F00
0F00
0F00
0F00
0F00
0F00
F000
F000
F000
F000
F000
F000
F000
ENDCHAR
STARTCHAR uni259F
ENCODING 9631
SWIDTH 411 0
DWIDTH 8 0
BBX 12 14 0 -3
BITMAP
0F00
0F00
0F00
0F00
0F00
0F00
0F00
FF00
FF00
FF00
FF00
FF00
FF00
FF00
ENDCHAR
STARTCHAR filledbox
ENCODING 9632
SWIDTH 411 0
DWIDTH 8 0
BBX 12 14 0 -3
BITMAP
0000
0000
0000
0000
3C00
3C00
3C00
3C00
3C00
3C00
0000
0000
0000
0000
ENDCHAR
STARTCHAR filledrect
ENCODING 9644
SWIDTH 411 0
DWIDTH 8 0
BBX 12 14 0 -3
BITMAP
0000
0000
0000
0000
0000
0000
0000
0000
7E00
7E00
7E00
7E00
0000
0000
ENDCHAR
STARTCHAR uni25AE
ENCODING 9646
SWIDTH 411 0
DWIDTH 8 0
BBX 12 14 0 -3
BITMAP
0000
0000
7E00
7E00
7E00
7E00
7E00
7E00
7E00
7E00
7E00
7E00
0000
0000
ENDCHAR
STARTCHAR triagup
ENCODING 9650
SWIDTH 411 0
DWIDTH 8 0
BBX 12 14 0 -3
BITMAP
0000
0000
0000
1000
1000
3800
3800
7C00
7C00
FE00
FE00
0000
0000
0000
ENDCHAR
STARTCHAR uni25B6
ENCODING 9654
SWIDTH 411 0
DWIDTH 8 0
BBX 12 14 0 -3
BITMAP
0000
0000
0000
C000
F000
FC00
FF00
FC00
F000
C000
0000
0000
0000
0000
ENDCHAR
STARTCHAR triagdn
ENCODING 9660
SWIDTH 411 0
DWIDTH 8 0
BBX 12 14 0 -3
BITMAP
0000
0000
0000
FE00
FE00
7C00
7C00
3800
3800
1000
1000
0000
0000
0000
ENDCHAR
STARTCHAR uni25C0
ENCODING 9664
SWIDTH 411 0
DWIDTH 8 0
BBX 12 14 0 -3
BITMAP
0000
0000
0000
0300
0F00
3F00
FF00
3F00
0F00
0300
0000
0000
0000
0000
ENDCHAR
STARTCHAR blackdiamond
ENCODING 9670
SWIDTH 411 0
DWIDTH 8 0
BBX 12 14 0 -3
BITMAP
0000
0000
0000
0000
1000
3800
7C00
FE00
7C00
3800
1000
0000
0000
0000
ENDCHAR
STARTCHAR lozenge
ENCODING 9674
SWIDTH 411 0
DWIDTH 8 0
BBX 12 14 0 -3
BITMAP
0000
0000
0000
0000
1000
2800
4400
8200
4400
2800
1000
0000
0000
0000
ENDCHAR
STARTCHAR circle
ENCODING 9675
SWIDTH 411 0
DWIDTH 8 0
BBX 12 14 0 -3
BITMAP
0000
0000
0000
0000
0000
1800
2400
2400
1800
0000
0000
0000
0000
0000
ENDCHAR
STARTCHAR invbullet
ENCODING 9688
SWIDTH 411 0
DWIDTH 8 0
BBX 12 14 0 -3
BITMAP
FF00
FF00
FF00
FF00
FF00
E700
C300
C300
E700
FF00
FF00
FF00
FF00
FF00
ENDCHAR
STARTCHAR invcircle
ENCODING 9689
SWIDTH 411 0
DWIDTH 8 0
BBX 12 14 0 -3
BITMAP
FF00
FF00
FF00
FF00
FF00
E700
DB00
DB00
E700
FF00
FF00
FF00
FF00
FF00
ENDCHAR
STARTCHAR smileface
ENCODING 9786
SWIDTH 411 0
DWIDTH 8 0
BBX 12 14 0 -3
BITMAP
0000
0000
7C00
8200
AA00
8200
8200
BA00
9200
8200
8200
7C00
0000
0000
ENDCHAR
STARTCHAR invsmileface
ENCODING 9787
SWIDTH 411 0
DWIDTH 8 0
BBX 12 14 0 -3
BITMAP
0000
0000
7C00
FE00
D600
FE00
FE00
C600
EE00
FE00
FE00
7C00
0000
0000
ENDCHAR
STARTCHAR sun
ENCODING 9788
SWIDTH 411 0
DWIDTH 8 0
BBX 12 14 0 -3
BITMAP
0000
0000
0000
1000
9200
5400
3800
EE00
3800
5400
9200
1000
0000
0000
ENDCHAR
STARTCHAR female
ENCODING 9792
SWIDTH 411 0
DWIDTH 8 0
BBX 12 14 0 -3
BITMAP
0000
0000
3800
4400
4400
4400
4400
3800
1000
7C00
1000
1000
0000
0000
ENDCHAR
STARTCHAR male
ENCODING 9794
SWIDTH 411 0
DWIDTH 8 0
BBX 12 14 0 -3
BITMAP
0000
0000
1E00
0600
0A00
1200
3800
4400
4400
4400
4400
3800
0000
0000
ENDCHAR
STARTCHAR spade
ENCODING 9824
SWIDTH 411 0
DWIDTH 8 0
BBX 12 14 0 -3
BITMAP
0000
0000
1000
1000
3800
7C00
FE00
FE00
7C00
1000
1000
3800
0000
0000
ENDCHAR
STARTCHAR club
ENCODING 9827
SWIDTH 411 0
DWIDTH 8 0
BBX 12 14 0 -3
BITMAP
0000
0000
1000
3800
3800
1000
5400
FE00
FE00
5400
1000
3800
0000
0000
ENDCHAR
STARTCHAR heart
ENCODING 9829
SWIDTH 411 0
DWIDTH 8 0
BBX 12 14 0 -3
BITMAP
0000
0000
0000
6C00
FE00
FE00
FE00
FE00
7C00
3800
1000
0000
0000
0000
ENDCHAR
STARTCHAR diamond
ENCODING 9830
SWIDTH 411 0
DWIDTH 8 0
BBX 12 14 0 -3
BITMAP
0000
0000
0000
0000
1000
3800
7C00
FE00
7C00
3800
1000
0000
0000
0000
ENDCHAR
STARTCHAR musicalnote
ENCODING 9834
SWIDTH 411 0
DWIDTH 8 0
BBX 12 14 0 -3
BITMAP
0000
0000
3E00
2200
3E00
2000
2000
2000
2000
2000
2000
C000
0000
0000
ENDCHAR
STARTCHAR musicalnotedbl
ENCODING 9835
SWIDTH 411 0
DWIDTH 8 0
BBX 12 14 0 -3
BITMAP
0000
0000
7E00
4200
7E00
4200
4200
4200
4200
4200
4200
4400
8000
0000
ENDCHAR
STARTCHAR CHECK MARK
ENCODING 10003
SWIDTH 411 0
DWIDTH 8 0
BBX 12 14 0 -3
BITMAP
0000
0040
0040
0080
0080
1100
1100
0A00
0A00
0A00
0400
0400
0000
0000
ENDCHAR
STARTCHAR BALLOT X
ENCODING 10007
SWIDTH 411 0
DWIDTH 8 0
BBX 12 14 0 -3
BITMAP
0000
0080
1080
1080
1100
0A00
0400
0A00
1100
2100
2100
2000
0000
0000
ENDCHAR
STARTCHAR MATHEMATICAL LEFT ANGLE BRACKET
ENCODING 10216
SWIDTH 411 0
DWIDTH 8 0
BBX 12 14 0 -3
BITMAP
0000
0080
0100
0100
0200
0200
0400
0400
0200
0200
0100
0100
0080
0000
ENDCHAR
STARTCHAR MATHEMATICAL RIGHT ANGLE BRACKET
ENCODING 10217
SWIDTH 411 0
DWIDTH 8 0
BBX 12 14 0 -3
BITMAP
0000
0800
0400
0400
0200
0200
0100
0100
0200
0200
0400
0400
0800
0000
ENDCHAR
STARTCHAR char57344
ENCODING 57344
SWIDTH 411 0
DWIDTH 8 0
BBX 12 14 0 -3
BITMAP
0000
0000
FFC0
FFC0
FFC0
FFC0
FFC0
FFC0
FFC0
FFC0
FFC0
FFC0
0000
0000
ENDCHAR
STARTCHAR char57345
ENCODING 57345
SWIDTH 411 0
DWIDTH 8 0
BBX 12 14 0 -3
BITMAP
0000
0000
FFC0
FFC0
C0C0
C0C0
C0C0
C0C0
C0C0
C0C0
FFC0
FFC0
0000
0000
ENDCHAR
STARTCHAR char57346
ENCODING 57346
SWIDTH 411 0
DWIDTH 8 0
BBX 12 14 0 -3
BITMAP
0000
0000
3EF0
3EF0
3EF0
3E00
3EF0
3EF0
3E00
3EF0
3EF0
3EF0
0000
0000
ENDCHAR
STARTCHAR char57347
ENCODING 57347
SWIDTH 411 0
DWIDTH 8 0
BBX 12 14 0 -3
BITMAP
0000
0000
3FF0
3FF0
3FF0
3FF0
3FF0
0000
3B70
3B70
3B70
3B70
0000
0000
ENDCHAR
STARTCHAR char57348
ENCODING 57348
SWIDTH 411 0
DWIDTH 8 0
BBX 12 14 0 -3
BITMAP
0000
0000
3DF0
3DF0
3DF0
01F0
3DF0
3DF0
01F0
3DF0
3DF0
3DF0
0000
0000
ENDCHAR
STARTCHAR char57349
ENCODING 57349
SWIDTH 411 0
DWIDTH 8 0
BBX 12 14 0 -3
BITMAP
0000
0000
3B70
3B70
3B70
3B70
0000
3FF0
3FF0
3FF0
3FF0
3FF0
0000
0000
ENDCHAR
STARTCHAR char57350
ENCODING 57350
SWIDTH 411 0
DWIDTH 8 0
BBX 12 14 0 -3
BITMAP
0000
0000
3770
3770
3770
0000
3770
3770
3770
0000
3770
3770
0000
0000
ENDCHAR
STARTCHAR char57504
ENCODING 57504
SWIDTH 411 0
DWIDTH 8 0
BBX 12 14 0 -3
BITMAP
0000
0800
0900
0B80
0900
0900
0200
0400
0800
0800
0800
0800
0800
0000
ENDCHAR
STARTCHAR char57505
ENCODING 57505
SWIDTH 411 0
DWIDTH 8 0
BBX 12 14 0 -3
BITMAP
2000
2000
2000
2000
2000
2000
3C00
0000
0880
0C80
0E80
0B80
0980
0880
ENDCHAR
STARTCHAR POWERLINE CLOSED PADLOCK
ENCODING 57506
SWIDTH 411 0
DWIDTH 8 0
BBX 12 14 0 -3
BITMAP
0000
0F00
1080
1080
1080
3FC0
3FC0
39C0
3BC0
3BC0
3BC0
3BC0
3FC0
0000
ENDCHAR
STARTCHAR char57507
ENCODING 57507
SWIDTH 411 0
DWIDTH 8 0
BBX 12 14 0 -3
BITMAP
8000
C000
E000
F000
F800
FC00
FE00
FE00
FC00
F800
F000
E000
C000
8000
ENDCHAR
STARTCHAR char57508
ENCODING 57508
SWIDTH 411 0
DWIDTH 8 0
BBX 12 14 0 -3
BITMAP
8000
4000
2000
1000
0800
0400
0200
0200
0400
0800
1000
2000
4000
8000
ENDCHAR
STARTCHAR char57509
ENCODING 57509
SWIDTH 411 0
DWIDTH 8 0
BBX 12 14 0 -3
BITMAP
0100
0300
0700
0F00
1F00
3F00
7F00
7F00
3F00
1F00
0F00
0700
0300
0100
ENDCHAR
STARTCHAR char57510
ENCODING 57510
SWIDTH 411 0
DWIDTH 8 0
BBX 12 14 0 -3
BITMAP
0100
0200
0400
0800
1000
2000
4000
4000
2000
1000
0800
0400
0200
0100
ENDCHAR
STARTCHAR uniF6BE
ENCODING 63166
SWIDTH 411 0
DWIDTH 8 0
BBX 12 14 0 -3
BITMAP
0000
0000
0000
0000
0000
0C00
0400
0400
0400
0400
0400
4400
4400
3800
ENDCHAR
STARTCHAR uniFFFD
ENCODING 65533
SWIDTH 411 0
DWIDTH 8 0
BBX 12 14 0 -3
BITMAP
0000
0000
7E00
4200
4200
4200
4200
4200
4200
4200
4200
7E00
0000
0000
ENDCHAR
ENDFONT
